<?xml version="1.0" encoding="utf-8"?>
<!-- Generator: Adobe Illustrator 21.1.0, SVG Export Plug-In . SVG Version: 6.00 Build 0)  -->
<svg version="1.1" id="Layer_1" xmlns="http://www.w3.org/2000/svg" xmlns:xlink="http://www.w3.org/1999/xlink" x="0px" y="0px"
	 viewBox="0 0 619 300" style="enable-background:new 0 0 619 300;" xml:space="preserve">
<style type="text/css">
	.st0{fill:#2CAAE1;}
	.st1{fill:#FFFFFF;}
</style>
<rect class="st0" width="300" height="300"/>
<path class="st1" d="M250,88c-7.4,3.3-15.3,5.5-23.6,6.5c8.5-5.1,15-13.1,18-22.7c-7.9,4.7-16.7,8.1-26.1,10c-7.5-8-18.1-13-30-13
	c-22.7,0-41,18.4-41,41c0,3.2,0.4,6.3,1.1,9.4c-34.1-1.7-64.3-18-84.6-42.9c-3.5,6.1-5.6,13.1-5.6,20.6c0,14.2,7.2,26.8,18.3,34.2
	c-6.7-0.2-13.1-2.1-18.6-5.1c0,0.2,0,0.3,0,0.5c0,19.9,14.1,36.5,32.9,40.2c-3.4,0.9-7.1,1.4-10.8,1.4c-2.6,0-5.2-0.3-7.7-0.7
	c5.2,16.3,20.4,28.2,38.3,28.5c-14,11-31.7,17.6-51,17.6c-3.3,0-6.6-0.2-9.8-0.6c18.2,11.6,39.7,18.4,62.9,18.4
	c75.5,0,116.7-62.5,116.7-116.7c0-1.8,0-3.5-0.1-5.3C237.5,103.4,244.5,96.2,250,88z"/>
<path class="st0" d="M569,88c-7.4,3.3-15.3,5.5-23.6,6.5c8.5-5.1,15-13.1,18-22.7c-7.9,4.7-16.7,8.1-26.1,10c-7.5-8-18.1-13-30-13
	c-22.7,0-41,18.4-41,41c0,3.2,0.4,6.3,1.1,9.4c-34.1-1.7-64.3-18-84.6-42.9c-3.5,6.1-5.6,13.1-5.6,20.6c0,14.2,7.2,26.8,18.3,34.2
	c-6.7-0.2-13.1-2.1-18.6-5.1c0,0.2,0,0.3,0,0.5c0,19.9,14.1,36.5,32.9,40.2c-3.4,0.9-7.1,1.4-10.8,1.4c-2.6,0-5.2-0.3-7.7-0.7
	c5.2,16.3,20.4,28.2,38.3,28.5c-14,11-31.7,17.6-51,17.6c-3.3,0-6.6-0.2-9.8-0.6c18.2,11.6,39.7,18.4,62.9,18.4
	c75.5,0,116.7-62.5,116.7-116.7c0-1.8,0-3.5-0.1-5.3C556.5,103.4,563.5,96.2,569,88z"/>
</svg>
