<?xml version="1.0" encoding="utf-8"?>
<!-- Generator: Adobe Illustrator 21.1.0, SVG Export Plug-In . SVG Version: 6.00 Build 0)  -->
<svg version="1.1" id="Layer_1" xmlns="http://www.w3.org/2000/svg" xmlns:xlink="http://www.w3.org/1999/xlink" x="0px" y="0px"
	 viewBox="0 0 601 143" style="enable-background:new 0 0 601 143;" xml:space="preserve">
<style type="text/css">
	.st0{fill:#3B66A6;}
	.st1{fill:#FFFFFF;}
</style>
<rect class="st0" width="601" height="143"/>
<path class="st1" d="M88,20v16h-8.9c0,0-8.1-1.1-8.1,6.5V55h16.5l-2,17H71v48H52V72H39V55h13V40.5c0,0-1.7-8,5.5-14.5
	c7.2-6.5,16.7-6,16.7-6H88z"/>
<path class="st1" d="M133,55v8.8c0,0-11-10.4-18.6-10.4c-14.9,0-27,13.1-27,34.5c0,21.2,12.1,34.5,27,34.5c7.6,0,14.6-4.1,19.6-10.6
	v8.2h18V55H133z M133,94.3c0,6.6-5.6,12.8-12.5,12.8c-6.9,0-12.5-6.2-12.5-12.8V81.9c0-6.6,5.6-12.8,12.5-12.8
	c6.9,0,12.5,6.2,12.5,12.8V94.3z"/>
<path class="st1" d="M303,120v-8.1c5.1,6.4,12,10.4,19.5,10.4c14.9,0,27-13.1,27-34.5c0-21.2-12.1-34.5-27-34.5
	C314.9,53.4,304,64,304,64l0.1-43.1L284,23.1V120H303z M304,81.4c0-6.6,5.6-12.8,12.5-12.8S329,74.8,329,81.4v12.5
	c0,6.6-5.6,12.8-12.5,12.8S304,100.5,304,93.9V81.4z"/>
<path class="st1" d="M193.8,106.6c0,0-14.8,0.8-14.8-18.3v-1c0-19.2,14.8-18.3,14.8-18.3c10-0.1,13.5,3.4,13.5,3.4l4.7-14
	c-8-5.9-32.3-6.9-43.2,3.1c-9.4,8.7-9.4,22.7-9.2,26.3c-0.2,3.6-0.2,17.7,9.2,26.3c10.9,10,35.1,9,43.2,3.1l-4.7-14
	C207.4,103.3,203.8,106.8,193.8,106.6z"/>
<path class="st1" d="M276,95c0,0,7.8-40.6-29.3-40.9c-37.1-0.2-31.7,36.8-31.7,36.8c0.8,22.4,11.1,28.9,28.8,31s31-4.7,31-4.7
	l-4.1-13.1c0,0-14.3,4.4-25.5,3.4c-11.3-1-10.4-12.6-10.4-12.6H276z M234.4,82c0,0-1-14.4,12-14.4c13,0,12,14.4,12,14.4H234.4z"/>
<path class="st1" d="M387.7,54.3c-24.2,0-32.3,14.6-32.3,34.1c0,20.7,10.5,34.1,32.3,34.1c17.8,0,32.3-12,32.3-34.1
	C420,69.5,410.8,54.3,387.7,54.3z M401,94.1c0,6.7-5.8,12.9-13,12.9c-7.2,0-13-6.3-13-12.9V81.4c0-6.7,5.8-12.9,13-12.9
	c7.2,0,13,6.3,13,12.9V94.1z"/>
<path class="st1" d="M459,54.3c-24.2,0-32.3,14.6-32.3,34.1c0,20.7,10.5,34.1,32.3,34.1c17.8,0,32.3-12,32.3-34.1
	C491.3,69.5,482.1,54.3,459,54.3z M472,94.1c0,6.7-5.8,12.9-13,12.9c-7.2,0-13-6.3-13-12.9V81.4c0-6.7,5.8-12.9,13-12.9
	c7.2,0,13,6.3,13,12.9V94.1z"/>
<polygon class="st1" points="558.5,120 537.8,87.5 557.5,55 537.3,55 518,84.1 518,20.9 499,23 499,120 518,120 518,86.9 538.8,120 
	"/>
</svg>
