<?xml version="1.0" encoding="utf-8"?>
<!-- Generator: Adobe Illustrator 21.1.0, SVG Export Plug-In . SVG Version: 6.00 Build 0)  -->
<svg version="1.1" xmlns="http://www.w3.org/2000/svg" xmlns:xlink="http://www.w3.org/1999/xlink" x="0px" y="0px"
	 viewBox="0 0 658 426.5" style="enable-background:new 0 0 658 426.5;" xml:space="preserve">
<style type="text/css">
	.st0{fill:#0177B5;}
	.st1{fill:#FFFFFF;}
</style>
<g id="bg">
	<rect y="213.2" width="658" height="213.2"/>
</g>
<g id="Layer_1">
	<g>
		<g>
			<g>
				<g>
					<g>
						<polygon points="39,58 61,58 61,139 102,139 102,159 39,159 						"/>
						<g>
							<path d="M112,90h21v69h-21V90z M123,56.3c6.8,0,12.4,5.5,12.4,12.4c0,6.8-5.5,12.4-12.4,12.4c-6.8,0-12.4-5.5-12.4-12.4
								C110.6,61.8,116.1,56.3,123,56.3"/>
						</g>
						<polygon points="223,58 244,58 244,118.1 268.3,90 294.5,90 266.4,121.9 293.9,159 267,159 244.3,125 244,125 244,159 
							223,159 						"/>
						<path d="M146,90h20v10h0.3c2.8-5.4,9.8-11,20.2-11c21.6,0,25.6,14.2,25.6,32.6V159h-21v-33.4c0-8-0.1-18.2-11.1-18.2
							c-11.1,0-12.9,8.7-12.9,17.6v34h-21V90z"/>
						<path d="M339.5,117c0.1-7.1-5.4-13.1-13.1-13.1c-9.4,0-14.5,6.4-15.1,13.1H339.5z M357.7,146.9c-6.8,8.7-18.1,13.7-29.2,13.7
							c-21.3,0-38.4-14.2-38.4-36.3c0-22.1,17.1-36.3,38.4-36.3c19.9,0,32.5,14.2,32.5,36.3v6.7h-49.5c1.7,8.1,7.8,13.4,16.1,13.4
							c7,0,11.7-3.6,15.2-8.4L357.7,146.9z"/>
						<path d="M405.3,107.1c-10.7,0-17.1,7.1-17.1,17.5c0,10.4,6.4,17.5,17.1,17.5c10.7,0,17.1-7.1,17.1-17.5
							C422.4,114.2,416,107.1,405.3,107.1 M442,159h-19v-9h-0.9c-3.3,5-11.5,10.9-21.2,10.9c-20.5,0-34-14.8-34-35.7
							c0-19.2,12-36.9,31.6-36.9c8.8,0,17.1,2.4,21.9,8.7h0.6V58h21V159z"/>
					</g>
					<path class="st0" d="M596.3,37H473.6c-5.9,0-10.6,4.6-10.6,10.4v123.2c0,5.7,4.8,10.4,10.6,10.4h122.7
						c5.9,0,10.7-4.7,10.7-10.4V47.4C607,41.6,602.2,37,596.3,37z"/>
					<path class="st1" d="M485,90h21v69h-21V90z M495.4,56.3c6.8,0,12.4,5.5,12.4,12.4c0,6.8-5.5,12.4-12.4,12.4
						c-6.8,0-12.4-5.5-12.4-12.4C483.1,61.9,488.6,56.3,495.4,56.3"/>
					<path class="st1" d="M520,90h20v10h0.3c2.8-5.4,9.8-11,20.2-11c21.6,0,25.6,14.2,25.6,32.6V159h-21v-33.4
						c0-8-0.1-18.2-11.1-18.2c-11.2,0-12.9,8.7-12.9,17.6v34h-21V90z"/>
				</g>
			</g>
		</g>
		<g>
			<polygon points="611,151 614,151 614,159 615,159 615,151 617,151 617,150 611,150 			"/>
			<polygon points="626,150 623.3,156.8 620.7,150 619,150 619,159 620,159 620,152.3 622.9,159 623.8,159 627,152.3 627,159 
				628,159 628,150 			"/>
		</g>
	</g>
	<g>
		<g>
			<g>
				<g>
					<g>
						<polygon class="st1" points="39,254.5 61,254.5 61,335.5 102,335.5 102,355.5 39,355.5 						"/>
						<g>
							<path class="st1" d="M112,286.5h21v69h-21V286.5z M123,252.8c6.8,0,12.4,5.5,12.4,12.4c0,6.8-5.5,12.4-12.4,12.4
								c-6.8,0-12.4-5.5-12.4-12.4C110.6,258.3,116.1,252.8,123,252.8"/>
						</g>
						<polygon class="st1" points="223,254.5 244,254.5 244,314.6 268.3,286.5 294.5,286.5 266.4,318.4 293.9,355.5 267,355.5 
							244.3,321.5 244,321.5 244,355.5 223,355.5 						"/>
						<path class="st1" d="M146,286.5h20v10h0.3c2.8-5.4,9.8-11,20.2-11c21.6,0,25.6,14.2,25.6,32.6v37.5h-21v-33.4
							c0-8-0.1-18.2-11.1-18.2c-11.1,0-12.9,8.7-12.9,17.6v34h-21V286.5z"/>
						<path class="st1" d="M339.5,313.5c0.1-7.1-5.4-13.1-13.1-13.1c-9.4,0-14.5,6.4-15.1,13.1H339.5z M357.7,343.4
							c-6.8,8.7-18.1,13.7-29.2,13.7c-21.3,0-38.4-14.2-38.4-36.3c0-22.1,17.1-36.3,38.4-36.3c19.9,0,32.5,14.2,32.5,36.3v6.7h-49.5
							c1.7,8.1,7.8,13.4,16.1,13.4c7,0,11.7-3.6,15.2-8.4L357.7,343.4z"/>
						<path class="st1" d="M405.3,303.6c-10.7,0-17.1,7.1-17.1,17.5c0,10.4,6.4,17.5,17.1,17.5c10.7,0,17.1-7.1,17.1-17.5
							C422.4,310.7,416,303.6,405.3,303.6 M442,355.5h-19v-9h-0.9c-3.3,5-11.5,10.9-21.2,10.9c-20.5,0-34-14.8-34-35.7
							c0-19.2,12-36.9,31.6-36.9c8.8,0,17.1,2.4,21.9,8.7h0.6v-39h21V355.5z"/>
					</g>
					<path class="st0" d="M596.3,233.5H473.6c-5.9,0-10.6,4.6-10.6,10.4v123.2c0,5.7,4.8,10.4,10.6,10.4h122.7
						c5.9,0,10.7-4.7,10.7-10.4V243.9C607,238.1,602.2,233.5,596.3,233.5z"/>
					<path class="st1" d="M485,286.5h21v69h-21V286.5z M495.4,252.8c6.8,0,12.4,5.5,12.4,12.4c0,6.8-5.5,12.4-12.4,12.4
						c-6.8,0-12.4-5.5-12.4-12.4C483.1,258.4,488.6,252.8,495.4,252.8"/>
					<path class="st1" d="M520,286.5h20v10h0.3c2.8-5.4,9.8-11,20.2-11c21.6,0,25.6,14.2,25.6,32.6v37.5h-21v-33.4
						c0-8-0.1-18.2-11.1-18.2c-11.2,0-12.9,8.7-12.9,17.6v34h-21V286.5z"/>
				</g>
			</g>
		</g>
		<g>
			<polygon class="st1" points="611,347.5 614,347.5 614,355.5 615,355.5 615,347.5 617,347.5 617,346.5 611,346.5 			"/>
			<polygon class="st1" points="626,346.5 623.3,353.3 620.7,346.5 619,346.5 619,355.5 620,355.5 620,348.8 622.9,355.5 
				623.8,355.5 627,348.8 627,355.5 628,355.5 628,346.5 			"/>
		</g>
	</g>
</g>
</svg>
