<?xml version="1.0" encoding="utf-8"?>
<!-- Generator: Adobe Illustrator 21.0.2, SVG Export Plug-In . SVG Version: 6.00 Build 0)  -->
<svg version="1.1" id="Layer_1" xmlns="http://www.w3.org/2000/svg" xmlns:xlink="http://www.w3.org/1999/xlink" x="0px" y="0px"
	 viewBox="0 0 841.9 1281" style="enable-background:new 0 0 841.9 1281;" xml:space="preserve">
<style type="text/css">
	.st0{fill:#A6A8AA;}
	.st1{fill:#A2C74C;}
	.st2{fill:#5D6774;}
	.st3{fill:#1A3B26;}
	.st4{fill:#64B053;}
	.st5{fill:#DBEACE;}
	.st6{fill:#FFFFFF;}
</style>
<rect x="590" y="864.3" class="st0" width="104.5" height="104.5"/>
<rect x="590" y="1019.4" class="st1" width="104.5" height="104.5"/>
<rect x="590" y="709.2" class="st2" width="104.5" height="104.5"/>
<rect x="590" y="399" class="st3" width="104.5" height="104.5"/>
<g>
	<rect x="-928.5" y="248.3" class="st4" width="500.9" height="121.2"/>
	<rect x="-928.5" y="128.3" class="st3" width="500.9" height="121.2"/>
	<rect x="-928.5" y="368" class="st1" width="500.9" height="121.2"/>
	<rect x="-928.5" y="488.3" class="st5" width="500.9" height="121.2"/>
	<text transform="matrix(1 0 0 1 -874.9597 161.1492)"><tspan x="0" y="0" class="st6" style="font-family:'UniNeueBold'; font-size:18.345px; letter-spacing:3;">100</tspan><tspan x="0" y="22" class="st6" style="font-family:'UniNeueBold'; font-size:18.345px; letter-spacing:3;">60</tspan><tspan x="0" y="44" class="st6" style="font-family:'UniNeueBold'; font-size:18.345px; letter-spacing:3;">100</tspan><tspan x="0" y="66" class="st6" style="font-family:'UniNeueBold'; font-size:18.345px; letter-spacing:3;">50</tspan></text>
	<text transform="matrix(1 0 0 1 -874.9597 281.1208)"><tspan x="0" y="0" class="st6" style="font-family:'UniNeueBold'; font-size:18.345px; letter-spacing:3;">80</tspan><tspan x="0" y="22" class="st6" style="font-family:'UniNeueBold'; font-size:18.345px; letter-spacing:3;">0</tspan><tspan x="0" y="44" class="st6" style="font-family:'UniNeueBold'; font-size:18.345px; letter-spacing:3;">100</tspan><tspan x="0" y="66" class="st6" style="font-family:'UniNeueBold'; font-size:18.345px; letter-spacing:3;">0</tspan></text>
	<text transform="matrix(1 0 0 1 -874.9597 400.8542)"><tspan x="0" y="0" class="st6" style="font-family:'UniNeueBold'; font-size:18.345px; letter-spacing:3;">48</tspan><tspan x="0" y="22" class="st6" style="font-family:'UniNeueBold'; font-size:18.345px; letter-spacing:3;">0</tspan><tspan x="0" y="44" class="st6" style="font-family:'UniNeueBold'; font-size:18.345px; letter-spacing:3;">100</tspan><tspan x="0" y="66" class="st6" style="font-family:'UniNeueBold'; font-size:18.345px; letter-spacing:3;">0</tspan></text>
	<text transform="matrix(1 0 0 1 -874.9597 521.1667)"><tspan x="0" y="0" style="font-family:'UniNeueBold'; font-size:18.345px; letter-spacing:3;">16</tspan><tspan x="0" y="22" style="font-family:'UniNeueBold'; font-size:18.345px; letter-spacing:3;">0</tspan><tspan x="0" y="44" style="font-family:'UniNeueBold'; font-size:18.345px; letter-spacing:3;">23</tspan><tspan x="0" y="66" style="font-family:'UniNeueBold'; font-size:18.345px; letter-spacing:3;">0</tspan></text>
	<rect x="-928.5" y="727.3" class="st2" width="500.9" height="121.2"/>
	<text transform="matrix(1 0 0 1 -874.9597 760.161)"><tspan x="0" y="0" class="st6" style="font-family:'UniNeueBold'; font-size:18.345px; letter-spacing:3;">65</tspan><tspan x="0" y="22" class="st6" style="font-family:'UniNeueBold'; font-size:18.345px; letter-spacing:3;">48</tspan><tspan x="0" y="44" class="st6" style="font-family:'UniNeueBold'; font-size:18.345px; letter-spacing:3;">37</tspan><tspan x="0" y="66" class="st6" style="font-family:'UniNeueBold'; font-size:18.345px; letter-spacing:3;">22</tspan></text>
	<rect x="-928.5" y="606.8" class="st0" width="500.9" height="121.2"/>
	<text transform="matrix(1 0 0 1 -874.9597 639.673)"><tspan x="0" y="0" class="st6" style="font-family:'UniNeueBold'; font-size:18.345px; letter-spacing:3;">0</tspan><tspan x="0" y="22" class="st6" style="font-family:'UniNeueBold'; font-size:18.345px; letter-spacing:3;">0</tspan><tspan x="0" y="44" class="st6" style="font-family:'UniNeueBold'; font-size:18.345px; letter-spacing:3;">0</tspan><tspan x="0" y="66" class="st6" style="font-family:'UniNeueBold'; font-size:18.345px; letter-spacing:3;">40</tspan></text>
</g>
<g>
	<path class="st1" d="M69.7,144c11.5,0,19.4,6.9,19.4,18.6v8.1c0,11.2-7.3,18.1-17.8,18.1c-2.7,0-5.5-0.6-7.5-1.4v14.4
		c0,1-0.5,1.5-1.4,1.5h-9.7c-1,0-1.5-0.5-1.5-1.5v-53.2c0-0.8,0.3-1.3,1.1-1.6C57.3,145.2,64.1,144,69.7,144z M76.4,170.9v-8.6
		c0-5.1-2.5-7.2-7-7.2c-2.1,0-4.1,0.3-5.7,0.9v20.5c1.6,0.9,3.5,1.4,5.7,1.4C74,177.9,76.4,175.7,76.4,170.9z"/>
	<path class="st1" d="M113.6,144c11.3,0,18,5.9,18,18.4v22.5c0,0.8-0.4,1.4-1.2,1.6c-4.8,1.5-11.3,2.4-16.9,2.4
		c-11.8,0-19.3-4.4-19.3-14.1c0-8.5,6.7-12.8,17.9-12.8c2.5,0,4.9,0.2,7,0.5v-0.8c0-4.3-1.6-6.7-6.9-6.7c-3.6,0-7.9,1-10.3,2.3
		c-0.7,0.4-1.6,0.3-2-0.5l-3.4-6.4c-0.4-0.8-0.4-1.4,0.2-1.8C100.6,146,106.5,144,113.6,144z M113.4,178.6c1.9,0,4.1-0.3,5.6-0.7
		v-7.2c-1.6-0.3-3.9-0.5-5.7-0.5c-4.5,0-6.5,1.5-6.5,4.1C106.9,177.3,109.5,178.6,113.4,178.6z"/>
	<path class="st1" d="M157.1,204.3c-6.8,0-11.6-1.4-16.2-4.4c-0.7-0.5-0.8-1.2-0.3-2l4.3-6.6c0.5-0.7,1.1-0.9,1.9-0.4
		c2.6,1.6,6.1,2.7,9.8,2.7c5.2,0,7.8-2,7.7-8c-2.3,0.7-5.2,1.2-7.6,1.2c-10.6,0-17.9-6.4-17.9-17.6v-6.7c0-12.8,8.5-18.5,19.7-18.5
		c6.1,0,12.2,1.4,17.1,3.3c0.7,0.3,1.1,0.9,1.1,1.7v34.7C176.6,197.7,170.8,204.3,157.1,204.3z M158.3,175.9c2.4,0,4.6-0.5,5.7-1.4
		v-18.6c-1.2-0.5-3.5-0.8-5.5-0.8c-4.4,0-7.1,1.8-7.1,7v7.2C151.5,174.1,154.2,175.9,158.3,175.9z"/>
	<path class="st1" d="M202.2,144c11.3,0,18,5.9,18,18.4v22.5c0,0.8-0.4,1.4-1.2,1.6c-4.8,1.5-11.3,2.4-16.9,2.4
		c-11.8,0-19.3-4.4-19.3-14.1c0-8.5,6.7-12.8,17.9-12.8c2.5,0,4.9,0.2,7,0.5v-0.8c0-4.3-1.6-6.7-6.9-6.7c-3.6,0-7.9,1-10.3,2.3
		c-0.7,0.4-1.6,0.3-2-0.5l-3.4-6.4c-0.4-0.8-0.4-1.4,0.2-1.8C189.2,146,195.2,144,202.2,144z M202.1,178.6c1.9,0,4.1-0.3,5.6-0.7
		v-7.2c-1.6-0.3-3.9-0.5-5.7-0.5c-4.5,0-6.5,1.5-6.5,4.1C195.5,177.3,198.1,178.6,202.1,178.6z"/>
	<path class="st1" d="M230.1,187.7c-1,0-1.5-0.5-1.5-1.5V149c0-0.7,0.3-1.3,1.1-1.7c4.5-2.2,9.8-3.4,15.1-3.4c2.5,0,5,0.3,8,0.8
		c0.9,0.2,1.3,0.7,1.3,1.6v7.5c0,1-0.6,1.5-1.6,1.3c-1.6-0.2-3.4-0.3-5.1-0.3c-2.5,0-4.7,0.4-6.2,1.1v30.3c0,1-0.5,1.5-1.4,1.5
		H230.1z"/>
	<path class="st1" d="M314,144c10.8,0,18.3,6.4,18.3,18v24.3c0,1-0.5,1.5-1.4,1.5h-9.5c-1,0-1.5-0.5-1.5-1.5v-24.7
		c0-4-2-6.4-6.3-6.4c-1.8,0-3.6,0.4-5.3,1.3c0.6,1.6,0.8,3.4,0.8,5.3v24.4c0,1-0.5,1.5-1.4,1.5h-9.5c-1,0-1.5-0.5-1.5-1.5v-24.7
		c0-4.3-2-6.5-6-6.5c-1.7,0-3.5,0.3-4.8,0.7v30.4c0,1-0.6,1.5-1.5,1.5h-9.5c-1,0-1.5-0.5-1.5-1.5V149c0-0.8,0.3-1.4,1.1-1.8
		c4.8-2,10.7-3.2,16-3.2c4.3,0,8,1.2,11.2,3.4C306,145.2,309.6,144,314,144z"/>
	<path class="st1" d="M377,169.3c0,0.9-0.5,1.4-1.5,1.4h-23.2v1.3c0,4.2,2.7,6.3,7.1,6.3c4.1,0,7.5-1.2,10.4-3
		c0.7-0.6,1.4-0.4,1.9,0.3l4.3,5.7c0.5,0.7,0.5,1.5-0.2,2.1c-4.2,3.2-9.5,5.4-16.7,5.4c-10.7,0-19.3-5.7-19.3-17.1v-10.3
		c0-12.2,8.6-17.5,19-17.5c10.1,0,18.3,5.1,18.3,17.5V169.3z M358.6,154.4c-3.8,0-6.3,2-6.3,6.5v1.7h12.6v-1.7
		C364.9,156.4,362.3,154.4,358.6,154.4z"/>
	<path class="st1" d="M262.5,187.5l-7.8-5.5c-0.8-0.6-0.8-1.8,0-2.4l7.8-5.5c1-0.7,2.3,0,2.3,1.2v11
		C264.8,187.5,263.5,188.2,262.5,187.5z"/>
	<g>
		<rect x="404.9" y="132.3" class="st1" width="10" height="8.5"/>
		<polygon class="st1" points="399.8,119.2 399.8,119.2 399.8,119.2 		"/>
		<path class="st1" d="M399.3,119.6h-7.1v21.2h10v-11.2h12.7V107h-22.7v10h7.1c0,0,0.1-0.1,0.2-0.1l6.1-4.3c0.5-0.4,1.3-0.4,1.8-0.1
			c0.6,0.3,1,0.9,1,1.6v8.6c0,0.7-0.4,1.3-1,1.6c-0.6,0.3-1.3,0.3-1.9-0.1l-6.1-4.3C399.4,119.7,399.4,119.7,399.3,119.6z"/>
		<rect x="392.3" y="94.3" class="st1" width="10" height="10"/>
		<rect x="379.6" y="119.6" class="st1" width="10" height="10"/>
		<rect x="417.6" y="94.3" class="st1" width="8.5" height="10"/>
		<rect x="379.6" y="107" class="st1" width="10" height="10"/>
		<rect x="379.6" y="132.3" class="st1" width="10" height="8.5"/>
		<rect x="379.6" y="94.3" class="st1" width="10" height="10"/>
		<rect x="417.6" y="132.3" class="st1" width="8.5" height="8.5"/>
		<rect x="417.6" y="107" class="st1" width="8.5" height="10"/>
		<rect x="417.6" y="119.6" class="st1" width="8.5" height="10"/>
		<rect x="404.9" y="94.3" class="st1" width="10" height="10"/>
	</g>
</g>
<g>
	<path class="st6" d="M930.1,144c11.5,0,19.4,6.9,19.4,18.6v8.1c0,11.2-7.3,18.1-17.8,18.1c-2.7,0-5.5-0.6-7.5-1.4v14.4
		c0,1-0.5,1.5-1.4,1.5h-9.7c-1,0-1.5-0.5-1.5-1.5v-53.2c0-0.8,0.3-1.3,1.1-1.6C917.7,145.2,924.5,144,930.1,144z M936.8,170.9v-8.6
		c0-5.1-2.5-7.2-7-7.2c-2.1,0-4.1,0.3-5.7,0.9v20.5c1.6,0.9,3.5,1.4,5.7,1.4C934.3,177.9,936.8,175.7,936.8,170.9z"/>
	<path class="st6" d="M973.9,144c11.3,0,18,5.9,18,18.4v22.5c0,0.8-0.4,1.4-1.2,1.6c-4.8,1.5-11.3,2.4-16.9,2.4
		c-11.8,0-19.3-4.4-19.3-14.1c0-8.5,6.7-12.8,17.9-12.8c2.5,0,4.9,0.2,7,0.5v-0.8c0-4.3-1.6-6.7-6.9-6.7c-3.6,0-7.9,1-10.3,2.3
		c-0.7,0.4-1.6,0.3-2-0.5l-3.4-6.4c-0.4-0.8-0.4-1.4,0.2-1.8C960.9,146,966.9,144,973.9,144z M973.8,178.6c1.9,0,4.1-0.3,5.6-0.7
		v-7.2c-1.6-0.3-3.9-0.5-5.7-0.5c-4.5,0-6.5,1.5-6.5,4.1C967.2,177.3,969.8,178.6,973.8,178.6z"/>
	<path class="st6" d="M1017.4,204.3c-6.8,0-11.6-1.4-16.2-4.4c-0.7-0.5-0.8-1.2-0.3-2l4.3-6.6c0.5-0.7,1.1-0.9,1.9-0.4
		c2.6,1.6,6.1,2.7,9.8,2.7c5.2,0,7.8-2,7.7-8c-2.3,0.7-5.2,1.2-7.6,1.2c-10.6,0-17.9-6.4-17.9-17.6v-6.7c0-12.8,8.5-18.5,19.7-18.5
		c6.1,0,12.2,1.4,17.1,3.3c0.7,0.3,1.1,0.9,1.1,1.7v34.7C1036.9,197.7,1031.2,204.3,1017.4,204.3z M1018.6,175.9
		c2.4,0,4.6-0.5,5.7-1.4v-18.6c-1.2-0.5-3.5-0.8-5.5-0.8c-4.4,0-7.1,1.8-7.1,7v7.2C1011.8,174.1,1014.5,175.9,1018.6,175.9z"/>
	<path class="st6" d="M1062.6,144c11.3,0,18,5.9,18,18.4v22.5c0,0.8-0.4,1.4-1.2,1.6c-4.8,1.5-11.3,2.4-16.9,2.4
		c-11.8,0-19.3-4.4-19.3-14.1c0-8.5,6.7-12.8,17.9-12.8c2.5,0,4.9,0.2,7,0.5v-0.8c0-4.3-1.6-6.7-6.9-6.7c-3.6,0-7.9,1-10.3,2.3
		c-0.7,0.4-1.6,0.3-2-0.5l-3.4-6.4c-0.4-0.8-0.4-1.4,0.2-1.8C1049.5,146,1055.5,144,1062.6,144z M1062.4,178.6
		c1.9,0,4.1-0.3,5.6-0.7v-7.2c-1.6-0.3-3.9-0.5-5.7-0.5c-4.5,0-6.5,1.5-6.5,4.1C1055.9,177.3,1058.5,178.6,1062.4,178.6z"/>
	<path class="st6" d="M1090.5,187.7c-1,0-1.5-0.5-1.5-1.5V149c0-0.7,0.3-1.3,1.1-1.7c4.5-2.2,9.8-3.4,15.1-3.4c2.5,0,5,0.3,8,0.8
		c0.9,0.2,1.3,0.7,1.3,1.6v7.5c0,1-0.6,1.5-1.6,1.3c-1.6-0.2-3.4-0.3-5.1-0.3c-2.5,0-4.7,0.4-6.2,1.1v30.3c0,1-0.5,1.5-1.4,1.5
		H1090.5z"/>
	<path class="st6" d="M1174.3,144c10.8,0,18.3,6.4,18.3,18v24.3c0,1-0.5,1.5-1.4,1.5h-9.5c-1,0-1.5-0.5-1.5-1.5v-24.7
		c0-4-2-6.4-6.3-6.4c-1.8,0-3.6,0.4-5.3,1.3c0.6,1.6,0.8,3.4,0.8,5.3v24.4c0,1-0.5,1.5-1.4,1.5h-9.5c-1,0-1.5-0.5-1.5-1.5v-24.7
		c0-4.3-2-6.5-6-6.5c-1.7,0-3.5,0.3-4.8,0.7v30.4c0,1-0.6,1.5-1.5,1.5h-9.5c-1,0-1.5-0.5-1.5-1.5V149c0-0.8,0.3-1.4,1.1-1.8
		c4.8-2,10.7-3.2,16-3.2c4.3,0,8,1.2,11.2,3.4C1166.4,145.2,1169.9,144,1174.3,144z"/>
	<path class="st6" d="M1237.3,169.3c0,0.9-0.5,1.4-1.5,1.4h-23.2v1.3c0,4.2,2.7,6.3,7.1,6.3c4.1,0,7.5-1.2,10.4-3
		c0.7-0.6,1.4-0.4,1.9,0.3l4.3,5.7c0.5,0.7,0.5,1.5-0.2,2.1c-4.2,3.2-9.5,5.4-16.7,5.4c-10.7,0-19.3-5.7-19.3-17.1v-10.3
		c0-12.2,8.6-17.5,19-17.5c10.1,0,18.3,5.1,18.3,17.5V169.3z M1218.9,154.4c-3.8,0-6.3,2-6.3,6.5v1.7h12.6v-1.7
		C1225.3,156.4,1222.6,154.4,1218.9,154.4z"/>
	<path class="st6" d="M1122.8,187.5l-7.8-5.5c-0.8-0.6-0.8-1.8,0-2.4l7.8-5.5c1-0.7,2.3,0,2.3,1.2v11
		C1125.2,187.5,1123.8,188.2,1122.8,187.5z"/>
	<g>
		<rect x="1265.3" y="132.3" class="st6" width="10" height="8.5"/>
		<polygon class="st6" points="1260.1,119.2 1260.1,119.2 1260.1,119.2 		"/>
		<path class="st6" d="M1259.7,119.6h-7.1v21.2h10v-11.2h12.7V107h-22.7v10h7.1c0,0,0.1-0.1,0.2-0.1l6.1-4.3
			c0.5-0.4,1.3-0.4,1.8-0.1c0.6,0.3,1,0.9,1,1.6v8.6c0,0.7-0.4,1.3-1,1.6c-0.6,0.3-1.3,0.3-1.9-0.1l-6.1-4.3
			C1259.8,119.7,1259.7,119.7,1259.7,119.6z"/>
		<rect x="1252.6" y="94.3" class="st6" width="10" height="10"/>
		<rect x="1240" y="119.6" class="st6" width="10" height="10"/>
		<rect x="1277.9" y="94.3" class="st6" width="8.5" height="10"/>
		<rect x="1240" y="107" class="st6" width="10" height="10"/>
		<rect x="1240" y="132.3" class="st6" width="10" height="8.5"/>
		<rect x="1240" y="94.3" class="st6" width="10" height="10"/>
		<rect x="1277.9" y="132.3" class="st6" width="8.5" height="8.5"/>
		<rect x="1277.9" y="107" class="st6" width="8.5" height="10"/>
		<rect x="1277.9" y="119.6" class="st6" width="8.5" height="10"/>
		<rect x="1265.3" y="94.3" class="st6" width="10" height="10"/>
	</g>
</g>
<path class="st3" d="M69.7,303.5c11.5,0,19.4,6.9,19.4,18.6v8.1c0,11.2-7.3,18.1-17.8,18.1c-2.7,0-5.5-0.6-7.5-1.4v14.4
	c0,1-0.5,1.5-1.4,1.5h-9.7c-1,0-1.5-0.5-1.5-1.5v-53.2c0-0.8,0.3-1.3,1.1-1.6C57.3,304.7,64.1,303.5,69.7,303.5z M76.4,330.5v-8.6
	c0-5.1-2.5-7.2-7-7.2c-2.1,0-4.1,0.3-5.7,0.9v20.5c1.6,0.9,3.5,1.4,5.7,1.4C74,337.5,76.4,335.2,76.4,330.5z"/>
<path class="st3" d="M113.6,303.5c11.3,0,18,5.9,18,18.4v22.5c0,0.8-0.4,1.4-1.2,1.6c-4.8,1.5-11.3,2.4-16.9,2.4
	c-11.8,0-19.3-4.4-19.3-14.1c0-8.5,6.7-12.8,17.9-12.8c2.5,0,4.9,0.2,7,0.5v-0.8c0-4.3-1.6-6.7-6.9-6.7c-3.6,0-7.9,1-10.3,2.3
	c-0.7,0.4-1.6,0.3-2-0.5l-3.4-6.4c-0.4-0.8-0.4-1.4,0.2-1.8C100.6,305.6,106.5,303.5,113.6,303.5z M113.4,338.2
	c1.9,0,4.1-0.3,5.6-0.7v-7.2c-1.6-0.3-3.9-0.5-5.7-0.5c-4.5,0-6.5,1.5-6.5,4.1C106.9,336.8,109.5,338.2,113.4,338.2z"/>
<path class="st3" d="M157.1,363.9c-6.8,0-11.6-1.4-16.2-4.4c-0.7-0.5-0.8-1.2-0.3-2l4.3-6.6c0.5-0.7,1.1-0.9,1.9-0.4
	c2.6,1.6,6.1,2.7,9.8,2.7c5.2,0,7.8-2,7.7-8c-2.3,0.7-5.2,1.2-7.6,1.2c-10.6,0-17.9-6.4-17.9-17.6V322c0-12.8,8.5-18.5,19.7-18.5
	c6.1,0,12.2,1.4,17.1,3.3c0.7,0.3,1.1,0.9,1.1,1.7v34.7C176.6,357.2,170.8,363.9,157.1,363.9z M158.3,335.5c2.4,0,4.6-0.5,5.7-1.4
	v-18.6c-1.2-0.5-3.5-0.8-5.5-0.8c-4.4,0-7.1,1.8-7.1,7v7.2C151.5,333.7,154.2,335.5,158.3,335.5z"/>
<path class="st3" d="M202.2,303.5c11.3,0,18,5.9,18,18.4v22.5c0,0.8-0.4,1.4-1.2,1.6c-4.8,1.5-11.3,2.4-16.9,2.4
	c-11.8,0-19.3-4.4-19.3-14.1c0-8.5,6.7-12.8,17.9-12.8c2.5,0,4.9,0.2,7,0.5v-0.8c0-4.3-1.6-6.7-6.9-6.7c-3.6,0-7.9,1-10.3,2.3
	c-0.7,0.4-1.6,0.3-2-0.5l-3.4-6.4c-0.4-0.8-0.4-1.4,0.2-1.8C189.2,305.6,195.2,303.5,202.2,303.5z M202.1,338.2
	c1.9,0,4.1-0.3,5.6-0.7v-7.2c-1.6-0.3-3.9-0.5-5.7-0.5c-4.5,0-6.5,1.5-6.5,4.1C195.5,336.8,198.1,338.2,202.1,338.2z"/>
<path class="st3" d="M230.1,347.3c-1,0-1.5-0.5-1.5-1.5v-37.2c0-0.7,0.3-1.3,1.1-1.7c4.5-2.2,9.8-3.4,15.1-3.4c2.5,0,5,0.3,8,0.8
	c0.9,0.2,1.3,0.7,1.3,1.6v7.5c0,1-0.6,1.5-1.6,1.3c-1.6-0.2-3.4-0.3-5.1-0.3c-2.5,0-4.7,0.4-6.2,1.1v30.3c0,1-0.5,1.5-1.4,1.5H230.1
	z"/>
<path class="st1" d="M314,303.6c10.8,0,18.3,6.4,18.3,18v24.3c0,1-0.5,1.5-1.4,1.5h-9.5c-1,0-1.5-0.5-1.5-1.5v-24.7
	c0-4-2-6.4-6.3-6.4c-1.8,0-3.6,0.4-5.3,1.3c0.6,1.6,0.8,3.4,0.8,5.3v24.4c0,1-0.5,1.5-1.4,1.5h-9.5c-1,0-1.5-0.5-1.5-1.5v-24.7
	c0-4.3-2-6.5-6-6.5c-1.7,0-3.5,0.3-4.8,0.7v30.4c0,1-0.6,1.5-1.5,1.5h-9.5c-1,0-1.5-0.5-1.5-1.5v-37.2c0-0.8,0.3-1.4,1.1-1.8
	c4.8-2,10.7-3.2,16-3.2c4.3,0,8,1.2,11.2,3.4C306,304.7,309.6,303.6,314,303.6z"/>
<path class="st1" d="M377,328.8c0,0.9-0.5,1.4-1.5,1.4h-23.2v1.3c0,4.2,2.7,6.3,7.1,6.3c4.1,0,7.5-1.2,10.4-3
	c0.7-0.6,1.4-0.4,1.9,0.3l4.3,5.7c0.5,0.7,0.5,1.5-0.2,2.1c-4.2,3.2-9.5,5.4-16.7,5.4c-10.7,0-19.3-5.7-19.3-17.1V321
	c0-12.2,8.6-17.5,19-17.5c10.1,0,18.3,5.1,18.3,17.5V328.8z M358.6,313.9c-3.8,0-6.3,2-6.3,6.5v1.7h12.6v-1.7
	C364.9,316,362.3,313.9,358.6,313.9z"/>
<path class="st1" d="M262.5,347l-7.8-5.5c-0.8-0.6-0.8-1.8,0-2.4l7.8-5.5c1-0.7,2.3,0,2.3,1.2v11C264.8,347,263.5,347.7,262.5,347z"
	/>
<g>
	<rect x="404.9" y="291.8" class="st3" width="10" height="8.5"/>
	<polygon class="st3" points="399.8,278.7 399.8,278.7 399.8,278.7 	"/>
	<path class="st3" d="M399.3,279.2h-7.1v21.2h10v-11.2h12.7v-22.7h-22.7v10h7.1c0,0,0.1-0.1,0.2-0.1l6.1-4.3
		c0.5-0.4,1.3-0.4,1.8-0.1c0.6,0.3,1,0.9,1,1.6v8.6c0,0.7-0.4,1.3-1,1.6c-0.6,0.3-1.3,0.3-1.9-0.1l-6.1-4.3
		C399.4,279.3,399.4,279.2,399.3,279.2z"/>
	<rect x="392.3" y="253.9" class="st3" width="10" height="10"/>
	<rect x="379.6" y="279.2" class="st3" width="10" height="10"/>
	<rect x="417.6" y="253.9" class="st3" width="8.5" height="10"/>
	<rect x="379.6" y="266.5" class="st3" width="10" height="10"/>
	<rect x="379.6" y="291.8" class="st3" width="10" height="8.5"/>
	<rect x="379.6" y="253.9" class="st3" width="10" height="10"/>
	<rect x="417.6" y="291.8" class="st3" width="8.5" height="8.5"/>
	<rect x="417.6" y="266.5" class="st3" width="8.5" height="10"/>
	<rect x="417.6" y="279.2" class="st3" width="8.5" height="10"/>
	<rect x="404.9" y="253.9" class="st3" width="10" height="10"/>
</g>
<path class="st3" d="M69.7,463c11.5,0,19.4,6.9,19.4,18.6v8.1c0,11.2-7.3,18.1-17.8,18.1c-2.7,0-5.5-0.6-7.5-1.4v14.4
	c0,1-0.5,1.5-1.4,1.5h-9.7c-1,0-1.5-0.5-1.5-1.5v-53.2c0-0.8,0.3-1.3,1.1-1.6C57.3,464.3,64.1,463,69.7,463z M76.4,490v-8.6
	c0-5.1-2.5-7.2-7-7.2c-2.1,0-4.1,0.3-5.7,0.9v20.5c1.6,0.9,3.5,1.4,5.7,1.4C74,497,76.4,494.8,76.4,490z"/>
<path class="st3" d="M113.6,463c11.3,0,18,5.9,18,18.4v22.5c0,0.8-0.4,1.4-1.2,1.6c-4.8,1.5-11.3,2.4-16.9,2.4
	c-11.8,0-19.3-4.4-19.3-14.1c0-8.5,6.7-12.8,17.9-12.8c2.5,0,4.9,0.2,7,0.5v-0.8c0-4.3-1.6-6.7-6.9-6.7c-3.6,0-7.9,1-10.3,2.3
	c-0.7,0.4-1.6,0.3-2-0.5l-3.4-6.4c-0.4-0.8-0.4-1.4,0.2-1.8C100.6,465.1,106.5,463,113.6,463z M113.4,497.7c1.9,0,4.1-0.3,5.6-0.7
	v-7.2c-1.6-0.3-3.9-0.5-5.7-0.5c-4.5,0-6.5,1.5-6.5,4.1C106.9,496.3,109.5,497.7,113.4,497.7z"/>
<path class="st3" d="M157.1,523.4c-6.8,0-11.6-1.4-16.2-4.4c-0.7-0.5-0.8-1.2-0.3-2l4.3-6.6c0.5-0.7,1.1-0.9,1.9-0.4
	c2.6,1.6,6.1,2.7,9.8,2.7c5.2,0,7.8-2,7.7-8c-2.3,0.7-5.2,1.2-7.6,1.2c-10.6,0-17.9-6.4-17.9-17.6v-6.7c0-12.8,8.5-18.5,19.7-18.5
	c6.1,0,12.2,1.4,17.1,3.3c0.7,0.3,1.1,0.9,1.1,1.7v34.7C176.6,516.8,170.8,523.4,157.1,523.4z M158.3,495c2.4,0,4.6-0.5,5.7-1.4V475
	c-1.2-0.5-3.5-0.8-5.5-0.8c-4.4,0-7.1,1.8-7.1,7v7.2C151.5,493.2,154.2,495,158.3,495z"/>
<path class="st3" d="M202.2,463c11.3,0,18,5.9,18,18.4v22.5c0,0.8-0.4,1.4-1.2,1.6c-4.8,1.5-11.3,2.4-16.9,2.4
	c-11.8,0-19.3-4.4-19.3-14.1c0-8.5,6.7-12.8,17.9-12.8c2.5,0,4.9,0.2,7,0.5v-0.8c0-4.3-1.6-6.7-6.9-6.7c-3.6,0-7.9,1-10.3,2.3
	c-0.7,0.4-1.6,0.3-2-0.5l-3.4-6.4c-0.4-0.8-0.4-1.4,0.2-1.8C189.2,465.1,195.2,463,202.2,463z M202.1,497.7c1.9,0,4.1-0.3,5.6-0.7
	v-7.2c-1.6-0.3-3.9-0.5-5.7-0.5c-4.5,0-6.5,1.5-6.5,4.1C195.5,496.3,198.1,497.7,202.1,497.7z"/>
<path class="st3" d="M230.1,506.8c-1,0-1.5-0.5-1.5-1.5v-37.2c0-0.7,0.3-1.3,1.1-1.7c4.5-2.2,9.8-3.4,15.1-3.4c2.5,0,5,0.3,8,0.8
	c0.9,0.2,1.3,0.7,1.3,1.6v7.5c0,1-0.6,1.5-1.6,1.3c-1.6-0.2-3.4-0.3-5.1-0.3c-2.5,0-4.7,0.4-6.2,1.1v30.3c0,1-0.5,1.5-1.4,1.5H230.1
	z"/>
<path class="st3" d="M314,463.1c10.8,0,18.3,6.4,18.3,18v24.3c0,1-0.5,1.5-1.4,1.5h-9.5c-1,0-1.5-0.5-1.5-1.5v-24.7
	c0-4-2-6.4-6.3-6.4c-1.8,0-3.6,0.4-5.3,1.3c0.6,1.6,0.8,3.4,0.8,5.3v24.4c0,1-0.5,1.5-1.4,1.5h-9.5c-1,0-1.5-0.5-1.5-1.5v-24.7
	c0-4.3-2-6.5-6-6.5c-1.7,0-3.5,0.3-4.8,0.7v30.4c0,1-0.6,1.5-1.5,1.5h-9.5c-1,0-1.5-0.5-1.5-1.5v-37.2c0-0.8,0.3-1.4,1.1-1.8
	c4.8-2,10.7-3.2,16-3.2c4.3,0,8,1.2,11.2,3.4C306,464.3,309.6,463.1,314,463.1z"/>
<path class="st3" d="M377,488.4c0,0.9-0.5,1.4-1.5,1.4h-23.2v1.3c0,4.2,2.7,6.3,7.1,6.3c4.1,0,7.5-1.2,10.4-3
	c0.7-0.6,1.4-0.4,1.9,0.3l4.3,5.7c0.5,0.7,0.5,1.5-0.2,2.1c-4.2,3.2-9.5,5.4-16.7,5.4c-10.7,0-19.3-5.7-19.3-17.1v-10.3
	c0-12.2,8.6-17.5,19-17.5c10.1,0,18.3,5.1,18.3,17.5V488.4z M358.6,473.5c-3.8,0-6.3,2-6.3,6.5v1.7h12.6v-1.7
	C364.9,475.5,362.3,473.5,358.6,473.5z"/>
<path class="st1" d="M262.5,506.6l-7.8-5.5c-0.8-0.6-0.8-1.8,0-2.4l7.8-5.5c1-0.7,2.3,0,2.3,1.2v11
	C264.8,506.6,263.5,507.3,262.5,506.6z"/>
<g>
	<rect x="404.9" y="451.4" class="st1" width="10" height="8.5"/>
	<polygon class="st1" points="399.8,438.3 399.8,438.2 399.8,438.2 	"/>
	<path class="st1" d="M399.3,438.7h-7.1v21.2h10v-11.2h12.7V426h-22.7v10h7.1c0,0,0.1-0.1,0.2-0.1l6.1-4.3c0.5-0.4,1.3-0.4,1.8-0.1
		c0.6,0.3,1,0.9,1,1.6v8.6c0,0.7-0.4,1.3-1,1.6c-0.6,0.3-1.3,0.3-1.9-0.1l-6.1-4.3C399.4,438.8,399.4,438.8,399.3,438.7z"/>
	<rect x="392.3" y="413.4" class="st1" width="10" height="10"/>
	<rect x="379.6" y="438.7" class="st1" width="10" height="10"/>
	<rect x="417.6" y="413.4" class="st1" width="8.5" height="10"/>
	<rect x="379.6" y="426" class="st1" width="10" height="10"/>
	<rect x="379.6" y="451.4" class="st1" width="10" height="8.5"/>
	<rect x="379.6" y="413.4" class="st1" width="10" height="10"/>
	<rect x="417.6" y="451.4" class="st1" width="8.5" height="8.5"/>
	<rect x="417.6" y="426" class="st1" width="8.5" height="10"/>
	<rect x="417.6" y="438.7" class="st1" width="8.5" height="10"/>
	<rect x="404.9" y="413.4" class="st1" width="10" height="10"/>
</g>
<g>
	<rect x="646.9" y="174.1" class="st1" width="22.5" height="19.2"/>
	<polygon class="st1" points="635.3,144.6 635.3,144.6 635.3,144.5 	"/>
	<path class="st1" d="M634.3,145.6h-15.9v47.6h22.5v-25.1h28.5v-51h-51v22.5h15.9c0.1-0.1,0.2-0.2,0.3-0.3l13.8-9.7
		c1.2-0.9,2.8-1,4.2-0.3c1.3,0.7,2.2,2.1,2.2,3.6v19.4c0,1.5-0.8,2.9-2.2,3.6c-1.3,0.7-2.9,0.6-4.2-0.3l-13.8-9.7
		C634.5,145.8,634.4,145.7,634.3,145.6z"/>
	<rect x="618.4" y="88.7" class="st1" width="22.5" height="22.4"/>
	<rect x="590" y="145.6" class="st1" width="22.4" height="22.5"/>
	<rect x="675.4" y="88.7" class="st1" width="19.2" height="22.4"/>
	<rect x="590" y="117.1" class="st1" width="22.4" height="22.5"/>
	<rect x="590" y="174.1" class="st1" width="22.4" height="19.2"/>
	<rect x="590" y="88.7" class="st1" width="22.4" height="22.4"/>
	<rect x="675.4" y="174.1" class="st1" width="19.2" height="19.2"/>
	<rect x="675.4" y="117.1" class="st1" width="19.2" height="22.5"/>
	<rect x="675.4" y="145.6" class="st1" width="19.2" height="22.5"/>
	<rect x="646.9" y="88.7" class="st1" width="22.5" height="22.4"/>
</g>
<g>
	<rect x="646.9" y="329.2" class="st3" width="22.5" height="19.2"/>
	<polygon class="st3" points="635.3,299.7 635.3,299.7 635.3,299.7 	"/>
	<path class="st3" d="M634.3,300.7h-15.9v47.6h22.5v-25.1h28.5v-51h-51v22.5h15.9c0.1-0.1,0.2-0.2,0.3-0.3l13.8-9.7
		c1.2-0.9,2.8-1,4.2-0.3c1.3,0.7,2.2,2.1,2.2,3.6v19.4c0,1.5-0.8,2.9-2.2,3.6c-1.3,0.7-2.9,0.6-4.2-0.3l-13.8-9.7
		C634.5,300.9,634.4,300.8,634.3,300.7z"/>
	<rect x="618.4" y="243.8" class="st3" width="22.5" height="22.4"/>
	<rect x="590" y="300.7" class="st3" width="22.4" height="22.5"/>
	<rect x="675.4" y="243.8" class="st3" width="19.2" height="22.4"/>
	<rect x="590" y="272.2" class="st3" width="22.4" height="22.5"/>
	<rect x="590" y="329.2" class="st3" width="22.4" height="19.2"/>
	<rect x="590" y="243.8" class="st3" width="22.4" height="22.4"/>
	<rect x="675.4" y="329.2" class="st3" width="19.2" height="19.2"/>
	<rect x="675.4" y="272.2" class="st3" width="19.2" height="22.5"/>
	<rect x="675.4" y="300.7" class="st3" width="19.2" height="22.5"/>
	<rect x="646.9" y="243.8" class="st3" width="22.5" height="22.4"/>
</g>
<g>
	<rect x="646.9" y="484.3" class="st1" width="22.5" height="19.2"/>
	<polygon class="st1" points="635.3,454.8 635.3,454.8 635.3,454.8 	"/>
	<path class="st1" d="M634.3,455.8h-15.9v47.6h22.5v-25.1h28.5v-51h-51v22.5h15.9c0.1-0.1,0.2-0.2,0.3-0.3l13.8-9.7
		c1.2-0.9,2.8-1,4.2-0.3c1.3,0.7,2.2,2.1,2.2,3.6v19.4c0,1.5-0.8,2.9-2.2,3.6c-1.3,0.7-2.9,0.6-4.2-0.3l-13.8-9.7
		C634.5,456,634.4,455.9,634.3,455.8z"/>
	<rect x="618.4" y="399" class="st1" width="22.5" height="22.4"/>
	<rect x="590" y="455.8" class="st1" width="22.4" height="22.5"/>
	<rect x="675.4" y="399" class="st1" width="19.2" height="22.4"/>
	<rect x="590" y="427.3" class="st1" width="22.4" height="22.5"/>
	<rect x="590" y="484.3" class="st1" width="22.4" height="19.2"/>
	<rect x="590" y="399" class="st1" width="22.4" height="22.4"/>
	<rect x="675.4" y="484.3" class="st1" width="19.2" height="19.2"/>
	<rect x="675.4" y="427.3" class="st1" width="19.2" height="22.5"/>
	<rect x="675.4" y="455.8" class="st1" width="19.2" height="22.5"/>
	<rect x="646.9" y="399" class="st1" width="22.5" height="22.4"/>
</g>
<g>
	<rect x="646.9" y="639.4" class="st2" width="22.5" height="19.2"/>
	<polygon class="st2" points="635.3,609.9 635.3,609.9 635.3,609.9 	"/>
	<path class="st2" d="M634.3,610.9h-15.9v47.6h22.5v-25.1h28.5v-51h-51V605h15.9c0.1-0.1,0.2-0.2,0.3-0.3l13.8-9.7
		c1.2-0.9,2.8-1,4.2-0.3c1.3,0.7,2.2,2.1,2.2,3.6v19.4c0,1.5-0.8,2.9-2.2,3.6c-1.3,0.7-2.9,0.6-4.2-0.3l-13.8-9.7
		C634.5,611.1,634.4,611,634.3,610.9z"/>
	<rect x="618.4" y="554.1" class="st2" width="22.5" height="22.4"/>
	<rect x="590" y="610.9" class="st2" width="22.4" height="22.5"/>
	<rect x="675.4" y="554.1" class="st2" width="19.2" height="22.4"/>
	<rect x="590" y="582.5" class="st2" width="22.4" height="22.5"/>
	<rect x="590" y="639.4" class="st2" width="22.4" height="19.2"/>
	<rect x="590" y="554.1" class="st2" width="22.4" height="22.4"/>
	<rect x="675.4" y="639.4" class="st2" width="19.2" height="19.2"/>
	<rect x="675.4" y="582.5" class="st2" width="19.2" height="22.5"/>
	<rect x="675.4" y="610.9" class="st2" width="19.2" height="22.5"/>
	<rect x="646.9" y="554.1" class="st2" width="22.5" height="22.4"/>
</g>
<g>
	<rect x="646.9" y="794.6" class="st1" width="22.5" height="19.2"/>
	<polygon class="st1" points="635.3,765 635.3,765 635.3,765 	"/>
	<path class="st1" d="M634.3,766.1h-15.9v47.6h22.5v-25.1h28.5v-51h-51v22.5h15.9c0.1-0.1,0.2-0.2,0.3-0.3l13.8-9.7
		c1.2-0.9,2.8-1,4.2-0.3c1.3,0.7,2.2,2.1,2.2,3.6v19.4c0,1.5-0.8,2.9-2.2,3.6c-1.3,0.7-2.9,0.6-4.2-0.3l-13.8-9.7
		C634.5,766.3,634.4,766.2,634.3,766.1z"/>
	<rect x="618.4" y="709.2" class="st1" width="22.5" height="22.4"/>
	<rect x="590" y="766.1" class="st1" width="22.4" height="22.5"/>
	<rect x="675.4" y="709.2" class="st1" width="19.2" height="22.4"/>
	<rect x="590" y="737.6" class="st1" width="22.4" height="22.5"/>
	<rect x="590" y="794.6" class="st1" width="22.4" height="19.2"/>
	<rect x="590" y="709.2" class="st1" width="22.4" height="22.4"/>
	<rect x="675.4" y="794.6" class="st1" width="19.2" height="19.2"/>
	<rect x="675.4" y="737.6" class="st1" width="19.2" height="22.5"/>
	<rect x="675.4" y="766.1" class="st1" width="19.2" height="22.5"/>
	<rect x="646.9" y="709.2" class="st1" width="22.5" height="22.4"/>
</g>
<g>
	<rect x="646.9" y="1104.8" class="st3" width="22.5" height="19.2"/>
	<polygon class="st3" points="635.3,1075.3 635.3,1075.3 635.3,1075.3 	"/>
	<path class="st3" d="M634.3,1076.3h-15.9v47.6h22.5v-25.1h28.5v-51h-51v22.5h15.9c0.1-0.1,0.2-0.2,0.3-0.3l13.8-9.7
		c1.2-0.9,2.8-1,4.2-0.3c1.3,0.7,2.2,2.1,2.2,3.6v19.4c0,1.5-0.8,2.9-2.2,3.6c-1.3,0.7-2.9,0.6-4.2-0.3l-13.8-9.7
		C634.5,1076.5,634.4,1076.4,634.3,1076.3z"/>
	<rect x="618.4" y="1019.4" class="st3" width="22.5" height="22.4"/>
	<rect x="590" y="1076.3" class="st3" width="22.4" height="22.5"/>
	<rect x="675.4" y="1019.4" class="st3" width="19.2" height="22.4"/>
	<rect x="590" y="1047.8" class="st3" width="22.4" height="22.5"/>
	<rect x="590" y="1104.8" class="st3" width="22.4" height="19.2"/>
	<rect x="590" y="1019.4" class="st3" width="22.4" height="22.4"/>
	<rect x="675.4" y="1104.8" class="st3" width="19.2" height="19.2"/>
	<rect x="675.4" y="1047.8" class="st3" width="19.2" height="22.5"/>
	<rect x="675.4" y="1076.3" class="st3" width="19.2" height="22.5"/>
	<rect x="646.9" y="1019.4" class="st3" width="22.5" height="22.4"/>
</g>
<path class="st2" d="M69.7,622.6c11.5,0,19.4,6.9,19.4,18.6v8.1c0,11.2-7.3,18.1-17.8,18.1c-2.7,0-5.5-0.6-7.5-1.4v14.4
	c0,1-0.5,1.5-1.4,1.5h-9.7c-1,0-1.5-0.5-1.5-1.5v-53.2c0-0.8,0.3-1.3,1.1-1.6C57.3,623.8,64.1,622.6,69.7,622.6z M76.4,649.6V641
	c0-5.1-2.5-7.2-7-7.2c-2.1,0-4.1,0.3-5.7,0.9v20.5c1.6,0.9,3.5,1.4,5.7,1.4C74,656.5,76.4,654.3,76.4,649.6z"/>
<path class="st2" d="M113.6,622.6c11.3,0,18,5.9,18,18.4v22.5c0,0.8-0.4,1.4-1.2,1.6c-4.8,1.5-11.3,2.4-16.9,2.4
	c-11.8,0-19.3-4.4-19.3-14.1c0-8.5,6.7-12.8,17.9-12.8c2.5,0,4.9,0.2,7,0.5v-0.8c0-4.3-1.6-6.7-6.9-6.7c-3.6,0-7.9,1-10.3,2.3
	c-0.7,0.4-1.6,0.3-2-0.5l-3.4-6.4c-0.4-0.8-0.4-1.4,0.2-1.8C100.6,624.6,106.5,622.6,113.6,622.6z M113.4,657.3
	c1.9,0,4.1-0.3,5.6-0.7v-7.2c-1.6-0.3-3.9-0.5-5.7-0.5c-4.5,0-6.5,1.5-6.5,4.1C106.9,655.9,109.5,657.3,113.4,657.3z"/>
<path class="st2" d="M157.1,683c-6.8,0-11.6-1.4-16.2-4.4c-0.7-0.5-0.8-1.2-0.3-2l4.3-6.6c0.5-0.7,1.1-0.9,1.9-0.4
	c2.6,1.6,6.1,2.7,9.8,2.7c5.2,0,7.8-2,7.7-8c-2.3,0.7-5.2,1.2-7.6,1.2c-10.6,0-17.9-6.4-17.9-17.6V641c0-12.8,8.5-18.5,19.7-18.5
	c6.1,0,12.2,1.4,17.1,3.3c0.7,0.3,1.1,0.9,1.1,1.7v34.7C176.6,676.3,170.8,683,157.1,683z M158.3,654.6c2.4,0,4.6-0.5,5.7-1.4v-18.6
	c-1.2-0.5-3.5-0.8-5.5-0.8c-4.4,0-7.1,1.8-7.1,7v7.2C151.5,652.8,154.2,654.6,158.3,654.6z"/>
<path class="st2" d="M202.2,622.6c11.3,0,18,5.9,18,18.4v22.5c0,0.8-0.4,1.4-1.2,1.6c-4.8,1.5-11.3,2.4-16.9,2.4
	c-11.8,0-19.3-4.4-19.3-14.1c0-8.5,6.7-12.8,17.9-12.8c2.5,0,4.9,0.2,7,0.5v-0.8c0-4.3-1.6-6.7-6.9-6.7c-3.6,0-7.9,1-10.3,2.3
	c-0.7,0.4-1.6,0.3-2-0.5l-3.4-6.4c-0.4-0.8-0.4-1.4,0.2-1.8C189.2,624.6,195.2,622.6,202.2,622.6z M202.1,657.3
	c1.9,0,4.1-0.3,5.6-0.7v-7.2c-1.6-0.3-3.9-0.5-5.7-0.5c-4.5,0-6.5,1.5-6.5,4.1C195.5,655.9,198.1,657.3,202.1,657.3z"/>
<path class="st2" d="M230.1,666.4c-1,0-1.5-0.5-1.5-1.5v-37.2c0-0.7,0.3-1.3,1.1-1.7c4.5-2.2,9.8-3.4,15.1-3.4c2.5,0,5,0.3,8,0.8
	c0.9,0.2,1.3,0.7,1.3,1.6v7.5c0,1-0.6,1.5-1.6,1.3c-1.6-0.2-3.4-0.3-5.1-0.3c-2.5,0-4.7,0.4-6.2,1.1v30.3c0,1-0.5,1.5-1.4,1.5H230.1
	z"/>
<path class="st2" d="M314,622.7c10.8,0,18.3,6.4,18.3,18v24.3c0,1-0.5,1.5-1.4,1.5h-9.5c-1,0-1.5-0.5-1.5-1.5v-24.7
	c0-4-2-6.4-6.3-6.4c-1.8,0-3.6,0.4-5.3,1.3c0.6,1.6,0.8,3.4,0.8,5.3v24.4c0,1-0.5,1.5-1.4,1.5h-9.5c-1,0-1.5-0.5-1.5-1.5v-24.7
	c0-4.3-2-6.5-6-6.5c-1.7,0-3.5,0.3-4.8,0.7v30.4c0,1-0.6,1.5-1.5,1.5h-9.5c-1,0-1.5-0.5-1.5-1.5v-37.2c0-0.8,0.3-1.4,1.1-1.8
	c4.8-2,10.7-3.2,16-3.2c4.3,0,8,1.2,11.2,3.4C306,623.8,309.6,622.7,314,622.7z"/>
<path class="st2" d="M377,647.9c0,0.9-0.5,1.4-1.5,1.4h-23.2v1.3c0,4.2,2.7,6.3,7.1,6.3c4.1,0,7.5-1.2,10.4-3
	c0.7-0.6,1.4-0.4,1.9,0.3l4.3,5.7c0.5,0.7,0.5,1.5-0.2,2.1c-4.2,3.2-9.5,5.4-16.7,5.4c-10.7,0-19.3-5.7-19.3-17.1v-10.3
	c0-12.2,8.6-17.5,19-17.5c10.1,0,18.3,5.1,18.3,17.5V647.9z M358.6,633c-3.8,0-6.3,2-6.3,6.5v1.7h12.6v-1.7
	C364.9,635.1,362.3,633,358.6,633z"/>
<path class="st1" d="M262.5,666.1l-7.8-5.5c-0.8-0.6-0.8-1.8,0-2.4l7.8-5.5c1-0.7,2.3,0,2.3,1.2v11
	C264.8,666.1,263.5,666.8,262.5,666.1z"/>
<g>
	<rect x="404.9" y="610.9" class="st1" width="10" height="8.5"/>
	<polygon class="st1" points="399.8,597.8 399.8,597.8 399.8,597.8 	"/>
	<path class="st1" d="M399.3,598.3h-7.1v21.2h10v-11.2h12.7v-22.7h-22.7v10h7.1c0,0,0.1-0.1,0.2-0.1l6.1-4.3
		c0.5-0.4,1.3-0.4,1.8-0.1c0.6,0.3,1,0.9,1,1.6v8.6c0,0.7-0.4,1.3-1,1.6c-0.6,0.3-1.3,0.3-1.9-0.1l-6.1-4.3
		C399.4,598.3,399.4,598.3,399.3,598.3z"/>
	<rect x="392.3" y="573" class="st1" width="10" height="10"/>
	<rect x="379.6" y="598.3" class="st1" width="10" height="10"/>
	<rect x="417.6" y="573" class="st1" width="8.5" height="10"/>
	<rect x="379.6" y="585.6" class="st1" width="10" height="10"/>
	<rect x="379.6" y="610.9" class="st1" width="10" height="8.5"/>
	<rect x="379.6" y="573" class="st1" width="10" height="10"/>
	<rect x="417.6" y="610.9" class="st1" width="8.5" height="8.5"/>
	<rect x="417.6" y="585.6" class="st1" width="8.5" height="10"/>
	<rect x="417.6" y="598.3" class="st1" width="8.5" height="10"/>
	<rect x="404.9" y="573" class="st1" width="10" height="10"/>
</g>
<path class="st3" d="M69.7,782.1c11.5,0,19.4,6.9,19.4,18.6v8.1c0,11.2-7.3,18.1-17.8,18.1c-2.7,0-5.5-0.6-7.5-1.4V840
	c0,1-0.5,1.5-1.4,1.5h-9.7c-1,0-1.5-0.5-1.5-1.5v-53.2c0-0.8,0.3-1.3,1.1-1.6C57.3,783.4,64.1,782.1,69.7,782.1z M76.4,809.1v-8.6
	c0-5.1-2.5-7.2-7-7.2c-2.1,0-4.1,0.3-5.7,0.9v20.5c1.6,0.9,3.5,1.4,5.7,1.4C74,816.1,76.4,813.9,76.4,809.1z"/>
<path class="st3" d="M113.6,782.1c11.3,0,18,5.9,18,18.4V823c0,0.8-0.4,1.4-1.2,1.6c-4.8,1.5-11.3,2.4-16.9,2.4
	c-11.8,0-19.3-4.4-19.3-14.1c0-8.5,6.7-12.8,17.9-12.8c2.5,0,4.9,0.2,7,0.5v-0.8c0-4.3-1.6-6.7-6.9-6.7c-3.6,0-7.9,1-10.3,2.3
	c-0.7,0.4-1.6,0.3-2-0.5l-3.4-6.4c-0.4-0.8-0.4-1.4,0.2-1.8C100.6,784.2,106.5,782.1,113.6,782.1z M113.4,816.8
	c1.9,0,4.1-0.3,5.6-0.7V809c-1.6-0.3-3.9-0.5-5.7-0.5c-4.5,0-6.5,1.5-6.5,4.1C106.9,815.4,109.5,816.8,113.4,816.8z"/>
<path class="st3" d="M157.1,842.5c-6.8,0-11.6-1.4-16.2-4.4c-0.7-0.5-0.8-1.2-0.3-2l4.3-6.6c0.5-0.7,1.1-0.9,1.9-0.4
	c2.6,1.6,6.1,2.7,9.8,2.7c5.2,0,7.8-2,7.7-8c-2.3,0.7-5.2,1.2-7.6,1.2c-10.6,0-17.9-6.4-17.9-17.6v-6.7c0-12.8,8.5-18.5,19.7-18.5
	c6.1,0,12.2,1.4,17.1,3.3c0.7,0.3,1.1,0.9,1.1,1.7v34.7C176.6,835.9,170.8,842.5,157.1,842.5z M158.3,814.1c2.4,0,4.6-0.5,5.7-1.4
	v-18.6c-1.2-0.5-3.5-0.8-5.5-0.8c-4.4,0-7.1,1.8-7.1,7v7.2C151.5,812.3,154.2,814.1,158.3,814.1z"/>
<path class="st3" d="M202.2,782.1c11.3,0,18,5.9,18,18.4V823c0,0.8-0.4,1.4-1.2,1.6c-4.8,1.5-11.3,2.4-16.9,2.4
	c-11.8,0-19.3-4.4-19.3-14.1c0-8.5,6.7-12.8,17.9-12.8c2.5,0,4.9,0.2,7,0.5v-0.8c0-4.3-1.6-6.7-6.9-6.7c-3.6,0-7.9,1-10.3,2.3
	c-0.7,0.4-1.6,0.3-2-0.5l-3.4-6.4c-0.4-0.8-0.4-1.4,0.2-1.8C189.2,784.2,195.2,782.1,202.2,782.1z M202.1,816.8
	c1.9,0,4.1-0.3,5.6-0.7V809c-1.6-0.3-3.9-0.5-5.7-0.5c-4.5,0-6.5,1.5-6.5,4.1C195.5,815.4,198.1,816.8,202.1,816.8z"/>
<path class="st3" d="M230.1,825.9c-1,0-1.5-0.5-1.5-1.5v-37.2c0-0.7,0.3-1.3,1.1-1.7c4.5-2.2,9.8-3.4,15.1-3.4c2.5,0,5,0.3,8,0.8
	c0.9,0.2,1.3,0.7,1.3,1.6v7.5c0,1-0.6,1.5-1.6,1.3c-1.6-0.2-3.4-0.3-5.1-0.3c-2.5,0-4.7,0.4-6.2,1.1v30.3c0,1-0.5,1.5-1.4,1.5H230.1
	z"/>
<path class="st3" d="M314,782.2c10.8,0,18.3,6.4,18.3,18v24.3c0,1-0.5,1.5-1.4,1.5h-9.5c-1,0-1.5-0.5-1.5-1.5v-24.7
	c0-4-2-6.4-6.3-6.4c-1.8,0-3.6,0.4-5.3,1.3c0.6,1.6,0.8,3.4,0.8,5.3v24.4c0,1-0.5,1.5-1.4,1.5h-9.5c-1,0-1.5-0.5-1.5-1.5v-24.7
	c0-4.3-2-6.5-6-6.5c-1.7,0-3.5,0.3-4.8,0.7v30.4c0,1-0.6,1.5-1.5,1.5h-9.5c-1,0-1.5-0.5-1.5-1.5v-37.2c0-0.8,0.3-1.4,1.1-1.8
	c4.8-2,10.7-3.2,16-3.2c4.3,0,8,1.2,11.2,3.4C306,783.4,309.6,782.2,314,782.2z"/>
<path class="st3" d="M377,807.5c0,0.9-0.5,1.4-1.5,1.4h-23.2v1.3c0,4.2,2.7,6.3,7.1,6.3c4.1,0,7.5-1.2,10.4-3
	c0.7-0.6,1.4-0.4,1.9,0.3l4.3,5.7c0.5,0.7,0.5,1.5-0.2,2.1c-4.2,3.2-9.5,5.4-16.7,5.4c-10.7,0-19.3-5.7-19.3-17.1v-10.3
	c0-12.2,8.6-17.5,19-17.5c10.1,0,18.3,5.1,18.3,17.5V807.5z M358.6,792.6c-3.8,0-6.3,2-6.3,6.5v1.7h12.6V799
	C364.9,794.6,362.3,792.6,358.6,792.6z"/>
<path class="st3" d="M262.5,825.7l-7.8-5.5c-0.8-0.6-0.8-1.8,0-2.4l7.8-5.5c1-0.7,2.3,0,2.3,1.2v11
	C264.8,825.6,263.5,826.3,262.5,825.7z"/>
<g>
	<rect x="404.9" y="770.5" class="st1" width="10" height="8.5"/>
	<polygon class="st1" points="399.8,757.3 399.8,757.3 399.8,757.3 	"/>
	<path class="st1" d="M399.3,757.8h-7.1V779h10v-11.2h12.7v-22.7h-22.7v10h7.1c0,0,0.1-0.1,0.2-0.1l6.1-4.3c0.5-0.4,1.3-0.4,1.8-0.1
		c0.6,0.3,1,0.9,1,1.6v8.6c0,0.7-0.4,1.3-1,1.6c-0.6,0.3-1.3,0.3-1.9-0.1l-6.1-4.3C399.4,757.9,399.4,757.8,399.3,757.8z"/>
	<rect x="392.3" y="732.5" class="st1" width="10" height="10"/>
	<rect x="379.6" y="757.8" class="st1" width="10" height="10"/>
	<rect x="417.6" y="732.5" class="st1" width="8.5" height="10"/>
	<rect x="379.6" y="745.1" class="st1" width="10" height="10"/>
	<rect x="379.6" y="770.5" class="st1" width="10" height="8.5"/>
	<rect x="379.6" y="732.5" class="st1" width="10" height="10"/>
	<rect x="417.6" y="770.5" class="st1" width="8.5" height="8.5"/>
	<rect x="417.6" y="745.1" class="st1" width="8.5" height="10"/>
	<rect x="417.6" y="757.8" class="st1" width="8.5" height="10"/>
	<rect x="404.9" y="732.5" class="st1" width="10" height="10"/>
</g>
<g>
	<path class="st1" d="M69.7,941.7c11.5,0,19.4,6.9,19.4,18.6v8.1c0,11.2-7.3,18.1-17.8,18.1c-2.7,0-5.5-0.6-7.5-1.4v14.4
		c0,1-0.5,1.5-1.4,1.5h-9.7c-1,0-1.5-0.5-1.5-1.5v-53.2c0-0.8,0.3-1.3,1.1-1.6C57.3,942.9,64.1,941.7,69.7,941.7z M76.4,968.7v-8.6
		c0-5.1-2.5-7.2-7-7.2c-2.1,0-4.1,0.3-5.7,0.9v20.5c1.6,0.9,3.5,1.4,5.7,1.4C74,975.6,76.4,973.4,76.4,968.7z"/>
	<path class="st1" d="M113.6,941.7c11.3,0,18,5.9,18,18.4v22.5c0,0.8-0.4,1.4-1.2,1.6c-4.8,1.5-11.3,2.4-16.9,2.4
		c-11.8,0-19.3-4.4-19.3-14.1c0-8.5,6.7-12.8,17.9-12.8c2.5,0,4.9,0.2,7,0.5v-0.8c0-4.3-1.6-6.7-6.9-6.7c-3.6,0-7.9,1-10.3,2.3
		c-0.7,0.4-1.6,0.3-2-0.5l-3.4-6.4c-0.4-0.8-0.4-1.4,0.2-1.8C100.6,943.7,106.5,941.7,113.6,941.7z M113.4,976.4
		c1.9,0,4.1-0.3,5.6-0.7v-7.2c-1.6-0.3-3.9-0.5-5.7-0.5c-4.5,0-6.5,1.5-6.5,4.1C106.9,975,109.5,976.4,113.4,976.4z"/>
	<path class="st1" d="M157.1,1002c-6.8,0-11.6-1.4-16.2-4.4c-0.7-0.5-0.8-1.2-0.3-2l4.3-6.6c0.5-0.7,1.1-0.9,1.9-0.4
		c2.6,1.6,6.1,2.7,9.8,2.7c5.2,0,7.8-2,7.7-8c-2.3,0.7-5.2,1.2-7.6,1.2c-10.6,0-17.9-6.4-17.9-17.6v-6.7c0-12.8,8.5-18.5,19.7-18.5
		c6.1,0,12.2,1.4,17.1,3.3c0.7,0.3,1.1,0.9,1.1,1.7v34.7C176.6,995.4,170.8,1002,157.1,1002z M158.3,973.7c2.4,0,4.6-0.5,5.7-1.4
		v-18.6c-1.2-0.5-3.5-0.8-5.5-0.8c-4.4,0-7.1,1.8-7.1,7v7.2C151.5,971.9,154.2,973.7,158.3,973.7z"/>
	<path class="st1" d="M202.2,941.7c11.3,0,18,5.9,18,18.4v22.5c0,0.8-0.4,1.4-1.2,1.6c-4.8,1.5-11.3,2.4-16.9,2.4
		c-11.8,0-19.3-4.4-19.3-14.1c0-8.5,6.7-12.8,17.9-12.8c2.5,0,4.9,0.2,7,0.5v-0.8c0-4.3-1.6-6.7-6.9-6.7c-3.6,0-7.9,1-10.3,2.3
		c-0.7,0.4-1.6,0.3-2-0.5l-3.4-6.4c-0.4-0.8-0.4-1.4,0.2-1.8C189.2,943.7,195.2,941.7,202.2,941.7z M202.1,976.4
		c1.9,0,4.1-0.3,5.6-0.7v-7.2c-1.6-0.3-3.9-0.5-5.7-0.5c-4.5,0-6.5,1.5-6.5,4.1C195.5,975,198.1,976.4,202.1,976.4z"/>
	<path class="st1" d="M230.1,985.5c-1,0-1.5-0.5-1.5-1.5v-37.2c0-0.7,0.3-1.3,1.1-1.7c4.5-2.2,9.8-3.4,15.1-3.4c2.5,0,5,0.3,8,0.8
		c0.9,0.2,1.3,0.7,1.3,1.6v7.5c0,1-0.6,1.5-1.6,1.3c-1.6-0.2-3.4-0.3-5.1-0.3c-2.5,0-4.7,0.4-6.2,1.1V984c0,1-0.5,1.5-1.4,1.5H230.1
		z"/>
	<path class="st1" d="M314,941.8c10.8,0,18.3,6.4,18.3,18V984c0,1-0.5,1.5-1.4,1.5h-9.5c-1,0-1.5-0.5-1.5-1.5v-24.7
		c0-4-2-6.4-6.3-6.4c-1.8,0-3.6,0.4-5.3,1.3c0.6,1.6,0.8,3.4,0.8,5.3V984c0,1-0.5,1.5-1.4,1.5h-9.5c-1,0-1.5-0.5-1.5-1.5v-24.7
		c0-4.3-2-6.5-6-6.5c-1.7,0-3.5,0.3-4.8,0.7V984c0,1-0.6,1.5-1.5,1.5h-9.5c-1,0-1.5-0.5-1.5-1.5v-37.2c0-0.8,0.3-1.4,1.1-1.8
		c4.8-2,10.7-3.2,16-3.2c4.3,0,8,1.2,11.2,3.4C306,942.9,309.6,941.8,314,941.8z"/>
	<path class="st1" d="M377,967c0,0.9-0.5,1.4-1.5,1.4h-23.2v1.3c0,4.2,2.7,6.3,7.1,6.3c4.1,0,7.5-1.2,10.4-3
		c0.7-0.6,1.4-0.4,1.9,0.3l4.3,5.7c0.5,0.7,0.5,1.5-0.2,2.1c-4.2,3.2-9.5,5.4-16.7,5.4c-10.7,0-19.3-5.7-19.3-17.1v-10.3
		c0-12.2,8.6-17.5,19-17.5c10.1,0,18.3,5.1,18.3,17.5V967z M358.6,952.1c-3.8,0-6.3,2-6.3,6.5v1.7h12.6v-1.7
		C364.9,954.1,362.3,952.1,358.6,952.1z"/>
	<path class="st3" d="M262.5,985.2l-7.8-5.5c-0.8-0.6-0.8-1.8,0-2.4l7.8-5.5c1-0.7,2.3,0,2.3,1.2v11
		C264.8,985.2,263.5,985.9,262.5,985.2z"/>
	<g>
		<rect x="404.9" y="930" class="st1" width="10" height="8.5"/>
		<polygon class="st1" points="399.8,916.9 399.8,916.9 399.8,916.9 		"/>
		<path class="st1" d="M399.3,917.3h-7.1v21.2h10v-11.2h12.7v-22.7h-22.7v10h7.1c0,0,0.1-0.1,0.2-0.1l6.1-4.3
			c0.5-0.4,1.3-0.4,1.8-0.1c0.6,0.3,1,0.9,1,1.6v8.6c0,0.7-0.4,1.3-1,1.6c-0.6,0.3-1.3,0.3-1.9-0.1l-6.1-4.3
			C399.4,917.4,399.4,917.4,399.3,917.3z"/>
		<rect x="392.3" y="892.1" class="st1" width="10" height="10"/>
		<rect x="379.6" y="917.3" class="st1" width="10" height="10"/>
		<rect x="417.6" y="892.1" class="st1" width="8.5" height="10"/>
		<rect x="379.6" y="904.7" class="st1" width="10" height="10"/>
		<rect x="379.6" y="930" class="st1" width="10" height="8.5"/>
		<rect x="379.6" y="892.1" class="st1" width="10" height="10"/>
		<rect x="417.6" y="930" class="st1" width="8.5" height="8.5"/>
		<rect x="417.6" y="904.7" class="st1" width="8.5" height="10"/>
		<rect x="417.6" y="917.3" class="st1" width="8.5" height="10"/>
		<rect x="404.9" y="892.1" class="st1" width="10" height="10"/>
	</g>
</g>
<g>
	<path class="st3" d="M69.7,1101.2c11.5,0,19.4,6.9,19.4,18.6v8.1c0,11.2-7.3,18.1-17.8,18.1c-2.7,0-5.5-0.6-7.5-1.4v14.4
		c0,1-0.5,1.5-1.4,1.5h-9.7c-1,0-1.5-0.5-1.5-1.5v-53.2c0-0.8,0.3-1.3,1.1-1.6C57.3,1102.5,64.1,1101.2,69.7,1101.2z M76.4,1128.2
		v-8.6c0-5.1-2.5-7.2-7-7.2c-2.1,0-4.1,0.3-5.7,0.9v20.5c1.6,0.9,3.5,1.4,5.7,1.4C74,1135.2,76.4,1133,76.4,1128.2z"/>
	<path class="st3" d="M113.6,1101.2c11.3,0,18,5.9,18,18.4v22.5c0,0.8-0.4,1.4-1.2,1.6c-4.8,1.5-11.3,2.4-16.9,2.4
		c-11.8,0-19.3-4.4-19.3-14.1c0-8.5,6.7-12.8,17.9-12.8c2.5,0,4.9,0.2,7,0.5v-0.8c0-4.3-1.6-6.7-6.9-6.7c-3.6,0-7.9,1-10.3,2.3
		c-0.7,0.4-1.6,0.3-2-0.5l-3.4-6.4c-0.4-0.8-0.4-1.4,0.2-1.8C100.6,1103.3,106.5,1101.2,113.6,1101.2z M113.4,1135.9
		c1.9,0,4.1-0.3,5.6-0.7v-7.2c-1.6-0.3-3.9-0.5-5.7-0.5c-4.5,0-6.5,1.5-6.5,4.1C106.9,1134.5,109.5,1135.9,113.4,1135.9z"/>
	<path class="st3" d="M157.1,1161.6c-6.8,0-11.6-1.4-16.2-4.4c-0.7-0.5-0.8-1.2-0.3-2l4.3-6.6c0.5-0.7,1.1-0.9,1.9-0.4
		c2.6,1.6,6.1,2.7,9.8,2.7c5.2,0,7.8-2,7.7-8c-2.3,0.7-5.2,1.2-7.6,1.2c-10.6,0-17.9-6.4-17.9-17.6v-6.7c0-12.8,8.5-18.5,19.7-18.5
		c6.1,0,12.2,1.4,17.1,3.3c0.7,0.3,1.1,0.9,1.1,1.7v34.7C176.6,1154.9,170.8,1161.6,157.1,1161.6z M158.3,1133.2
		c2.4,0,4.6-0.5,5.7-1.4v-18.6c-1.2-0.5-3.5-0.8-5.5-0.8c-4.4,0-7.1,1.8-7.1,7v7.2C151.5,1131.4,154.2,1133.2,158.3,1133.2z"/>
	<path class="st3" d="M202.2,1101.2c11.3,0,18,5.9,18,18.4v22.5c0,0.8-0.4,1.4-1.2,1.6c-4.8,1.5-11.3,2.4-16.9,2.4
		c-11.8,0-19.3-4.4-19.3-14.1c0-8.5,6.7-12.8,17.9-12.8c2.5,0,4.9,0.2,7,0.5v-0.8c0-4.3-1.6-6.7-6.9-6.7c-3.6,0-7.9,1-10.3,2.3
		c-0.7,0.4-1.6,0.3-2-0.5l-3.4-6.4c-0.4-0.8-0.4-1.4,0.2-1.8C189.2,1103.3,195.2,1101.2,202.2,1101.2z M202.1,1135.9
		c1.9,0,4.1-0.3,5.6-0.7v-7.2c-1.6-0.3-3.9-0.5-5.7-0.5c-4.5,0-6.5,1.5-6.5,4.1C195.5,1134.5,198.1,1135.9,202.1,1135.9z"/>
	<path class="st3" d="M230.1,1145c-1,0-1.5-0.5-1.5-1.5v-37.2c0-0.7,0.3-1.3,1.1-1.7c4.5-2.2,9.8-3.4,15.1-3.4c2.5,0,5,0.3,8,0.8
		c0.9,0.2,1.3,0.7,1.3,1.6v7.5c0,1-0.6,1.5-1.6,1.3c-1.6-0.2-3.4-0.3-5.1-0.3c-2.5,0-4.7,0.4-6.2,1.1v30.3c0,1-0.5,1.5-1.4,1.5
		H230.1z"/>
	<path class="st3" d="M314,1101.3c10.8,0,18.3,6.4,18.3,18v24.3c0,1-0.5,1.5-1.4,1.5h-9.5c-1,0-1.5-0.5-1.5-1.5v-24.7
		c0-4-2-6.4-6.3-6.4c-1.8,0-3.6,0.4-5.3,1.3c0.6,1.6,0.8,3.4,0.8,5.3v24.4c0,1-0.5,1.5-1.4,1.5h-9.5c-1,0-1.5-0.5-1.5-1.5v-24.7
		c0-4.3-2-6.5-6-6.5c-1.7,0-3.5,0.3-4.8,0.7v30.4c0,1-0.6,1.5-1.5,1.5h-9.5c-1,0-1.5-0.5-1.5-1.5v-37.2c0-0.8,0.3-1.4,1.1-1.8
		c4.8-2,10.7-3.2,16-3.2c4.3,0,8,1.2,11.2,3.4C306,1102.5,309.6,1101.3,314,1101.3z"/>
	<path class="st3" d="M377,1126.6c0,0.9-0.5,1.4-1.5,1.4h-23.2v1.3c0,4.2,2.7,6.3,7.1,6.3c4.1,0,7.5-1.2,10.4-3
		c0.7-0.6,1.4-0.4,1.9,0.3l4.3,5.7c0.5,0.7,0.5,1.5-0.2,2.1c-4.2,3.2-9.5,5.4-16.7,5.4c-10.7,0-19.3-5.7-19.3-17.1v-10.3
		c0-12.2,8.6-17.5,19-17.5c10.1,0,18.3,5.1,18.3,17.5V1126.6z M358.6,1111.6c-3.8,0-6.3,2-6.3,6.5v1.7h12.6v-1.7
		C364.9,1113.7,362.3,1111.6,358.6,1111.6z"/>
	<path class="st3" d="M262.5,1144.7l-7.8-5.5c-0.8-0.6-0.8-1.8,0-2.4l7.8-5.5c1-0.7,2.3,0,2.3,1.2v11
		C264.8,1144.7,263.5,1145.4,262.5,1144.7z"/>
	<g>
		<rect x="404.9" y="1089.6" class="st3" width="10" height="8.5"/>
		<polygon class="st3" points="399.8,1076.4 399.8,1076.4 399.8,1076.4 		"/>
		<path class="st3" d="M399.3,1076.9h-7.1v21.2h10v-11.2h12.7v-22.7h-22.7v10h7.1c0,0,0.1-0.1,0.2-0.1l6.1-4.3
			c0.5-0.4,1.3-0.4,1.8-0.1c0.6,0.3,1,0.9,1,1.6v8.6c0,0.7-0.4,1.3-1,1.6c-0.6,0.3-1.3,0.3-1.9-0.1l-6.1-4.3
			C399.4,1077,399.4,1076.9,399.3,1076.9z"/>
		<rect x="392.3" y="1051.6" class="st3" width="10" height="10"/>
		<rect x="379.6" y="1076.9" class="st3" width="10" height="10"/>
		<rect x="417.6" y="1051.6" class="st3" width="8.5" height="10"/>
		<rect x="379.6" y="1064.2" class="st3" width="10" height="10"/>
		<rect x="379.6" y="1089.6" class="st3" width="10" height="8.5"/>
		<rect x="379.6" y="1051.6" class="st3" width="10" height="10"/>
		<rect x="417.6" y="1089.6" class="st3" width="8.5" height="8.5"/>
		<rect x="417.6" y="1064.2" class="st3" width="8.5" height="10"/>
		<rect x="417.6" y="1076.9" class="st3" width="8.5" height="10"/>
		<rect x="404.9" y="1051.6" class="st3" width="10" height="10"/>
	</g>
</g>
<g>
	<rect x="646.9" y="949.7" class="st3" width="22.5" height="19.2"/>
	<polygon class="st3" points="635.3,920.2 635.3,920.1 635.3,920.1 	"/>
	<path class="st3" d="M634.3,921.2h-15.9v47.6h22.5v-25.1h28.5v-51h-51v22.5h15.9c0.1-0.1,0.2-0.2,0.3-0.3l13.8-9.7
		c1.2-0.9,2.8-1,4.2-0.3c1.3,0.7,2.2,2.1,2.2,3.6v19.4c0,1.5-0.8,2.9-2.2,3.6c-1.3,0.7-2.9,0.6-4.2-0.3l-13.8-9.7
		C634.5,921.4,634.4,921.3,634.3,921.2z"/>
	<rect x="618.4" y="864.3" class="st3" width="22.5" height="22.4"/>
	<rect x="590" y="921.2" class="st3" width="22.4" height="22.5"/>
	<rect x="675.4" y="864.3" class="st3" width="19.2" height="22.4"/>
	<rect x="590" y="892.7" class="st3" width="22.4" height="22.5"/>
	<rect x="590" y="949.7" class="st3" width="22.4" height="19.2"/>
	<rect x="590" y="864.3" class="st3" width="22.4" height="22.4"/>
	<rect x="675.4" y="949.7" class="st3" width="19.2" height="19.2"/>
	<rect x="675.4" y="892.7" class="st3" width="19.2" height="22.5"/>
	<rect x="675.4" y="921.2" class="st3" width="19.2" height="22.5"/>
	<rect x="646.9" y="864.3" class="st3" width="22.5" height="22.4"/>
</g>
</svg>
