<?xml version="1.0" encoding="utf-8"?>
<!-- Generator: Adobe Illustrator 21.1.0, SVG Export Plug-In . SVG Version: 6.00 Build 0)  -->
<svg version="1.1" id="Layer_1" xmlns="http://www.w3.org/2000/svg" xmlns:xlink="http://www.w3.org/1999/xlink" x="0px" y="0px"
	 viewBox="0 0 50 35" style="enable-background:new 0 0 50 35;" xml:space="preserve">
<style type="text/css">
	.st0{fill:#27ADE4;}
	.st1{fill:#2D78BC;}
	.st2{fill:#FFFFFF;}
</style>
<path class="st0" d="M47,35H3c-1.7,0-3-1.3-3-3V3c0-1.7,1.3-3,3-3h44c1.7,0,3,1.3,3,3v29C50,33.6,48.7,35,47,35z"/>
<g>
	<path class="st1" d="M8.1,13.4l-0.8-2l-0.8,2 M25.7,12.5c-0.2,0.1-0.3,0.1-0.6,0.1h-1.4v-1.1h1.4c0.2,0,0.4,0,0.5,0.1
		s0.2,0.2,0.2,0.4C25.9,12.2,25.8,12.4,25.7,12.5 M35.9,13.4l-0.8-2l-0.8,2H35.9L35.9,13.4z M17,15.4h-1.2v-3.8l-1.7,3.8h-1
		l-1.7-3.8v3.8H9l-0.5-1.1H6.1l-0.5,1.1H4.3l2.1-4.9h1.7l2,4.6v-4.6H12l1.5,3.3l1.4-3.3h2L17,15.4L17,15.4z M21.8,15.4h-3.9v-4.9
		h3.9v1.1h-2.7v0.9h2.7v1h-2.7v1h2.7V15.4L21.8,15.4z M27.2,11.9c0,0.8-0.5,1.2-0.8,1.3c0.3,0.1,0.5,0.3,0.6,0.4
		c0.2,0.2,0.2,0.5,0.2,0.9v1H26v-0.6c0-0.3,0-0.7-0.2-1c-0.2-0.2-0.4-0.2-0.8-0.2h-1.2v1.8h-1.2v-5h2.7c0.6,0,1,0,1.4,0.2
		C27.1,11,27.3,11.4,27.2,11.9 M29.1,15.5h-1.2v-5h1.2V15.5z M43,15.4h-1.7l-2.2-3.6v3.6h-2.3l-0.4-1.1h-2.5l-0.4,1.1H32
		c-0.6,0-1.3-0.1-1.7-0.5c-0.4-0.4-0.6-1-0.6-1.9c0-0.7,0.1-1.4,0.6-1.9c0.4-0.4,1-0.6,1.7-0.6h1.1v1.1H32c-0.4,0-0.7,0.1-0.9,0.3
		c-0.2,0.2-0.3,0.6-0.3,1.1s0.1,0.9,0.3,1.2c0.2,0.2,0.5,0.3,0.8,0.3h0.6l1.6-3.9h1.7l2,4.7v-4.7h1.8l2,3.5v-3.5h1.1L43,15.4
		L43,15.4z M4.4,16.4h2l0.4-1.1h1l0.4,1.1h4v-0.8l0.3,0.9h2l0.4-0.9v0.8h9.7v-1.7h0.2c0.1,0,0.2,0,0.2,0.2v1.5h5.1V16
		c0.4,0.2,1,0.4,1.9,0.4h2.1l0.5-1.1h1l0.4,1.1h4.1v-1l0.6,1h3.4V9.6h-3.2v0.8l-0.5-0.8h-3.5v0.8l-0.4-0.8H32
		c-0.7,0-1.4,0.1-1.9,0.4V9.6H27V10c-0.3-0.3-0.8-0.4-1.3-0.4H14.4l-0.8,1.8l-0.8-1.8H9.2v0.8L8.8,9.6h-3l-1.4,3.2l-1.6,3.6H4.4z"/>
	<path class="st2" d="M8.1,13.7l-0.8-2l-0.8,2 M25.7,12.9C25.5,13,25.4,13,25.1,13h-1.4v-1.1h1.4c0.2,0,0.4,0,0.5,0.1
		s0.2,0.2,0.2,0.4C25.9,12.6,25.8,12.9,25.7,12.9 M35.9,13.9l-0.8-2l-0.8,2H35.9L35.9,13.9z M17,15.9h-1.2v-3.8l-1.7,3.8h-1
		l-1.7-3.8v3.8H9l-0.5-1.1H6.1l-0.5,1.1H4.3l2.1-5h1.7l2,4.7v-4.7H12l1.5,3.4l1.4-3.4h2L17,15.9L17,15.9z M21.8,15.9h-3.9v-5h3.9
		v1.1h-2.7v1h2.7v1h-2.7v1h2.7V15.9L21.8,15.9z M27.2,12.2c0,0.8-0.5,1.2-0.8,1.3c0.3,0.1,0.5,0.3,0.6,0.4c0.2,0.2,0.2,0.5,0.2,0.9
		v0.9H26v-0.6c0-0.3,0-0.7-0.2-1C25.6,14,25.4,14,25,14h-1.2v1.8h-1.2v-5h2.7c0.6,0,1,0,1.4,0.2C27.1,11.4,27.3,11.6,27.2,12.2
		 M29.1,15.9h-1.2v-5h1.2V15.9z M43,15.9h-1.7l-2.2-3.6v3.6h-2.3l-0.4-1.1h-2.5l-0.4,1.1H32c-0.6,0-1.3-0.1-1.7-0.6
		c-0.4-0.4-0.6-1-0.6-1.9c0-0.7,0.1-1.4,0.6-1.9c0.4-0.4,1-0.6,1.8-0.6h1.1v1.1h-1.1c-0.4,0-0.7,0.1-0.9,0.3
		c-0.2,0.2-0.3,0.6-0.3,1.1s0.1,0.9,0.3,1.2c0.2,0.2,0.5,0.3,0.8,0.3h0.6l1.6-3.9h1.7l2,4.7v-4.7h1.8l2,3.5v-3.5h1.1L43,15.9
		L43,15.9z M4.4,16.9h2l0.4-1.1h1l0.4,1.1h4v-0.8l0.3,0.9h2l0.4-0.9v0.8h9.7v-1.8h0.2c0.1,0,0.2,0,0.2,0.2v1.6h5.1v-0.4
		c0.4,0.2,1,0.4,1.9,0.4h2.1l0.5-1.1h1l0.4,1.1h4.1v-1l0.6,1h3.4V10h-3.2v0.8L40.4,10h-3.5v0.8L36.5,10H32c-0.7,0-1.4,0.1-1.9,0.4
		V10H27v0.4c-0.3-0.3-0.8-0.4-1.3-0.4H14.4l-0.8,1.8L12.8,10H9.2v0.8L8.8,10h-3l-1.4,3.3l-1.6,3.6H4.4z"/>
	<path class="st1" d="M46.7,21.2v-3.3h-0.8l0,0h-2.1c-0.7,0-1.1,0.2-1.5,0.4v-0.4h-3.1c-0.5,0-1.1,0.1-1.4,0.4v-0.4h-5.7v0.4
		c-0.5-0.3-1.2-0.4-1.6-0.4h-3.7v0.4c-0.4-0.4-1.2-0.4-1.7-0.4h-4.2l-1,1.1L19,17.9h-6.3v6.9h6l1-1.1l1,1.1h3.9v-1.6H25
		c0.5,0,1.1,0,1.7-0.2v2h3.1v-1.8h0.1c0.2,0,0.2,0,0.2,0.2v1.6h9.6c0.6,0,1.2-0.2,1.6-0.5v0.5h3.1c0.6,0,1.2-0.1,1.7-0.3l0,0
		c0.7-0.4,1.1-1.2,1.1-2.1C47.1,22,46.9,21.5,46.7,21.2z M24.8,22.2h-1.3v1.6h-2.3l-1.4-1.6l-1.5,1.6h-4.6v-4.9h4.6l1.4,1.6l1.5-1.6
		h3.7c0.9,0,1.9,0.3,1.9,1.6C26.8,21.9,25.8,22.2,24.8,22.2z M32,21.9c0.2,0.2,0.2,0.5,0.2,0.9v1H31v-0.6c0-0.3,0-0.8-0.2-1
		s-0.4-0.2-0.8-0.2h-1.2v1.8h-1.2v-5h2.7c0.6,0,1,0,1.4,0.2s0.6,0.5,0.6,1.1c0,0.8-0.5,1.2-0.8,1.3C31.7,21.6,31.9,21.9,32,21.9z
		 M36.7,19.9H34v0.9h2.7v1.1H34v1h2.7V24h-3.9v-5h3.9V19.9L36.7,19.9z M39.8,23.9h-2.3v-1h2.3c0.2,0,0.4,0,0.5-0.1s0.1-0.2,0.1-0.3
		s-0.1-0.3-0.1-0.3c-0.1-0.1-0.2-0.1-0.4-0.1c-1.1,0-2.5,0-2.5-1.5c0-0.7,0.4-1.5,1.7-1.5h2.4v1h-2.2c-0.2,0-0.4,0-0.5,0.1
		s-0.2,0.2-0.2,0.4s0.1,0.3,0.3,0.4c0.1,0,0.3,0.1,0.5,0.1H40c0.6,0,1.1,0.1,1.3,0.4c0.2,0.2,0.4,0.5,0.4,1
		C41.6,23.4,40.9,23.9,39.8,23.9z M45.7,23.4c-0.3,0.3-0.8,0.5-1.4,0.5H42v-1h2.2c0.2,0,0.4,0,0.5-0.1s0.1-0.2,0.1-0.3
		s-0.1-0.3-0.1-0.3c-0.1-0.1-0.2-0.1-0.4-0.1c-1.1,0-2.5,0-2.5-1.5c0-0.7,0.4-1.5,1.7-1.5h2.3v1h-2.1c-0.2,0-0.4,0-0.5,0.1
		S43,20.4,43,20.6s0.1,0.3,0.3,0.4c0.1,0,0.3,0.1,0.4,0.1h0.6c0.6,0,1.1,0.1,1.3,0.4l0.1,0.1c0,0,0,0,0-0.1c0.2,0.3,0.3,0.6,0.3,1
		C46.1,22.7,46,23.1,45.7,23.4z M17.7,19.9l1.3,1.5l-1.3,1.5h-2.9v-1h2.6v-1h-2.6v-1H17.7L17.7,19.9z M20.5,21.4l1.8-2v4L20.5,21.4z
		 M25.7,20.6c0,0.4-0.3,0.7-0.8,0.7h-1.6v-1.3h1.6C25.4,19.9,25.7,20.1,25.7,20.6z M30.9,20.4c0,0.2-0.1,0.4-0.2,0.5
		C30.5,21,30.4,21,30.1,21h-1.4v-1.1h1.4c0.2,0,0.4,0,0.5,0.1C30.8,20.1,30.9,20.2,30.9,20.4z"/>
	<path class="st2" d="M46.7,21.5v-3.2h-0.8l0,0h-2.1c-0.7,0-1.1,0.2-1.5,0.4v-0.4h-3.1c-0.5,0-1.1,0.1-1.4,0.4v-0.4h-5.7v0.4
		c-0.5-0.3-1.2-0.4-1.6-0.4h-3.7v0.4c-0.4-0.4-1.2-0.4-1.7-0.4h-4.2l-1,1.1L19,18.3h-6.3v6.9h6l1-1.1l1,1.1h3.9v-1.6H25
		c0.5,0,1.1,0,1.7-0.2v1.9h3.1v-1.9h0.1c0.2,0,0.2,0,0.2,0.2v1.6h9.6c0.6,0,1.2-0.2,1.6-0.5v0.5h3.1c0.6,0,1.2-0.1,1.7-0.3l0,0
		c0.7-0.4,1.1-1.2,1.1-2.1C47.1,22.4,46.9,21.9,46.7,21.5z M24.8,22.6h-1.3v1.6h-2.3l-1.4-1.6l-1.5,1.6h-4.6v-4.8h4.6l1.4,1.6
		l1.5-1.6h3.7c0.9,0,1.9,0.3,1.9,1.6C26.8,22.4,25.8,22.6,24.8,22.6z M32,22.4c0.2,0.2,0.2,0.5,0.2,0.9v1H31v-0.6c0-0.3,0-0.8-0.2-1
		s-0.4-0.2-0.8-0.2h-1.2v1.8h-1.2v-5h2.7c0.6,0,1,0,1.4,0.2s0.6,0.5,0.6,1.1c0,0.8-0.5,1.2-0.8,1.3C31.7,22,31.9,22.2,32,22.4z
		 M36.7,20.4H34v0.9h2.7v1.1H34v1h2.7v1h-3.9v-5h3.9V20.4L36.7,20.4z M39.8,24.4h-2.3v-1.1h2.3c0.2,0,0.4,0,0.5-0.1s0.1-0.2,0.1-0.3
		s-0.1-0.3-0.1-0.3c-0.1-0.1-0.2-0.1-0.4-0.1c-1.1,0-2.5,0-2.5-1.5c0-0.7,0.4-1.5,1.7-1.5h2.4v1h-2.2c-0.2,0-0.4,0-0.5,0.1
		s-0.2,0.2-0.2,0.4s0.1,0.3,0.3,0.4c0.1,0,0.3,0.1,0.5,0.1H40c0.6,0,1.1,0.1,1.3,0.4c0.2,0.2,0.4,0.5,0.4,1
		C41.6,23.9,40.9,24.4,39.8,24.4z M45.7,23.9c-0.3,0.3-0.8,0.5-1.4,0.5H42v-1.1h2.2c0.2,0,0.4,0,0.5-0.1s0.1-0.2,0.1-0.3
		s-0.1-0.3-0.1-0.3c-0.1-0.1-0.2-0.1-0.4-0.1c-1.1,0-2.5,0-2.5-1.5c0-0.7,0.4-1.5,1.7-1.5h2.3v1h-2.1c-0.2,0-0.4,0-0.5,0.1
		S43,20.7,43,20.9s0.1,0.3,0.3,0.4c0.1,0,0.3,0.1,0.4,0.1h0.6c0.6,0,1.1,0.1,1.3,0.4l0.1,0.1c0,0,0,0,0-0.1c0.2,0.3,0.3,0.6,0.3,1
		C46.1,23.1,46,23.5,45.7,23.9z M17.7,20.4l1.3,1.5l-1.3,1.5h-2.9v-1.1h2.6v-1h-2.6v-0.9H17.7L17.7,20.4z M20.5,21.9l1.8-2v4
		L20.5,21.9z M25.7,21c0,0.4-0.3,0.7-0.8,0.7h-1.6v-1.3h1.6C25.4,20.4,25.7,20.5,25.7,21z M30.9,20.9c0,0.2-0.1,0.4-0.2,0.5
		c-0.2,0.1-0.3,0.1-0.6,0.1h-1.4v-1.1h1.4c0.2,0,0.4,0,0.5,0.1C30.8,20.5,30.9,20.7,30.9,20.9z"/>
</g>
</svg>
