<?xml version="1.0" encoding="utf-8"?>
<!-- Generator: Adobe Illustrator 21.1.0, SVG Export Plug-In . SVG Version: 6.00 Build 0)  -->
<svg version="1.1" id="Layer_1" xmlns="http://www.w3.org/2000/svg" xmlns:xlink="http://www.w3.org/1999/xlink" x="0px" y="0px"
	 viewBox="0 0 50 35" style="enable-background:new 0 0 50 35;" xml:space="preserve">
<style type="text/css">
	.st0{fill:#E5E5E5;}
	.st1{clip-path:url(#SVGID_2_);}
	.st2{fill:#2E3191;}
	.st3{fill:#FFF100;}
	.st4{fill:#EC1C24;}
</style>
<path class="st0" d="M47,35H3c-1.7,0-3-1.3-3-3V3c0-1.7,1.3-3,3-3h44c1.7,0,3,1.3,3,3v29C50,33.7,48.7,35,47,35z"/>
<g>
	<g>
		<defs>
			<path id="SVGID_1_" d="M47,35H3c-1.7,0-3-1.3-3-3V3c0-1.7,1.3-3,3-3h44c1.7,0,3,1.3,3,3v29C50,33.7,48.7,35,47,35z"/>
		</defs>
		<clipPath id="SVGID_2_">
			<use xlink:href="#SVGID_1_"  style="overflow:visible;"/>
		</clipPath>
		<g class="st1">
			<polygon class="st2" points="-4,-0.7 54.1,-0.7 54.1,37.7 -4,37.7 			"/>
			<path class="st3" d="M25,5.5c6.3,0,11.5,5.1,11.5,11.5c0,6.3-5.1,11.5-11.5,11.5c-6.3,0-11.5-5.1-11.5-11.5
				C13.5,10.7,18.7,5.5,25,5.5L25,5.5z"/>
			<path class="st4" d="M23.5,12.3c11.3,0,21.9,1.9,30.6,5.1v20.3h-58V16.3C4.1,13.8,13.5,12.3,23.5,12.3L23.5,12.3z"/>
			<path class="st3" d="M23.5,18.1c11.3,0,21.9,1.9,30.6,5.1v14.5h-58V22.2C4.1,19.6,13.5,18.1,23.5,18.1L23.5,18.1z"/>
		</g>
	</g>
</g>
</svg>
