<?xml version="1.0" encoding="utf-8"?>
<!-- Generator: Adobe Illustrator 21.1.0, SVG Export Plug-In . SVG Version: 6.00 Build 0)  -->
<svg version="1.1" id="Layer_1" xmlns="http://www.w3.org/2000/svg" xmlns:xlink="http://www.w3.org/1999/xlink" x="0px" y="0px"
	 viewBox="0 0 50 35" style="enable-background:new 0 0 50 35;" xml:space="preserve">
<style type="text/css">
	.st0{fill:#00529E;}
	.st1{fill:#FFFFFF;}
</style>
<path class="st0" d="M47,35H3c-1.7,0-3-1.3-3-3V3c0-1.7,1.3-3,3-3h44c1.7,0,3,1.3,3,3v29C50,33.6,48.7,35,47,35z"/>
<g>
	<path class="st1" d="M27.6,29.1c6.3,0,12.1-5.2,12.1-11.5c0-6.9-5.8-11.7-12.1-11.7h-5.5c-6.4,0-11.7,4.8-11.7,11.7
		c0,6.3,5.3,11.5,11.7,11.5H27.6z"/>
	<path class="st0" d="M24.6,23.7V11.2c2.5,1,4.3,3.4,4.3,6.3C28.9,20.3,27.1,22.8,24.6,23.7 M15.5,17.5c0-2.9,1.8-5.3,4.3-6.3v12.5
		C17.3,22.8,15.5,20.3,15.5,17.5 M22.1,6.9c-5.9,0-10.6,4.7-10.6,10.6c0,5.9,4.7,10.6,10.6,10.6s10.6-4.7,10.6-10.6
		C32.8,11.6,28,6.9,22.1,6.9"/>
</g>
</svg>
