<?xml version="1.0" encoding="utf-8"?>
<!-- Generator: Adobe Illustrator 21.1.0, SVG Export Plug-In . SVG Version: 6.00 Build 0)  -->
<svg version="1.1" id="Layer_1" xmlns="http://www.w3.org/2000/svg" xmlns:xlink="http://www.w3.org/1999/xlink" x="0px" y="0px"
	 viewBox="0 0 50 35" style="enable-background:new 0 0 50 35;" xml:space="preserve">
<style type="text/css">
	.st0{fill:#F3F2F2;}
	.st1{fill:#F26E21;}
	.st2{fill:#0B161F;}
</style>
<path class="st0" d="M47,35H3c-1.7,0-3-1.3-3-3V3c0-1.7,1.3-3,3-3h44c1.7,0,3,1.3,3,3v29C50,33.7,48.7,35,47,35z"/>
<g>
	<circle class="st1" cx="26.2" cy="14.3" r="3.5"/>
	<g>
		<path class="st2" d="M7.1,15.9c-0.4,0.4-0.9,0.5-1.8,0.5H4.9V12h0.4c0.8,0,1.4,0.2,1.8,0.5c0.5,0.4,0.7,1,0.7,1.7
			C7.9,14.9,7.6,15.5,7.1,15.9L7.1,15.9z M5.8,10.9H3.9v6.7h1.9c1,0,1.8-0.2,2.4-0.8c0.8-0.6,1.2-1.6,1.2-2.6
			C9.3,12.3,7.8,10.9,5.8,10.9"/>
		<polyline class="st2" points="9.9,17.6 11.2,17.6 11.2,10.9 9.9,10.9 9.9,17.6 		"/>
		<path class="st2" d="M14.4,13.5c-0.8-0.3-1-0.5-1-0.8c0-0.4,0.4-0.7,1-0.7c0.4,0,0.7,0.2,1.1,0.5l0.7-0.9c-0.6-0.5-1.2-0.7-2-0.7
			c-1.2,0-2.1,0.8-2.1,1.9c0,0.9,0.4,1.4,1.7,1.8c0.5,0.2,0.8,0.3,0.9,0.4c0.3,0.2,0.4,0.4,0.4,0.7c0,0.5-0.4,0.9-1,0.9
			s-1.1-0.3-1.4-0.9l-0.8,0.8c0.6,0.9,1.3,1.3,2.3,1.3c1.4,0,2.3-0.9,2.3-2.2C16.4,14.5,15.9,14.1,14.4,13.5"/>
		<path class="st2" d="M16.8,14.3c0,2,1.6,3.5,3.6,3.5c0.6,0,1.1-0.1,1.7-0.4V16c-0.5,0.5-1,0.7-1.6,0.7c-1.3,0-2.3-1-2.3-2.3
			s1-2.3,2.2-2.3c0.6,0,1.1,0.2,1.7,0.8v-1.5C21.5,11,21,11,20.5,11C18.4,10.8,16.8,12.4,16.8,14.3"/>
		<polyline class="st2" points="32.8,15.4 30.9,10.9 29.4,10.9 32.3,17.8 33.1,17.8 35.9,10.9 34.6,10.9 32.8,15.4 		"/>
		<polyline class="st2" points="36.6,17.6 40.3,17.6 40.3,16.5 37.8,16.5 37.8,14.7 40.2,14.7 40.2,13.5 37.8,13.5 37.8,12 40.3,12 
			40.3,10.9 36.6,10.9 36.6,17.6 		"/>
		<path class="st2" d="M42.8,14.1h-0.4v-2h0.4c0.8,0,1.3,0.3,1.3,1C44.1,13.7,43.8,14.1,42.8,14.1L42.8,14.1z M45.6,12.9
			c0-1.3-0.9-2-2.4-2h-2v6.8h1.4V15h0.2l1.9,2.7h1.5L44,14.9C44.9,14.7,45.6,14,45.6,12.9"/>
	</g>
	<path d="M13.3,23.8v-3.7l2.6,2.7v-2.4h0.6v3.7l-2.6-2.7V24L13.3,23.8L13.3,23.8z"/>
	<path d="M19.3,20.8h-1.5v0.9h1.4v0.6h-1.4v1.1h1.5V24h-1.9v-3.5h1.9V20.8z"/>
	<path d="M20.9,20.8V24h-0.6v-3.1h-0.8v-0.5h2.1v0.5H20.9z"/>
	<path d="M22.6,20.3l0.9,2.4l1-2.5l0.9,2.5l1-2.4H27l-1.6,3.8l-0.9-2.5l-0.9,2.5l-1.5-3.7L22.6,20.3L22.6,20.3z"/>
	<path d="M27.1,22.1c0-0.5,0.2-0.9,0.5-1.3c0.4-0.4,0.8-0.5,1.3-0.5s0.9,0.2,1.3,0.5c0.4,0.4,0.5,0.8,0.5,1.3s-0.2,0.9-0.5,1.3
		c-0.4,0.4-0.8,0.5-1.3,0.5s-0.9-0.2-1.2-0.5C27.2,23.1,27.1,22.7,27.1,22.1z M27.6,22.1c0,0.4,0.1,0.7,0.4,1
		c0.3,0.3,0.6,0.4,0.9,0.4c0.4,0,0.7-0.1,0.9-0.4c0.3-0.3,0.4-0.6,0.4-0.9c0-0.4-0.1-0.7-0.4-0.9C29.5,21,29.1,21,28.8,21
		c-0.4,0-0.7,0.1-0.9,0.4C27.8,21.4,27.6,21.7,27.6,22.1z"/>
	<path d="M32.6,22.4l1.2,1.5h-0.7l-1-1.5h-0.2v1.5h-0.6v-3.6H32c0.5,0,0.9,0.1,1.1,0.3c0.2,0.2,0.4,0.5,0.4,0.8s-0.1,0.5-0.2,0.7
		C33.1,22.2,32.9,22.3,32.6,22.4z M31.9,22h0.2c0.5,0,0.8-0.2,0.8-0.6c0-0.4-0.2-0.5-0.7-0.5h-0.3V22L31.9,22z"/>
	<path d="M34.8,21.7l1.3-1.4h0.7L35.2,22l1.6,1.9h-0.6l-1.3-1.6l-0.1,0.1v1.5h-0.6v-3.5h0.6L34.8,21.7L34.8,21.7z"/>
</g>
</svg>
