<?xml version="1.0" encoding="utf-8"?>
<!-- Generator: Adobe Illustrator 21.1.0, SVG Export Plug-In . SVG Version: 6.00 Build 0)  -->
<svg version="1.1" id="Layer_1" xmlns="http://www.w3.org/2000/svg" xmlns:xlink="http://www.w3.org/1999/xlink" x="0px" y="0px"
	 viewBox="0 0 50 35" style="enable-background:new 0 0 50 35;" xml:space="preserve">
<style type="text/css">
	.st0{fill:#FFF100;}
	.st1{fill:#00A3DF;}
	.st2{fill:#EE4023;}
	.st3{fill:#FFFFFF;}
</style>
<path d="M47,35H3c-1.7,0-3-1.3-3-3V3c0-1.7,1.3-3,3-3h44c1.7,0,3,1.3,3,3v29C50,33.7,48.7,35,47,35z"/>
<g>
	<rect x="1.9" y="8.2" width="46.2" height="18.5"/>
	<g>
		<path class="st0" d="M10.7,13.2c0.4-0.1,0.9-0.2,1.4-0.2c2.1,0,3.9,1.5,4.3,3.5l3-0.6c-0.7-3.4-3.7-6-7.3-6
			c-0.8,0-1.6,0.1-2.4,0.4L10.7,13.2z"/>
		<path class="st1" d="M7.1,23.1l2-2.3c-0.9-0.8-1.5-2-1.5-3.3s0.6-2.5,1.5-3.3l-2-2.3c-1.5,1.4-2.5,3.4-2.5,5.6S5.6,21.7,7.1,23.1z
			"/>
		<path class="st2" d="M16.4,18.2c-0.4,2-2.2,3.5-4.3,3.5c-0.5,0-1-0.1-1.4-0.2l-1,2.9c0.7,0.2,1.5,0.4,2.4,0.4c3.6,0,6.6-2.6,7.3-6
			L16.4,18.2z"/>
	</g>
	<g>
		<g>
			<g>
				<path class="st3" d="M29.4,20.4c-0.5,0.5-1.2,0.8-1.9,0.8c-0.5,0-1-0.2-1.4-0.4l-1,1.6c0.7,0.4,1.5,0.7,2.4,0.7
					c1.3,0,2.4-0.5,3.3-1.3L29.4,20.4z"/>
				<path class="st3" d="M27.6,13.9c-2.5,0-4.6,2-4.6,4.5c0,0.9,0.3,1.8,0.7,2.6l8.3-3.5C31.5,15.4,29.8,13.9,27.6,13.9 M24.9,18.8
					c0-0.1,0-0.2,0-0.3c0-1.5,1.2-2.7,2.7-2.6c0.8,0,1.5,0.4,2,1L24.9,18.8z"/>
			</g>
			<path class="st3" d="M34.6,11.8v8.8l1.6,0.6l-0.7,1.7L34,22.2c-0.3-0.1-0.6-0.4-0.8-0.6c-0.2-0.3-0.3-0.6-0.3-1.1v-8.8L34.6,11.8
				L34.6,11.8z"/>
		</g>
		<g>
			<path class="st3" d="M40.1,15.9c0.3-0.1,0.6-0.1,0.9-0.1c1.3,0,2.4,0.9,2.6,2.1l1.8-0.4c-0.4-2.1-2.3-3.7-4.5-3.7
				c-0.5,0-1,0.1-1.4,0.2L40.1,15.9z"/>
			<path class="st3" d="M37.9,21.9l1.2-1.4c-0.6-0.5-0.9-1.2-0.9-2s0.3-1.5,0.9-2l-1.2-1.4c-0.9,0.8-1.5,2.1-1.5,3.4
				C36.4,19.9,37,21.1,37.9,21.9z"/>
			<path class="st3" d="M43.6,18.9c-0.2,1.2-1.3,2.1-2.6,2.1c-0.3,0-0.6,0-0.9-0.1l-0.6,1.8c0.5,0.2,0.9,0.2,1.4,0.2
				c2.2,0,4-1.6,4.5-3.6L43.6,18.9z"/>
		</g>
	</g>
</g>
</svg>
