<?xml version="1.0" encoding="utf-8"?>
<!-- Generator: Adobe Illustrator 21.1.0, SVG Export Plug-In . SVG Version: 6.00 Build 0)  -->
<svg version="1.1" id="Layer_1" xmlns="http://www.w3.org/2000/svg" xmlns:xlink="http://www.w3.org/1999/xlink" x="0px" y="0px"
	 viewBox="0 0 50 35" style="enable-background:new 0 0 50 35;" xml:space="preserve">
<style type="text/css">
	.st0{fill:#C1272D;}
	.st1{fill:#FFFFFF;}
</style>
<path class="st0" d="M47,35H3c-1.7,0-3-1.3-3-3V3c0-1.7,1.3-3,3-3h44c1.7,0,3,1.3,3,3v29C50,33.7,48.7,35,47,35z"/>
<g>
	<path class="st1" d="M4.6,20.6c0.3-1,0.5-2.1,0.8-3.4c0.3-1.3,0.5-2.6,0.7-4c0.2,0,0.3,0,0.4,0c0.1,0,0.1,0,0.2,0
		c0.1,0,0.1,0,0.2,0c0.1,0,0.2,0,0.4,0c-0.2,0.5-0.3,1.2-0.5,2l0,0.1l-0.2,1c0.1,0,0.4,0,0.6,0c0.6,0,1,0,1.2,0c0.4,0,1.1,0,2,0
		c0.1,0,0.1,0,0.2,0l0.2-1.2c0.1-0.5,0.2-0.8,0.2-1.1c0-0.3,0.1-0.6,0.1-0.9c0.1,0,0.3,0,0.3,0c0.1,0,0.2,0,0.2,0c0,0,0.1,0,0.2,0
		c0.1,0,0.2,0,0.4,0c-0.4,1.4-0.7,2.8-0.9,4c-0.3,1.3-0.4,2.4-0.5,3.3c-0.2,0-0.3,0-0.4,0c-0.1,0-0.1,0-0.2,0c-0.1,0-0.1,0-0.2,0
		c-0.1,0-0.2,0-0.4,0c0.1-0.5,0.2-0.9,0.3-1.3c0.1-0.4,0.2-0.7,0.2-0.9l0.3-1.4c-0.3,0-0.7,0-1.1,0c-0.4,0-0.7,0-0.8,0
		c-0.3,0-0.7,0-1,0c-0.3,0-0.7,0-1,0l-0.2,1.2C6,18.5,6,18.8,5.9,19.2c-0.1,0.4-0.1,0.8-0.2,1.3c-0.1,0-0.2,0-0.3,0
		c-0.1,0-0.2,0-0.2,0c-0.1,0-0.1,0-0.2,0C4.8,20.5,4.7,20.5,4.6,20.6L4.6,20.6z M13.1,13.5c0-0.2,0-0.3,0.1-0.4
		c0.1-0.1,0.2-0.1,0.4-0.1c0.2,0,0.3,0,0.4,0.1c0.1,0.1,0.1,0.2,0.1,0.4c0,0.1,0,0.3-0.1,0.4c-0.1,0.1-0.2,0.2-0.4,0.2
		c-0.1,0-0.3-0.1-0.4-0.2C13.2,13.8,13.1,13.7,13.1,13.5L13.1,13.5z M11.9,20.6c0.3-1.1,0.5-2.1,0.7-3c0.2-0.9,0.2-1.6,0.3-2.1
		c0.1,0,0.2,0,0.3,0s0.2,0,0.3,0c0.1,0,0.2,0,0.3,0c0.1,0,0.2,0,0.3,0c-0.3,1-0.5,2-0.7,2.8c-0.2,0.9-0.2,1.6-0.3,2.3
		c-0.2,0-0.3,0-0.4,0c-0.1,0-0.1,0-0.2,0c0,0-0.1,0-0.2,0C12.2,20.5,12.1,20.5,11.9,20.6L11.9,20.6z M16.6,20.1c0.5,0,1-0.3,1.3-0.8
		c0.4-0.5,0.5-1.2,0.5-2c0-0.5-0.1-0.8-0.3-1.1c-0.2-0.3-0.5-0.4-0.8-0.4c-0.5,0-1,0.3-1.4,0.8c-0.4,0.5-0.5,1.2-0.5,2
		c0,0.5,0.1,0.8,0.3,1.1C15.9,19.9,16.2,20.1,16.6,20.1L16.6,20.1z M13.4,23.5c0.3-1.1,0.6-2.4,0.9-3.7c0.3-1.4,0.5-2.8,0.7-4.3
		c0.1,0,0.2,0,0.2,0c0.1,0,0.1,0,0.2,0c0.1,0,0.1,0,0.2,0c0.1,0,0.2,0,0.3,0l-0.2,0.8c0.3-0.3,0.5-0.5,0.8-0.7
		c0.3-0.1,0.6-0.2,1-0.2c0.6,0,1,0.2,1.4,0.6c0.3,0.4,0.5,0.9,0.5,1.6c0,0.9-0.3,1.7-0.8,2.3c-0.5,0.6-1.2,0.9-2,0.9
		c-0.3,0-0.6-0.1-0.9-0.3c-0.3-0.2-0.5-0.5-0.6-0.8l-0.2,1.2c0,0.1,0,0.2-0.1,0.3c-0.2,1-0.3,1.8-0.4,2.4c-0.1,0-0.2,0-0.3,0
		c-0.1,0-0.1,0-0.2,0c-0.1,0-0.2,0-0.2,0C13.6,23.5,13.5,23.5,13.4,23.5L13.4,23.5z M20.7,17.5c0.1,0,0.2,0,0.4,0c0.4,0,0.7,0,0.8,0
		c0.2,0,0.5,0,0.9,0c0.2,0,0.3,0,0.4,0c0-0.1,0-0.2,0-0.3c0-0.1,0-0.2,0-0.2c0-0.4-0.1-0.7-0.3-0.9c-0.2-0.2-0.4-0.3-0.7-0.3
		c-0.4,0-0.7,0.2-1,0.5C21,16.5,20.8,16.9,20.7,17.5L20.7,17.5z M20.6,17.9c0,0.1,0,0.2,0,0.3c0,0.1,0,0.2,0,0.3
		c0,0.5,0.1,0.9,0.4,1.2c0.2,0.3,0.6,0.4,1,0.4c0.3,0,0.6-0.1,0.8-0.2c0.3-0.1,0.5-0.3,0.8-0.6l0.1,0.1c-0.1,0.1-0.1,0.2-0.1,0.3
		c0,0.1-0.1,0.2-0.1,0.4c-0.3,0.2-0.6,0.3-0.9,0.4c-0.3,0.1-0.6,0.1-0.8,0.1c-0.7,0-1.2-0.2-1.6-0.6c-0.4-0.4-0.6-1-0.6-1.7
		c0-0.9,0.3-1.6,0.8-2.2c0.5-0.6,1.2-0.9,2-0.9c0.6,0,1,0.2,1.4,0.6c0.3,0.4,0.5,0.9,0.5,1.5c0,0,0,0.1,0,0.2c0,0.1,0,0.2,0,0.4
		c-0.1,0-0.1,0-0.2,0c-0.8,0-1.3,0-1.7,0c-0.1,0-0.3,0-0.7,0C21.2,17.9,20.9,17.9,20.6,17.9L20.6,17.9z M24.2,20.6
		c0.3-1,0.5-1.9,0.6-2.8c0.2-0.9,0.3-1.7,0.3-2.3c0.1,0,0.2,0,0.3,0c0.1,0,0.1,0,0.2,0c0.1,0,0.2,0,0.2,0c0.1,0,0.2,0,0.3,0
		C26,15.6,26,15.7,26,15.9c0,0.2-0.1,0.3-0.1,0.5c0.2-0.4,0.5-0.6,0.7-0.8c0.3-0.2,0.5-0.3,0.8-0.3c0,0,0.1,0,0.1,0c0,0,0.1,0,0.1,0
		c0,0.1-0.1,0.3-0.1,0.4c0,0.2,0,0.3,0,0.4c-0.1,0-0.2,0-0.3-0.1c-0.1,0-0.1,0-0.2,0c-0.5,0-0.9,0.3-1.1,0.9
		c-0.3,0.6-0.5,1.8-0.7,3.5c-0.1,0-0.2,0-0.3,0c-0.1,0-0.2,0-0.2,0c0,0-0.1,0-0.2,0C24.5,20.5,24.4,20.5,24.2,20.6L24.2,20.6z
		 M31.2,20.3c-0.2,0.1-0.5,0.3-0.8,0.3c-0.3,0.1-0.5,0.1-0.8,0.1c-0.7,0-1.2-0.2-1.6-0.6c-0.4-0.4-0.6-1-0.6-1.7
		c0-0.9,0.3-1.6,0.8-2.2c0.5-0.6,1.2-0.9,2.1-0.9c0.4,0,0.7,0,1,0.1c0.3,0.1,0.6,0.2,0.8,0.3c-0.1,0.1-0.1,0.3-0.2,0.4
		c-0.1,0.2-0.1,0.3-0.1,0.5l-0.2,0c-0.1-0.3-0.3-0.5-0.5-0.7c-0.2-0.2-0.5-0.2-0.7-0.2c-0.6,0-1,0.3-1.4,0.8c-0.4,0.5-0.6,1.2-0.6,2
		c0,0.5,0.1,1,0.4,1.3c0.2,0.3,0.6,0.4,1.1,0.4c0.3,0,0.6-0.1,0.9-0.2c0.3-0.1,0.5-0.3,0.7-0.5l0.1,0.1c-0.1,0.1-0.1,0.2-0.1,0.3
		C31.2,20,31.2,20.1,31.2,20.3L31.2,20.3z M34.4,19.8c-0.2,0.3-0.5,0.5-0.7,0.6c-0.3,0.1-0.5,0.2-0.8,0.2c-0.4,0-0.7-0.1-1-0.3
		c-0.2-0.2-0.4-0.5-0.4-0.9c0-0.5,0.2-0.9,0.5-1.1c0.3-0.3,0.9-0.5,1.7-0.6l0.9-0.2c0.1,0,0.2-0.1,0.3-0.3C35,17,35,16.8,35,16.6
		c0-0.3-0.1-0.5-0.2-0.6c-0.2-0.2-0.4-0.2-0.7-0.2c-0.3,0-0.6,0.1-0.8,0.2c-0.2,0.1-0.4,0.4-0.6,0.6l-0.2,0c0-0.1,0-0.2,0.1-0.3
		c0-0.1,0-0.2,0-0.3c0,0,0,0,0-0.1c0,0,0-0.1,0-0.1c0.3-0.2,0.5-0.3,0.8-0.3c0.3-0.1,0.5-0.1,0.8-0.1c0.5,0,0.9,0.1,1.2,0.3
		c0.3,0.2,0.4,0.6,0.4,1c0,0.1,0,0.3,0,0.5c0,0.2-0.1,0.4-0.1,0.6l-0.4,1.8c0,0.1,0,0.2,0,0.2c0,0.1,0,0.1,0,0.2
		c0,0.1,0,0.2,0.1,0.2c0.1,0.1,0.1,0.1,0.2,0.1c0,0,0.1,0,0.1,0c0,0,0.1,0,0.2-0.1l0.1,0.3c-0.2,0.1-0.3,0.2-0.5,0.2
		c-0.1,0-0.3,0.1-0.4,0.1c-0.2,0-0.4-0.1-0.5-0.2C34.5,20.3,34.4,20.1,34.4,19.8L34.4,19.8z M34.8,17.8L33.9,18
		c-0.5,0.1-0.9,0.3-1.1,0.5c-0.2,0.2-0.3,0.5-0.3,0.8c0,0.2,0.1,0.4,0.2,0.6c0.1,0.1,0.3,0.2,0.5,0.2c0.3,0,0.6-0.1,0.8-0.3
		c0.3-0.2,0.4-0.5,0.5-0.8L34.8,17.8L34.8,17.8z M36.2,20.6c0.3-1,0.5-1.9,0.6-2.8c0.2-0.9,0.3-1.7,0.3-2.3c0.1,0,0.2,0,0.3,0
		c0.1,0,0.1,0,0.2,0c0.1,0,0.2,0,0.2,0c0.1,0,0.2,0,0.3,0C38,15.6,38,15.7,38,15.9c0,0.2-0.1,0.3-0.1,0.5c0.2-0.4,0.5-0.6,0.7-0.8
		c0.3-0.2,0.5-0.3,0.8-0.3c0,0,0.1,0,0.1,0c0,0,0.1,0,0.1,0c0,0.1-0.1,0.3-0.1,0.4c0,0.2,0,0.3,0,0.4c-0.1,0-0.2,0-0.3-0.1
		c-0.1,0-0.1,0-0.2,0c-0.5,0-0.9,0.3-1.1,0.9c-0.3,0.6-0.5,1.8-0.7,3.5c-0.1,0-0.2,0-0.3,0c-0.1,0-0.2,0-0.2,0c0,0-0.1,0-0.2,0
		C36.5,20.5,36.4,20.5,36.2,20.6L36.2,20.6z M43,19.8c-0.3,0.3-0.6,0.5-0.9,0.7c-0.3,0.1-0.6,0.2-1,0.2c-0.5,0-1-0.2-1.3-0.6
		c-0.3-0.4-0.5-0.9-0.5-1.6c0-0.9,0.3-1.7,0.8-2.3c0.5-0.6,1.2-0.9,2-0.9c0.4,0,0.7,0.1,1,0.3c0.3,0.2,0.5,0.5,0.6,0.8l0.2-1.2
		c0.1-0.5,0.2-1,0.3-1.5c0.1-0.4,0.1-0.9,0.2-1.3c0.1,0,0.2,0,0.3,0.1c0.1,0,0.1,0,0.2,0c0.1,0,0.1,0,0.2,0c0.1,0,0.2,0,0.3,0
		c-0.4,1.3-0.7,2.6-1,4c-0.3,1.4-0.5,2.7-0.7,4.1c-0.1,0-0.2,0-0.2,0c-0.1,0-0.1,0-0.2,0c-0.1,0-0.1,0-0.2,0c-0.1,0-0.2,0-0.3,0
		L43,19.8L43,19.8z M42.2,15.9c-0.5,0-1,0.3-1.3,0.8c-0.4,0.5-0.5,1.2-0.5,2c0,0.5,0.1,0.8,0.3,1.1c0.2,0.2,0.5,0.4,0.8,0.4
		c0.6,0,1-0.3,1.4-0.8c0.4-0.5,0.5-1.2,0.5-2c0-0.5-0.1-0.8-0.3-1.1C42.9,16,42.6,15.9,42.2,15.9L42.2,15.9z"/>
</g>
</svg>
