<?xml version="1.0" encoding="utf-8"?>
<!-- Generator: Adobe Illustrator 21.1.0, SVG Export Plug-In . SVG Version: 6.00 Build 0)  -->
<svg version="1.1" id="Layer_1" xmlns="http://www.w3.org/2000/svg" xmlns:xlink="http://www.w3.org/1999/xlink" x="0px" y="0px"
	 viewBox="0 0 50 35" style="enable-background:new 0 0 50 35;" xml:space="preserve">
<style type="text/css">
	.st0{fill:#F3F2F2;}
	.st1{fill:#0F549D;}
	.st2{fill:#B41F36;}
	.st3{fill:#329947;}
</style>
<path class="st0" d="M47,35H3c-1.7,0-3-1.3-3-3V3c0-1.7,1.3-3,3-3h44c1.7,0,3,1.3,3,3v29C50,33.7,48.7,35,47,35z"/>
<g>
	<path class="st1" d="M9.1,29.5h5.8c2.1,0,4.4-1.9,4.4-4.4V5.4h-5.6C11,5.4,9,7.1,9,9.9L9.1,29.5L9.1,29.5z"/>
	<path class="st2" d="M20.6,29.5h5.8c2.1,0,4.4-1.9,4.4-4.4V5.4h-5.6c-2.6,0-4.6,1.7-4.6,4.5L20.6,29.5L20.6,29.5z"/>
	<path class="st3" d="M32.2,29.6H38c2.1,0,4.5-1.9,4.5-4.4V5.4h-5.7c-2.7,0-4.7,1.7-4.7,4.6L32.2,29.6L32.2,29.6L32.2,29.6z"/>
	<g>
		<path class="st0" d="M9.1,18.2H7.5c0.5,1.8,2.6,3.2,5,3.2c2.2,0,5.2-1.2,5.2-3.5v-4.2H14v4.2c0,1.2-1,2.2-2.3,2.2
			C10.2,20,9.2,19.3,9.1,18.2z"/>
		<path class="st0" d="M41.1,19c0,1-0.8,1.7-1.9,1.7H31v-7.1h8.1c1,0,1.8,0.8,1.8,1.8s-0.8,1.8-1.8,1.8C40.2,17.3,41.1,18.1,41.1,19
			z M34.1,16.9h2.5c0.6,0,1.2-0.6,1.2-1.2c0-0.6-0.6-1.2-1.2-1.2h-2.5V16.9z M36.7,20c0.6,0,1.2-0.6,1.2-1.2c0-0.6-0.6-1.2-1.2-1.2
			h-2.6V20H36.7L36.7,20z"/>
		<path class="st0" d="M29.2,19.5v1.2H23c-1.6,0-3-1-3.4-2.5c-0.7-2.4,1.1-4.6,3.4-4.6h6.2v1.3c-1.5-0.3-2.9-0.5-3.6-0.5
			c-1.5,0-2.8,1.2-2.8,2.8c0,1.5,1.2,2.8,2.8,2.8C26.2,20,27.7,19.9,29.2,19.5z"/>
	</g>
</g>
</svg>
