<?xml version="1.0" encoding="utf-8"?>
<!-- Generator: Adobe Illustrator 21.1.0, SVG Export Plug-In . SVG Version: 6.00 Build 0)  -->
<svg version="1.1" id="Layer_1" xmlns="http://www.w3.org/2000/svg" xmlns:xlink="http://www.w3.org/1999/xlink" x="0px" y="0px"
	 viewBox="0 0 50 35" style="enable-background:new 0 0 50 35;" xml:space="preserve">
<style type="text/css">
	.st0{fill:#E5E5E5;}
	.st1{fill:#EB001B;}
	.st2{fill:#F79E1B;}
	.st3{fill:#FF5F00;}
</style>
<path class="st0" d="M47,35H3c-1.7,0-3-1.3-3-3V3c0-1.7,1.3-3,3-3h44c1.7,0,3,1.3,3,3v29C50,33.6,48.6,35,47,35z"/>
<g>
	<path class="st1" d="M21.2,17.5c0-3.4,1.5-6.5,3.8-8.6c-2.1-1.9-4.8-3-7.8-3c-6.4,0-11.6,5.2-11.6,11.6S10.9,29,17.2,29
		c3,0,5.7-1.1,7.8-3C22.6,23.9,21.2,20.9,21.2,17.5z"/>
	<path class="st2" d="M32.8,5.9c-3,0-5.7,1.1-7.8,3c2.3,2.1,3.8,5.2,3.8,8.6s-1.5,6.5-3.8,8.6c2.1,1.9,4.8,3,7.8,3
		c6.4,0,11.6-5.2,11.6-11.6S39.1,5.9,32.8,5.9z"/>
	<path class="st3" d="M28.9,17.5c0-3.4-1.5-6.5-3.8-8.6c-2.3,2.1-3.8,5.2-3.8,8.6s1.5,6.5,3.8,8.6C27.4,23.9,28.9,20.9,28.9,17.5z"
		/>
</g>
</svg>
