<?xml version="1.0" encoding="utf-8"?>
<!-- Generator: Adobe Illustrator 21.1.0, SVG Export Plug-In . SVG Version: 6.00 Build 0)  -->
<svg version="1.1" id="Layer_1" xmlns="http://www.w3.org/2000/svg" xmlns:xlink="http://www.w3.org/1999/xlink" x="0px" y="0px"
	 viewBox="0 0 50 35" style="enable-background:new 0 0 50 35;" xml:space="preserve">
<style type="text/css">
	.st0{fill:#E5E5E5;}
	.st1{fill:#293688;}
	.st2{fill:#F7981D;}
</style>
<path class="st0" d="M47,35H3c-1.7,0-3-1.3-3-3V3c0-1.7,1.3-3,3-3h44c1.7,0,3,1.3,3,3v29C50,33.6,48.7,35,47,35z"/>
<g>
	<g>
		<polygon class="st1" points="19.3,23.5 21.4,11.6 24.6,11.6 22.6,23.5 		"/>
		<path class="st1" d="M34.3,11.9c-0.6-0.2-1.7-0.5-2.9-0.5c-3.2,0-5.5,1.6-5.5,3.9c0,1.7,1.6,2.7,2.9,3.2c1.3,0.6,1.7,1,1.7,1.5
			c0,0.8-1,1.2-2,1.2c-1.3,0-2-0.2-3.1-0.6L25,20.4l-0.6,2.7c0.8,0.3,2.2,0.6,3.7,0.6c3.4,0,5.7-1.6,5.7-4.1c0-1.4-0.9-2.4-2.8-3.2
			c-1.1-0.6-1.8-0.9-1.8-1.5c0-0.5,0.6-1,1.9-1c1.1,0,1.8,0.2,2.5,0.5l0.3,0.1L34.3,11.9L34.3,11.9z"/>
		<path class="st1" d="M39.9,11.6c-0.8,0-1.4,0.2-1.7,1l-4.9,10.9h3.5l0.7-1.8h4l0.4,1.8h3.2l-2.7-11.9H39.9L39.9,11.6L39.9,11.6z
			 M38.4,19.4c0.3-0.7,1.3-3.3,1.3-3.3s0.3-0.7,0.4-1.1l0.2,1c0,0,0.6,2.9,0.8,3.5L38.4,19.4L38.4,19.4z"/>
		<path class="st1" d="M13.4,19.6l-0.3-1.6c-0.6-1.9-2.5-4-4.5-5l2.9,10.4H15l5.2-11.9h-3.5L13.4,19.6z"/>
	</g>
	<path class="st2" d="M4.9,11.6L4.9,11.6c4.2,1.1,7,3.6,8.1,6.5l-1.2-5.5c-0.2-0.8-0.8-1-1.5-1.1L4.9,11.6L4.9,11.6z"/>
</g>
</svg>
