<?xml version="1.0" encoding="UTF-8" standalone="no"?>
<!-- Created with Inkscape (http://www.inkscape.org/) -->

<svg
   xmlns:dc="http://purl.org/dc/elements/1.1/"
   xmlns:cc="http://creativecommons.org/ns#"
   xmlns:rdf="http://www.w3.org/1999/02/22-rdf-syntax-ns#"
   xmlns:svg="http://www.w3.org/2000/svg"
   xmlns="http://www.w3.org/2000/svg"
   xmlns:sodipodi="http://sodipodi.sourceforge.net/DTD/sodipodi-0.dtd"
   xmlns:inkscape="http://www.inkscape.org/namespaces/inkscape"
   width="2.2835855mm"
   height="3.9646847mm"
   viewBox="0 0 8.091445 14.048095"
   id="svg4188"
   version="1.1"
   inkscape:version="0.91 r13725"
   sodipodi:docname="konduto.svg">
  <defs
     id="defs4190" />
  <sodipodi:namedview
     id="base"
     pagecolor="#ffffff"
     bordercolor="#666666"
     borderopacity="1.0"
     inkscape:pageopacity="0.0"
     inkscape:pageshadow="2"
     inkscape:zoom="11.2"
     inkscape:cx="4.1504796"
     inkscape:cy="7.1409436"
     inkscape:document-units="px"
     inkscape:current-layer="g4747"
     showgrid="false"
     fit-margin-top="0"
     fit-margin-left="0"
     fit-margin-right="0"
     fit-margin-bottom="0"
     inkscape:window-width="1539"
     inkscape:window-height="876"
     inkscape:window-x="61"
     inkscape:window-y="24"
     inkscape:window-maximized="1" />
  <metadata
     id="metadata4193">
    <rdf:RDF>
      <cc:Work
         rdf:about="">
        <dc:format>image/svg+xml</dc:format>
        <dc:type
           rdf:resource="http://purl.org/dc/dcmitype/StillImage" />
        <dc:title></dc:title>
      </cc:Work>
    </rdf:RDF>
  </metadata>
  <g
     inkscape:label="Camada 1"
     inkscape:groupmode="layer"
     id="layer1"
     transform="translate(-392.83701,-478.76674)">
    <g
       id="g4747"
       transform="translate(-214.28576,-25.714286)">
      <g
         id="g4765"
         transform="matrix(0.07936777,0,0,0.07936777,562.66141,470.90806)">
        <path
           sodipodi:nodetypes="sssssssssssssssssssssssss"
           inkscape:connector-curvature="0"
           id="path4761"
           d="m 624.39247,591.64497 c -4.41432,-4.59805 -8.33166,-9.32305 -8.70521,-10.5 -0.42653,-1.34388 -1.50883,-2.1399 -2.90949,-2.1399 -1.53544,0 -6.34365,-4.15403 -15.43261,-13.33292 -7.26127,-7.33311 -13.2023,-13.80933 -13.2023,-14.39159 0,-0.58227 -1.08343,-1.3306 -2.40762,-1.66295 -2.96621,-0.74447 -14.05894,-12.66994 -16.84778,-18.11254 -6.34603,-12.38472 -6.25076,-27.78122 0.2506,-40.5 2.86123,-5.59749 14.69106,-18 17.16886,-18 1.00977,0 1.83594,-0.52518 1.83594,-1.16708 0,-0.64189 5.94103,-7.16689 13.2023,-14.5 9.3193,-9.41151 13.87808,-13.33292 15.5,-13.33292 1.39883,0 2.2977,-0.60038 2.2977,-1.53471 0,-2.1092 16.88795,-19.46529 18.94027,-19.46529 1.71989,0 28.05973,25.93415 28.05973,27.62755 0,0.52894 -6.525,7.43109 -14.5,15.33811 -7.975,7.90703 -14.5,14.70042 -14.5,15.09642 0,0.396 6.525,7.14887 14.5,15.00638 7.975,7.8575 14.5,14.75187 14.5,15.32082 0,0.56895 -6.525,7.55945 -14.5,15.53445 -7.975,7.975 -14.5,14.71199 -14.5,14.97108 0,0.2591 6.4125,6.92658 14.25,14.81662 7.8375,7.89005 14.38817,14.74724 14.55705,15.23821 0.49274,1.43251 -25.88348,28.05036 -27.79572,28.05036 -0.95463,0 -5.34741,-3.76204 -9.76172,-8.3601 z"
           style="fill:#edaece" />
        <path
           sodipodi:nodetypes="scsssssssssssssscsssssssssscssssssscss"
           inkscape:connector-curvature="0"
           id="path4759"
           d="m 598.39286,564.72549 c -6.7375,-6.81932 -12.26267,-12.58364 -12.27816,-12.80959 -0.0155,-0.22596 -0.90479,-2.88583 -1.97623,-5.91083 -1.60583,-4.53372 -1.84486,-4.84117 -1.36055,-1.75 0.51599,3.29342 0.34068,3.75 -1.43987,3.75 -2.98594,0 -12.92411,-11.39176 -16.57559,-19 -2.90979,-6.06285 -3.1196,-7.2398 -3.1196,-17.5 0,-10.31161 0.2012,-11.42478 3.21506,-17.7876 3.49755,-7.38402 13.64635,-18.98203 16.18272,-18.49357 1.15821,0.22305 1.54189,1.7849 1.60382,6.52868 0.0498,3.81648 0.60032,6.72372 1.41901,7.49399 1.10807,1.04254 1.19175,0.74369 0.48765,-1.7415 -1.30725,-4.6141 -0.86502,-10.70508 1.05526,-14.53418 1.6006,-3.19165 23.20338,-25.96582 24.63027,-25.96582 0.34452,0 0.87662,2.42437 1.18244,5.38748 0.76926,7.45339 2.77476,10.84421 12.04224,20.36048 l 8.03232,8.24797 -7.92539,8.15826 c -14.57458,15.0028 -19.57855,19.84581 -20.5054,19.84581 -0.506,0 -0.92,0.8279 -0.92,1.83978 0,1.01187 -3.43809,5.37974 -7.6402,9.70636 -8.36141,8.60918 -11.38798,12.88776 -11.28542,15.95386 0.0416,1.24334 0.81541,0.2975 2.04534,-2.5 1.92233,-4.37235 16.25555,-20 18.34341,-20 1.28178,0 27.53687,26.14465 27.53687,27.42104 0,0.52185 -3.80719,4.83946 -8.46041,9.59467 -9.25751,9.46041 -10.4867,11.64558 -11.41559,20.29388 l -0.624,5.8096 z m 2.75,-57.09798 c 0,-0.20765 -0.7875,-0.99515 -1.75,-1.75 -1.58606,-1.24387 -1.62143,-1.2085 -0.37756,0.37756 1.30637,1.66575 2.12756,2.19548 2.12756,1.37244 z m -4,-3.91003 c 0,-0.15818 -2.3625,-2.52068 -5.25,-5.25 l -5.25,-4.96241 4.96241,5.25 c 4.61116,4.87839 5.53759,5.7086 5.53759,4.96241 z"
           style="fill:#a693b4" />
        <path
           sodipodi:nodetypes="ssssssscscscssssscccssscsssss"
           inkscape:connector-curvature="0"
           id="path4757"
           d="m 598.70142,564.50507 c -13.99013,-14.16868 -16.22769,-18.94899 -13.48789,-28.81551 1.05546,-3.8009 13.05171,-17.60925 17.25066,-19.85646 1.68753,-0.90314 3.61554,0.6334 14.80939,11.8024 7.0781,7.06239 12.86928,13.47626 12.86928,14.25303 0,0.77678 -3.792,5.34592 -8.42667,10.15366 -8.3999,8.71356 -8.64998,9.1555 -11.29636,19.96288 l -0.85703,3.5 z m -23.93248,-23 c -17.52418,-18.25909 -17.52864,-42.56552 -0.0111,-60.18615 l 5.77986,-5.81385 0.6364,6 c 0.84984,8.0124 2.69163,11.21666 12.05069,20.96527 4.35492,4.53619 7.91804,8.66098 7.91804,9.1662 0,0.50522 -3.40904,4.28232 -7.57564,8.39356 -8.90661,8.78825 -11.51797,13.31254 -12.39506,21.47497 l -0.64472,6 -5.7585,-6 z m 21.30273,-40.13892 c -8.60818,-8.3105 -10.83801,-11.79878 -11.58752,-18.12719 -0.88942,-7.50983 1.73789,-12.17438 13.90259,-24.6828 6.14761,-6.32131 10.98356,-10.52856 11.6374,-10.12446 0.6153,0.38027 1.11872,2.2543 1.11872,4.16451 0,5.80482 2.7168,10.48218 11.04355,19.01302 4.37605,4.48331 7.95645,8.80633 7.95645,9.6067 0,1.27254 -22.61466,24.19688 -25.83091,26.18463 -0.76224,0.47109 -3.82487,-1.7717 -8.24028,-6.03441 z"
           style="fill:#b85d9e" />
        <path
           sodipodi:nodetypes="cscsssssccc"
           inkscape:connector-curvature="0"
           id="path4755"
           d="m 574.76195,541.50507 c -17.5172,-18.27401 -17.51885,-42.56834 -0.004,-60.18615 l 5.77986,-5.81385 0.67656,6 c 1.0015,8.88167 2.18767,11.0004 11.46816,20.48429 4.65322,4.75521 8.46041,9.07712 8.46041,9.60424 0,0.52711 -3.63271,4.54783 -8.07268,8.93493 -9.61735,9.50281 -10.89661,11.70326 -11.83776,20.36203 l -0.71896,6.61451 -5.75151,-6 z"
           style="fill:#74598a" />
        <path
           sodipodi:nodetypes="ssscsscsscs"
           inkscape:connector-curvature="0"
           id="path4753"
           d="m 573.84382,539.34512 c -6.25447,-7.29846 -9.3232,-13.50697 -10.76309,-21.77541 -2.16977,-12.45978 2.32531,-25.60419 11.97845,-35.02705 l 5.08368,-4.96241 0,3.34639 c 0,7.29862 2.16991,11.29714 11.22067,20.67651 4.82863,5.00395 8.77862,9.50395 8.77774,10 -8.7e-4,0.49606 -3.58161,4.4569 -7.95721,8.80187 -8.74976,8.68852 -11.14711,12.7088 -11.83687,19.85005 -0.25233,2.6125 -0.73904,4.73653 -1.08156,4.72007 -0.34252,-0.0165 -2.78234,-2.54998 -5.42181,-5.63002 z"
           style="fill:#4a2668" />
        <path
           sodipodi:nodetypes="ssssscsscsss"
           inkscape:connector-curvature="0"
           id="path4751"
           d="m 574.25322,538.45188 c -2.41431,-2.72074 -5.75862,-7.84351 -7.43182,-11.38393 -2.70658,-5.72699 -3.04218,-7.45783 -3.04218,-15.68981 0,-8.62063 0.24734,-9.75209 3.62073,-16.56289 1.9914,-4.0206 5.38323,-9.02555 7.5374,-11.12211 l 3.91668,-3.81193 0.62765,4.57916 c 0.90712,6.6182 2.81354,9.67659 11.69752,18.76579 l 7.92825,8.11142 -8.34209,8.6536 c -8.22591,8.53307 -10.84987,13.18707 -11.81783,20.9607 -0.28692,2.30425 -0.56043,2.15859 -4.69431,-2.5 z"
           style="fill:#3b0d62" />
      </g>
    </g>
  </g>
</svg>
