<?xml version="1.0" encoding="UTF-8" standalone="no"?>
<!-- Created with Inkscape (http://www.inkscape.org/) -->

<svg
   xmlns:dc="http://purl.org/dc/elements/1.1/"
   xmlns:cc="http://creativecommons.org/ns#"
   xmlns:rdf="http://www.w3.org/1999/02/22-rdf-syntax-ns#"
   xmlns:svg="http://www.w3.org/2000/svg"
   xmlns="http://www.w3.org/2000/svg"
   xmlns:sodipodi="http://sodipodi.sourceforge.net/DTD/sodipodi-0.dtd"
   xmlns:inkscape="http://www.inkscape.org/namespaces/inkscape"
   id="svg3336"
   version="1.1"
   inkscape:version="0.91 r13725"
   width="13.681451"
   height="12.06646"
   viewBox="0 0 13.681451 12.06646"
   sodipodi:docname="rexlab.svg">
  <metadata
     id="metadata3342">
    <rdf:RDF>
      <cc:Work
         rdf:about="">
        <dc:format>image/svg+xml</dc:format>
        <dc:type
           rdf:resource="http://purl.org/dc/dcmitype/StillImage" />
        <dc:title></dc:title>
      </cc:Work>
    </rdf:RDF>
  </metadata>
  <defs
     id="defs3340" />
  <sodipodi:namedview
     pagecolor="#ffffff"
     bordercolor="#666666"
     borderopacity="1"
     objecttolerance="10"
     gridtolerance="10"
     guidetolerance="10"
     inkscape:pageopacity="0"
     inkscape:pageshadow="2"
     inkscape:window-width="1539"
     inkscape:window-height="876"
     id="namedview3338"
     showgrid="false"
     inkscape:zoom="30.966039"
     inkscape:cx="4.604668"
     inkscape:cy="5.9328608"
     inkscape:window-x="61"
     inkscape:window-y="24"
     inkscape:window-maximized="1"
     inkscape:current-layer="svg3336"
     fit-margin-top="0"
     fit-margin-left="0"
     fit-margin-right="0"
     fit-margin-bottom="0" />
  <g
     id="g4159"
     transform="matrix(0.02006844,0,0,0.02006844,-20.024848,-18.520603)">
    <g
       transform="translate(-227.34583,880.44842)"
       id="g4141">
      <path
         sodipodi:nodetypes="sssscssssssccssscscscssscsscscsssssss"
         inkscape:connector-curvature="0"
         id="path4155"
         d="m 1519,642.83334 c -2.7317,-0.7698 -16.2313,-13.66964 -61.5,-58.76777 -31.9,-31.77982 -60.025,-59.13487 -62.5,-60.789 -6.8132,-4.55351 -13.6087,-7.75176 -23,-10.82474 l -8.5,-2.78134 -50,-0.75812 c -54.6449,-0.82856 -56.1313,-0.99004 -66.8311,-7.26051 -9.5106,-5.57361 -17.861,-17.50539 -20.6756,-29.5432 -1.5664,-6.6993 -0.8103,-18.02854 1.609,-24.10866 0.9848,-2.475 9.4113,-17.775 18.7256,-34 9.3142,-16.225 59.8856,-104.65 112.3809,-196.5 59.8023,-104.63506 96.694,-168.191215 98.7882,-170.189819 8.5253,-8.136364 23.1635,-5.776479 28.4504,4.586619 1.7701,3.469786 1.9525,7.451912 2.6291,57.41579 0.5435,40.12863 1.0246,53.68741 1.9053,53.68741 0.6481,0 10.307,-16.9875 21.4642,-37.75 11.1572,-20.7625 21.4712,-39.027674 22.92,-40.589276 3.8341,-4.1329 7.3763,-5.660724 13.1242,-5.660724 8.7655,0 15.7427,5.095186 18.0649,13.192151 0.5701,1.987927 0.1921,33.293239 -1.0063,83.331679 -1.4147,59.06716 -1.6337,81.27364 -0.8328,84.42885 2.0291,7.99424 5.6342,10.48934 39.784,27.53462 17.325,8.64748 32.3336,16.46188 33.3524,17.36533 4.2899,3.80419 5.0265,7.03344 5.5971,24.53661 l 0.5505,16.88924 3.5,2.92512 c 1.925,1.60881 58.3944,29.85011 125.4875,62.75845 67.0932,32.90833 123.6333,61.21495 125.6446,62.90361 8.4422,7.0876 11.1946,19.6159 6.5107,29.63434 -3.0494,6.52228 -38.3378,53.22711 -43.6556,57.779 -2.2574,1.93217 -6.0772,4.00983 -8.4885,4.61702 -3.0914,0.77842 -44.7281,1.10562 -141.1915,1.10956 -96.6321,0.004 -137.9818,0.32952 -140.8072,1.10871 -2.9441,0.81195 -6.1512,3.27992 -12.1494,9.34958 -11.7585,11.89848 -11.6532,11.61086 -12.3025,33.61226 -0.5324,18.043 -0.6251,18.69238 -3.231,22.62709 -4.8609,7.33974 -14.7014,10.69887 -23.8171,8.13012 z"
         style="fill:#cde5aa" />
      <path
         sodipodi:nodetypes="sscsssssssscsccsssssssssscssssccsscsccs"
         inkscape:connector-curvature="0"
         id="path4153"
         d="m 1519.5792,641.51522 c -3.0512,-1.08716 -16.4692,-13.90358 -60.5,-57.78799 -31.1186,-31.01506 -58.8725,-58.0292 -61.6755,-60.03143 -6.5291,-4.66399 -20.1993,-11.1759 -27.9037,-13.29217 -6.869,-1.8868 -38.6857,-3.19901 -80.6447,-3.32601 -22.7269,-0.0688 -26.3853,-0.30639 -32.1545,-2.08831 -12.5513,-3.87672 -23.7691,-15.03923 -28.3662,-28.22658 -2.8285,-8.11375 -2.4699,-21.53576 0.7817,-29.26273 1.3887,-3.3 18.9417,-34.575 39.0067,-69.5 20.065,-34.925 70.6466,-123.29785 112.4035,-196.3841 84.141,-147.270144 78.1108,-137.901614 88.762,-137.901614 7.8413,0 14.1509,4.018417 16.6449,10.600814 0.7055,1.861943 1.0666,20.33487 1.0666,54.55887 0,43.49558 0.2298,52.0532 1.4414,53.6849 1.0847,1.46071 1.8449,1.69363 3.0716,0.94113 0.8965,-0.55 10.9354,-18.2684 22.3085,-39.37423 15.4166,-28.609427 21.5125,-39.016804 23.9561,-40.899446 3.8883,-2.995738 11.2975,-4.016686 16.5558,-2.281296 4.2643,1.407325 9.2115,6.741944 10.4587,11.277638 0.5551,2.018774 0.1715,33.998874 -0.9989,83.277334 -1.0451,44 -1.6456,81.38305 -1.3345,83.07344 0.3111,1.69039 1.8772,5.14153 3.4802,7.6692 2.8163,4.44079 4.0592,5.17103 36.8593,21.65595 24.9461,12.53756 34.4428,17.79467 35.8233,19.8308 1.5874,2.34133 1.9579,5.3271 2.3909,19.27061 0.5511,17.74545 1.4197,21.08743 6.3142,24.2944 1.3358,0.87527 49.839,24.84237 107.7848,53.26023 146.0706,71.63611 139.8519,68.46073 144.5689,73.81956 6.5266,7.41462 7.9084,15.45245 4.27,24.8383 -1.311,3.38185 -9.1499,14.64678 -21.75,31.25605 -15.922,20.98801 -20.6441,26.54995 -24.6215,29 l -4.9211,3.03146 -141.0789,0.5 c -129.6034,0.45933 -141.3228,0.63643 -144.0788,2.17732 -4.1339,2.31132 -17.8909,16.55006 -20.1181,20.82268 -1.4942,2.86663 -1.9227,6.75733 -2.3676,21.5 -0.5943,19.69486 -1.1799,21.93722 -7.0094,26.84245 -3.073,2.5857 -8.756,4.6799 -12.5049,4.60808 -1.1,-0.0211 -3.7644,-0.66696 -5.9208,-1.43531 z"
         style="fill:#9ecd57" />
      <path
         sodipodi:nodetypes="sscsssssssscsccsssssssssscssssccsscsccs"
         inkscape:connector-curvature="0"
         id="path4151"
         d="m 1519.5792,641.51522 c -3.0512,-1.08716 -16.4692,-13.90358 -60.5,-57.78799 -31.1186,-31.01506 -58.8725,-58.0292 -61.6755,-60.03143 -6.5291,-4.66399 -20.1993,-11.1759 -27.9037,-13.29217 -6.869,-1.8868 -38.6857,-3.19901 -80.6447,-3.32601 -22.7269,-0.0688 -26.3853,-0.30639 -32.1545,-2.08831 -12.5513,-3.87672 -23.7691,-15.03923 -28.3662,-28.22658 -2.8285,-8.11375 -2.4699,-21.53576 0.7817,-29.26273 1.3887,-3.3 18.9417,-34.575 39.0067,-69.5 20.065,-34.925 70.6466,-123.29785 112.4035,-196.3841 84.141,-147.270144 78.1108,-137.901614 88.762,-137.901614 7.8413,0 14.1509,4.018417 16.6449,10.600814 0.7055,1.861943 1.0666,20.33487 1.0666,54.55887 0,43.49558 0.2298,52.0532 1.4414,53.6849 1.0847,1.46071 1.8449,1.69363 3.0716,0.94113 0.8965,-0.55 10.9354,-18.2684 22.3085,-39.37423 15.4166,-28.609427 21.5125,-39.016804 23.9561,-40.899446 3.8883,-2.995738 11.2975,-4.016686 16.5558,-2.281296 4.2643,1.407325 9.2115,6.741944 10.4587,11.277638 0.5551,2.018774 0.1715,33.998874 -0.9989,83.277334 -1.0451,44 -1.6456,81.38305 -1.3345,83.07344 0.3111,1.69039 1.8772,5.14153 3.4802,7.6692 2.8163,4.44079 4.0592,5.17103 36.8593,21.65595 24.9461,12.53756 34.4428,17.79467 35.8233,19.8308 1.5874,2.34133 1.9579,5.3271 2.3909,19.27061 0.5511,17.74545 1.4197,21.08743 6.3142,24.2944 1.3358,0.87527 49.839,24.84237 107.7848,53.26023 146.0706,71.63611 139.8519,68.46073 144.5689,73.81956 6.5266,7.41462 7.9084,15.45245 4.27,24.8383 -1.311,3.38185 -9.1499,14.64678 -21.75,31.25605 -15.922,20.98801 -20.6441,26.54995 -24.6215,29 l -4.9211,3.03146 -141.0789,0.5 c -129.6034,0.45933 -141.3228,0.63643 -144.0788,2.17732 -4.1339,2.31132 -17.8909,16.55006 -20.1181,20.82268 -1.4942,2.86663 -1.9227,6.75733 -2.3676,21.5 -0.5943,19.69486 -1.1799,21.93722 -7.0094,26.84245 -3.073,2.5857 -8.756,4.6799 -12.5049,4.60808 -1.1,-0.0211 -3.7644,-0.66696 -5.9208,-1.43531 z"
         style="fill:#8fc53d" />
      <path
         sodipodi:nodetypes="sscsssssssscsccsssssssssscssssccsscsccsssssssssscsscssssscssccs"
         inkscape:connector-curvature="0"
         id="path4149"
         d="m 1519.5792,641.51522 c -3.0512,-1.08716 -16.4692,-13.90358 -60.5,-57.78799 -31.1186,-31.01506 -58.8725,-58.0292 -61.6755,-60.03143 -6.5291,-4.66399 -20.1993,-11.1759 -27.9037,-13.29217 -6.869,-1.8868 -38.6857,-3.19901 -80.6447,-3.32601 -22.7269,-0.0688 -26.3853,-0.30639 -32.1545,-2.08831 -12.5513,-3.87672 -23.7691,-15.03923 -28.3662,-28.22658 -2.8285,-8.11375 -2.4699,-21.53576 0.7817,-29.26273 1.3887,-3.3 18.9417,-34.575 39.0067,-69.5 20.065,-34.925 70.6466,-123.29785 112.4035,-196.3841 84.141,-147.270144 78.1108,-137.901614 88.762,-137.901614 7.8413,0 14.1509,4.018417 16.6449,10.600814 0.7055,1.861943 1.0666,20.33487 1.0666,54.55887 0,43.49558 0.2298,52.0532 1.4414,53.6849 1.0847,1.46071 1.8449,1.69363 3.0716,0.94113 0.8965,-0.55 10.9354,-18.2684 22.3085,-39.37423 15.4166,-28.609427 21.5125,-39.016804 23.9561,-40.899446 3.8883,-2.995738 11.2975,-4.016686 16.5558,-2.281296 4.2643,1.407325 9.2115,6.741944 10.4587,11.277638 0.5551,2.018774 0.1715,33.998874 -0.9989,83.277334 -1.0451,44 -1.6456,81.38305 -1.3345,83.07344 0.3111,1.69039 1.8772,5.14153 3.4802,7.6692 2.8163,4.44079 4.0592,5.17103 36.8593,21.65595 24.9461,12.53756 34.4428,17.79467 35.8233,19.8308 1.5874,2.34133 1.9579,5.3271 2.3909,19.27061 0.5511,17.74545 1.4197,21.08743 6.3142,24.2944 1.3358,0.87527 49.839,24.84237 107.7848,53.26023 146.0706,71.63611 139.8519,68.46073 144.5689,73.81956 6.5266,7.41462 7.9084,15.45245 4.27,24.8383 -1.311,3.38185 -9.1499,14.64678 -21.75,31.25605 -15.922,20.98801 -20.6441,26.54995 -24.6215,29 l -4.9211,3.03146 -141.0789,0.5 c -129.6034,0.45933 -141.3228,0.63643 -144.0788,2.17732 -4.1339,2.31132 -17.8909,16.55006 -20.1181,20.82268 -1.4942,2.86663 -1.9227,6.75733 -2.3676,21.5 -0.5943,19.69486 -1.1799,21.93722 -7.0094,26.84245 -3.073,2.5857 -8.756,4.6799 -12.5049,4.60808 -1.1,-0.0211 -3.7644,-0.66696 -5.9208,-1.43531 z m 78.989,-156.54116 c 3.3339,-1.26754 17.0247,-14.38756 19.2778,-18.47406 1.4931,-2.70808 1.654,-9.6169 1.654,-71 0,-74.84771 0.3467,-70.53206 -6.1607,-76.6843 -1.5616,-1.47636 -21.2821,-11.82636 -43.8233,-23 -43.9958,-21.80867 -45.6517,-22.39382 -51.8596,-18.32622 -5.7445,3.76394 -6.1107,5.63515 -6.6564,34.01052 -0.444,23.08562 -0.7171,26.43754 -2.4367,29.9034 -2.4696,4.9774 -7.4544,9.96212 -12.8399,12.83983 L 1491.5,356.5 1401,357 c -100.579,0.55568 -93.9701,0.0733 -99.3209,7.24895 -2.9424,3.94581 -49.2493,84.59662 -51.8142,90.2427 -4.1048,9.03549 -0.546,21.09527 7.9682,27.00216 4.0415,2.80384 5.1184,3.04488 16,3.58095 22.0034,1.08397 321.8638,0.99099 324.7351,-0.1007 z m -42.2494,-86.86621 C 1542.2242,391.21531 1542,390.84277 1542,374.31969 c 0,-12.80743 0.1075,-13.51812 2.3905,-15.80106 3.3197,-3.31975 21.9725,-12.52218 25.3413,-12.50225 3.853,0.0228 24.2236,11.11817 25.8716,14.09162 1.7627,3.18035 1.864,25.38633 0.1319,28.892 -1.5504,3.13769 -21.8495,13.90294 -26.324,13.96036 -1.7353,0.0223 -7.472,-2.10394 -13.0925,-4.85251 z"
         style="fill:#798590" />
      <path
         sodipodi:nodetypes="sssssccssssssscssssssscsssssssssssssssssssscsscssssscssccs"
         inkscape:connector-curvature="0"
         id="path4147"
         d="m 1517.5,639.85059 c -1.1,-0.59873 -27.875,-26.84919 -59.5,-58.33436 -31.625,-31.48517 -59.6714,-58.70157 -62.3253,-60.48088 -7.1973,-4.82534 -18.4961,-9.7644 -27.8568,-12.17708 -7.753,-1.99828 -11.6799,-2.18812 -57.8179,-2.79507 -43.63,-0.57396 -50.0298,-0.85732 -53.9672,-2.38948 -7.4096,-2.8832 -12.5595,-6.35349 -17.3718,-11.70582 -10.6654,-11.86258 -13.995,-27.86627 -8.9332,-42.93862 0.8258,-2.45889 12.6376,-23.83389 26.2485,-47.5 13.6109,-23.6661 63.5503,-110.97928 110.9765,-194.02928 47.4262,-83.05 87.3314,-152.705067 88.6783,-154.789037 3.4084,-5.273526 7.7845,-7.702679 13.8845,-7.707225 6.844,-0.0051 11.4441,2.590623 14.2344,8.032144 2.2484,4.384759 2.25,4.425164 2.25,56.484878 0,55.96048 0.01,56.04585 4.9972,55.32421 2.0159,-0.29156 5.5684,-6.25215 22.944,-38.49661 11.3073,-20.9834 21.4588,-39.158009 22.5588,-40.388016 6.4739,-7.238997 20.2241,-5.99685 25.3455,2.28961 2.7086,4.382639 2.7038,3.487756 0.5234,97.020726 -1.2606,54.07786 -1.3943,72.70117 -0.5422,75.54522 2.6072,8.70204 5.8388,10.95032 41.2981,28.73167 27.6102,13.84537 33.264,17.04208 34.9071,19.73685 1.7135,2.8103 1.9611,5.07865 1.9644,17.9977 0,15.92387 0.7792,19.40608 5.2334,23.50933 1.3681,1.2603 57.5636,29.30845 124.8789,62.32923 67.3153,33.02078 123.9664,61.27985 125.8914,62.79794 8.717,6.87437 11.1614,19.49026 5.7316,29.58138 -3.8185,7.09661 -38.528,52.29687 -42.7412,55.65951 -2.0901,1.66817 -5.6843,3.2135 -8.8865,3.82078 -3.4892,0.66172 -53.3154,1.01971 -141.9247,1.01971 -157.8752,0 -139.7326,-1.42311 -152.5226,11.96398 -11.1194,11.63862 -11.0133,11.3371 -11.6304,33.03602 -0.5978,21.01641 -1.4241,23.60723 -8.8629,27.78809 -4.3459,2.44249 -14.0549,3.02652 -17.6633,1.0625 z m 81.0682,-154.87653 c 3.3339,-1.26754 17.0247,-14.38756 19.2778,-18.47406 1.4931,-2.70808 1.654,-9.6169 1.654,-71 0,-74.84771 0.3467,-70.53206 -6.1607,-76.6843 -1.5616,-1.47636 -21.2821,-11.82636 -43.8233,-23 -43.9958,-21.80867 -45.6517,-22.39382 -51.8596,-18.32622 -5.7445,3.76394 -6.1107,5.63515 -6.6564,34.01052 -0.444,23.08562 -0.7171,26.43754 -2.4367,29.9034 -2.4696,4.9774 -7.4544,9.96212 -12.8399,12.83983 L 1491.5,356.5 1401,357 c -100.579,0.55568 -93.9701,0.0733 -99.3209,7.24895 -2.9424,3.94581 -49.2493,84.59662 -51.8142,90.2427 -4.1048,9.03549 -0.546,21.09527 7.9682,27.00216 4.0415,2.80384 5.1184,3.04488 16,3.58095 22.0034,1.08397 321.8638,0.99099 324.7351,-0.1007 z m -42.2494,-86.86621 C 1542.2242,391.21531 1542,390.84277 1542,374.31969 c 0,-12.80743 0.1075,-13.51812 2.3905,-15.80106 3.3197,-3.31975 21.9725,-12.52218 25.3413,-12.50225 3.853,0.0228 24.2236,11.11817 25.8716,14.09162 1.7627,3.18035 1.864,25.38633 0.1319,28.892 -1.5504,3.13769 -21.8495,13.90294 -26.324,13.96036 -1.7353,0.0223 -7.472,-2.10394 -13.0925,-4.85251 z"
         style="fill:#6a7884" />
      <path
         sodipodi:nodetypes="ssssssssssscscssscsccssscssssscsssssssssssssscsscssssscssccs"
         inkscape:connector-curvature="0"
         id="path4145"
         d="m 1519,639.42076 c -2.2202,-0.95213 -24.342,-22.27885 -60.5,-58.32555 -31.35,-31.25353 -59.172,-58.28085 -61.8267,-60.06072 -2.6547,-1.77986 -8.5047,-4.95309 -13,-7.05163 -15.4072,-7.19249 -14.7596,-7.11838 -69.815,-7.99107 -41.8963,-0.66411 -50.5557,-1.04959 -55.5,-2.47064 -22.4187,-6.44345 -35.3073,-30.68782 -28.4528,-53.52197 0.578,-1.92545 8.5438,-16.55045 17.7019,-32.5 9.158,-15.94955 59.6052,-104.14918 112.1048,-195.99918 52.4996,-91.85 96.2318,-168.097195 97.1826,-169.438211 6.3762,-8.992981 19.7759,-9.102029 25.6029,-0.20836 l 2.3892,3.646571 0.71,54.29694 c 0.6769,51.76682 0.7978,54.34393 2.5943,55.3054 1.0364,0.55465 2.742,0.73624 3.7903,0.40353 1.2528,-0.39762 8.989,-13.77991 22.5749,-39.05077 C 1537.9657,82.912095 1538.6451,82 1547.6668,82 c 8.2356,0 13.9164,4.026664 15.6557,11.096987 0.3513,1.428342 -0.2303,38.858823 -1.2925,83.178843 -1.065,44.44087 -1.5608,81.87335 -1.1054,83.46143 1.2849,4.47997 3.6385,8.53059 6.5442,11.26274 1.4624,1.375 17.3525,9.925 35.3115,19 23.4853,11.86756 33.2236,17.29264 34.6862,19.32324 1.8009,2.50026 2.0681,4.61669 2.3361,18.5 0.3259,16.88892 0.9038,19.58934 5.0201,23.45827 1.4725,1.38406 57.8023,29.54071 125.1773,62.57035 67.375,33.02963 124.1406,61.41111 126.1458,63.06996 6.911,5.71739 9.7455,16.35448 6.692,25.11365 -1.2321,3.53431 -34.5564,48.80108 -40.7083,55.29695 -7.4165,7.83119 6.7619,7.10945 -150.6295,7.66758 l -141,0.5 -4.568,2.68552 c -5.6395,3.3154 -17.1125,15.32705 -20.1141,21.05838 -1.9882,3.79623 -2.2878,6.20101 -2.7735,22.2561 -0.6271,20.73446 -1.4394,23.19676 -8.9646,27.17623 -5.0292,2.6595 -10.0378,2.90678 -15.0798,0.74453 z m 79.5682,-154.4467 c 3.3339,-1.26754 17.0247,-14.38756 19.2778,-18.47406 1.4931,-2.70808 1.654,-9.6169 1.654,-71 0,-74.84771 0.3467,-70.53206 -6.1607,-76.6843 -1.5616,-1.47636 -21.2821,-11.82636 -43.8233,-23 -43.9958,-21.80867 -45.6517,-22.39382 -51.8596,-18.32622 -5.7445,3.76394 -6.1107,5.63515 -6.6564,34.01052 -0.444,23.08562 -0.7171,26.43754 -2.4367,29.9034 -2.4696,4.9774 -7.4544,9.96212 -12.8399,12.83983 L 1491.5,356.5 1401,357 c -100.579,0.55568 -93.9701,0.0733 -99.3209,7.24895 -2.9424,3.94581 -49.2493,84.59662 -51.8142,90.2427 -4.1048,9.03549 -0.546,21.09527 7.9682,27.00216 4.0415,2.80384 5.1184,3.04488 16,3.58095 22.0034,1.08397 321.8638,0.99099 324.7351,-0.1007 z m -42.2494,-86.86621 C 1542.2242,391.21531 1542,390.84277 1542,374.31969 c 0,-12.80743 0.1075,-13.51812 2.3905,-15.80106 3.3197,-3.31975 21.9725,-12.52218 25.3413,-12.50225 3.853,0.0228 24.2236,11.11817 25.8716,14.09162 1.7627,3.18035 1.864,25.38633 0.1319,28.892 -1.5504,3.13769 -21.8495,13.90294 -26.324,13.96036 -1.7353,0.0223 -7.472,-2.10394 -13.0925,-4.85251 z"
         style="fill:#729458" />
      <path
         sodipodi:nodetypes="ssssssssssscscssscsccssscssssscsssssscscssssssssscccsssscssscsss"
         inkscape:connector-curvature="0"
         id="path4143"
         d="m 1519,639.42076 c -2.2202,-0.95213 -24.342,-22.27885 -60.5,-58.32555 -31.35,-31.25353 -59.172,-58.28085 -61.8267,-60.06072 -2.6547,-1.77986 -8.5047,-4.95309 -13,-7.05163 -15.4072,-7.19249 -14.7596,-7.11838 -69.815,-7.99107 -41.8963,-0.66411 -50.5557,-1.04959 -55.5,-2.47064 -22.4187,-6.44345 -35.3073,-30.68782 -28.4528,-53.52197 0.578,-1.92545 8.5438,-16.55045 17.7019,-32.5 9.158,-15.94955 59.6052,-104.14918 112.1048,-195.99918 52.4996,-91.85 96.2318,-168.097195 97.1826,-169.438211 6.3762,-8.992981 19.7759,-9.102029 25.6029,-0.20836 l 2.3892,3.646571 0.71,54.29694 c 0.6769,51.76682 0.7978,54.34393 2.5943,55.3054 1.0364,0.55465 2.742,0.73624 3.7903,0.40353 1.2528,-0.39762 8.989,-13.77991 22.5749,-39.05077 C 1537.9657,82.912095 1538.6451,82 1547.6668,82 c 8.2356,0 13.9164,4.026664 15.6557,11.096987 0.3513,1.428342 -0.2303,38.858823 -1.2925,83.178843 -1.065,44.44087 -1.5608,81.87335 -1.1054,83.46143 1.2849,4.47997 3.6385,8.53059 6.5442,11.26274 1.4624,1.375 17.3525,9.925 35.3115,19 23.4853,11.86756 33.2236,17.29264 34.6862,19.32324 1.8009,2.50026 2.0681,4.61669 2.3361,18.5 0.3259,16.88892 0.9038,19.58934 5.0201,23.45827 1.4725,1.38406 57.8023,29.54071 125.1773,62.57035 67.375,33.02963 124.1406,61.41111 126.1458,63.06996 6.911,5.71739 9.7455,16.35448 6.692,25.11365 -1.2321,3.53431 -34.5564,48.80108 -40.7083,55.29695 -7.4165,7.83119 6.7619,7.10945 -150.6295,7.66758 l -141,0.5 -4.568,2.68552 c -5.6395,3.3154 -17.1125,15.32705 -20.1141,21.05838 -1.9882,3.79623 -2.2878,6.20101 -2.7735,22.2561 -0.6271,20.73446 -1.4394,23.19676 -8.9646,27.17623 -5.0292,2.6595 -10.0378,2.90678 -15.0798,0.74453 z m 80.9148,-153.46763 c 6.0594,-2.74903 18.6265,-15.65821 20.0695,-20.61574 0.7878,-2.70633 1.0284,-23.9286 0.8164,-72.00182 l -0.3007,-68.16444 -3,-4.33556 c -2.8228,-4.07948 -5.5104,-5.5875 -45.5,-25.53049 -46.2139,-23.04704 -47.7434,-23.58813 -54.6957,-19.34908 -6.5927,4.01982 -6.7481,4.72867 -7.3432,33.49524 -0.4589,22.17648 -0.8099,26.68169 -2.3617,30.3065 -2.2731,5.30971 -10.1118,12.48 -15.3636,14.05346 -2.9326,0.87864 -26.6362,1.19026 -90.8518,1.19438 -60.5571,0.004 -88.095,0.34178 -90.8807,1.11512 -7.2271,2.00635 -10.7746,7.11757 -38.0355,54.80093 l -25.9678,45.42162 0.037,6.57838 c 0.027,4.74686 0.6367,7.71839 2.1911,10.67305 2.335,4.43861 7.9241,9.83722 12.133,11.71941 3.8684,1.72993 44.3894,2.22822 199.1389,2.44883 133.6424,0.19051 135.5605,0.1657 139.9148,-1.80979 z M 1567,400.99161 c -4.2334,-1.18753 -20.5252,-9.71457 -22.0338,-11.53238 -1.8757,-2.26005 -2.6407,-21.2645 -1.0674,-26.51574 1.0509,-3.50749 1.948,-4.20552 12.038,-9.36671 5.9964,-3.06723 12.0719,-5.57678 13.501,-5.57678 3.5396,0 22.0274,9.39834 23.9846,12.19269 1.237,1.76601 1.5776,5.01121 1.5776,15.02982 0,15.28824 0.1961,14.97671 -13.3781,21.24817 -11.5486,5.33556 -11.6291,5.36045 -14.6219,4.52093 z"
         style="fill:#576673" />
    </g>
  </g>
</svg>
