<?xml version="1.0" encoding="UTF-8" standalone="no"?>
<!-- Created with Inkscape (http://www.inkscape.org/) -->

<svg
   xmlns:dc="http://purl.org/dc/elements/1.1/"
   xmlns:cc="http://creativecommons.org/ns#"
   xmlns:rdf="http://www.w3.org/1999/02/22-rdf-syntax-ns#"
   xmlns:svg="http://www.w3.org/2000/svg"
   xmlns="http://www.w3.org/2000/svg"
   xmlns:sodipodi="http://sodipodi.sourceforge.net/DTD/sodipodi-0.dtd"
   xmlns:inkscape="http://www.inkscape.org/namespaces/inkscape"
   id="svg3336"
   version="1.1"
   inkscape:version="0.91 r13725"
   width="1920"
   height="1080"
   viewBox="0 0 1920 1080"
   sodipodi:docname="rex_logo_bw.svg">
  <metadata
     id="metadata3342">
    <rdf:RDF>
      <cc:Work
         rdf:about="">
        <dc:format>image/svg+xml</dc:format>
        <dc:type
           rdf:resource="http://purl.org/dc/dcmitype/StillImage" />
        <dc:title />
      </cc:Work>
    </rdf:RDF>
  </metadata>
  <defs
     id="defs3340" />
  <sodipodi:namedview
     pagecolor="#ffffff"
     bordercolor="#666666"
     borderopacity="1"
     objecttolerance="10"
     gridtolerance="10"
     guidetolerance="10"
     inkscape:pageopacity="0"
     inkscape:pageshadow="2"
     inkscape:window-width="1539"
     inkscape:window-height="876"
     id="namedview3338"
     showgrid="false"
     inkscape:zoom="0.34212963"
     inkscape:cx="-71.285523"
     inkscape:cy="385.40327"
     inkscape:window-x="61"
     inkscape:window-y="24"
     inkscape:window-maximized="1"
     inkscape:current-layer="g3361" />
  <g
     id="g3361"
     transform="translate(-67.225984,-1081.4615)">
    <path
       style="fill:#cccccc"
       d="m 118.18667,2117.9013 c -5.27183,-1.2413 -8.69134,-3.1892 -12.41682,-7.0731 -6.803178,-7.0924 -6.301703,8.4163 -6.290914,-194.5532 l 0.0098,-183.7821 2.347334,-5.0409 c 2.71508,-5.8306 6.76466,-9.5801 12.86144,-11.9085 3.9134,-1.4945 13.03895,-1.6118 99.7895,-1.2826 82.32446,0.3124 96.86647,0.5871 105.52752,1.9938 42.9195,6.971 70.64916,19.5261 92.98493,42.1007 17.90556,18.097 27.80658,36.8249 33.53839,63.4385 2.72527,12.6537 3.73948,42.7666 1.95514,58.0498 -5.10431,43.7194 -25.87405,79.0218 -58.77379,99.8979 -4.58288,2.908 -7.25,5.2583 -7.25,6.3889 0,0.9837 16.00122,26.8927 35.55827,57.5755 l 35.55826,55.7869 -0.37215,5.751 c -0.30357,4.6912 -0.90444,6.3066 -3.26063,8.766 -1.58867,1.6582 -4.61131,3.4788 -6.71698,4.0458 -2.44587,0.6586 -20.33941,0.9237 -49.54763,0.7341 -44.20606,-0.2871 -45.86807,-0.3672 -50.21914,-2.4209 -2.475,-1.1682 -5.90555,-3.6432 -7.62344,-5.5 -1.71792,-1.8568 -13.52984,-23.176 -26.24874,-47.376 -19.32969,-36.7782 -23.86221,-44.6815 -27.61521,-48.1521 -7.20137,-6.6596 -10.54839,-7.3479 -35.73062,-7.3479 -24.6932,0 -27.05194,0.5564 -32.47409,7.6605 l -2.80793,3.6789 -0.5,40.5803 -0.5,40.5803 -3.09312,5.5 c -3.65467,6.4985 -10.74674,11.3635 -18.01829,12.3602 -6.97331,0.9558 -66.30415,0.5765 -70.67109,-0.4518 z m 185.7825,-202.3314 c 20.76318,-6.0341 33.56461,-18.909 38.10821,-38.327 2.0515,-8.7675 2.01655,-26.7776 -0.0671,-34.5791 -5.33651,-19.9804 -18.783,-32.2113 -41.0411,-37.3308 -6.95335,-1.5994 -12.57908,-1.8401 -43,-1.8401 -39.13271,0 -38.67071,-0.075 -44.19831,7.1701 l -2.80169,3.6722 -0.27957,45.4405 -0.27958,45.4405 2.50269,4.2706 c 1.62392,2.771 4.00444,5.0281 6.77958,6.4282 4.19548,2.1167 4.98106,2.1505 41.27688,1.7782 31.45023,-0.3226 37.89996,-0.6411 43,-2.1233 z m 244.2175,202.3314 c -5.58251,-1.3145 -9.02892,-3.3601 -12.69415,-7.5346 -6.47411,-7.3736 -6.02335,7.1839 -6.02335,-194.526 l 0,-184.2164 2.08791,-4.313 c 2.55778,-5.2837 8.5836,-10.6038 13.77053,-12.1579 5.25526,-1.5745 280.80431,-1.6595 286.46234,-0.088 4.71771,1.3101 11.10519,6.9485 14.00164,12.3597 2.03123,3.7948 2.20009,5.6812 2.51253,28.0682 0.214,15.3343 -0.0711,25.844 -0.78972,29.107 -1.53144,6.9542 -5.97436,12.6805 -12.2743,15.8199 l -5.16362,2.5731 -90.15443,0 c -61.70791,0 -91.12729,0.3391 -93.23767,1.0748 -6.03659,2.1044 -6.21521,3.0515 -6.21521,32.9557 0,16.6752 0.39611,27.8411 1.02964,29.0249 2.61446,4.8851 3.31846,4.9446 58.55468,4.9446 36.33075,0 52.83431,0.3447 55.55724,1.1605 5.17565,1.5507 11.70423,7.2902 13.97231,12.2837 1.64398,3.6194 1.84221,6.9611 1.84221,31.0558 0,29.7493 -0.33115,31.6613 -6.56296,37.8931 -6.70006,6.7001 -5.36618,6.5606 -62.9939,6.5849 -34.51687,0.014 -53.14136,0.3847 -55.18401,1.0968 -6.05841,2.112 -6.21521,2.9656 -6.21521,33.8342 l 0,27.9795 2.41308,2.8057 2.41308,2.8058 95.83692,0.5 95.83692,0.5 4.14255,2.2155 c 5.23949,2.8022 10.69411,9.1271 12.19689,14.1429 0.74626,2.4908 1.16056,12.7821 1.16056,28.8283 l 0,24.9547 -2.75,5.4224 c -3.37161,6.6482 -9.33488,11.3598 -16.25623,12.8441 -6.30701,1.3526 -281.53211,1.3531 -287.27627,5e-4 z m 370.67797,0.037 c -7.34138,-2.1936 -11.83088,-11.0639 -9.10804,-17.9956 0.80111,-2.0394 28.03054,-41.9699 60.50985,-88.7343 32.47935,-46.7645 59.86815,-86.5314 60.86405,-88.3711 2.4777,-4.5768 2.5306,-18.0183 0.089,-22.5183 -0.9472,-1.7454 -26.0874,-38.8321 -55.86706,-82.4149 -29.7797,-43.5828 -55.04141,-80.7609 -56.13713,-82.618 -2.44338,-4.1412 -2.03725,-11.6621 0.84285,-15.6084 4.17176,-5.7162 3.86896,-5.6861 57.06254,-5.6754 l 48.8489,0.01 5,2.3578 c 2.75,1.2969 5.9649,3.43 7.1442,4.7403 1.1794,1.3103 13.9087,20.1573 28.2875,41.8823 14.3787,21.725 27.665,40.9353 29.5251,42.6896 5.395,5.0881 13.2952,5.5907 20.3398,1.2939 2.3965,-1.4618 10.7445,-13.2787 30.5748,-43.2799 16.8202,-25.4472 28.7088,-42.4484 31.0097,-44.3449 2.0523,-1.6917 5.4458,-3.5895 7.5412,-4.2173 2.6292,-0.7877 18.9621,-1.1414 52.7093,-1.1414 45.449,0 49.14,0.129 52.3067,1.8273 7.2582,3.8926 9.1667,13.4829 4.2243,21.2269 -1.5606,2.4452 -26.3676,38.4208 -55.1268,79.9458 -28.7592,41.525 -53.2097,77.525 -54.3346,80 -2.6362,5.8006 -2.6713,15.0354 -0.079,20.6678 1.0325,2.2429 18.4414,28.2023 38.6864,57.6874 l 36.809,53.6094 106.2698,0.2677 106.2697,0.2677 4.8948,3.0265 c 3.0304,1.8737 6.0474,4.8896 7.9212,7.9182 l 3.0264,4.8918 0.3338,25.0818 c 0.2149,16.1444 -0.068,26.906 -0.7925,30.2014 -1.3421,6.1 -6.3538,12.4318 -12.3987,15.6648 l -4.1426,2.2155 -134.9898,0.2711 c -95.011,0.1908 -136.5539,-0.054 -140.2709,-0.8252 -3.1492,-0.6538 -6.9206,-2.378 -9.3423,-4.2711 -2.8283,-2.2111 -13.7037,-17.4416 -35.8273,-50.1748 -20.7749,-30.7377 -32.8954,-47.7701 -35.0297,-49.2256 -6.2206,-4.2424 -14.3628,-3.9547 -20.3022,0.7172 -1.3931,1.0958 -16.1585,22.1335 -32.8119,46.7504 -16.6534,24.6169 -31.3226,46.1479 -32.5981,47.8467 -1.2756,1.6988 -4.6836,4.3988 -7.5735,6 l -5.2538,2.9115 -48.00003,0.1867 c -27.21889,0.1059 -49.34408,-0.2148 -51.10453,-0.7409 z m 646.18376,-393.4302 c -3.0512,-1.0872 -16.4692,-13.9036 -60.5,-57.788 -31.1186,-31.015 -58.8725,-58.0292 -61.6755,-60.0314 -6.5291,-4.664 -20.1993,-11.1759 -27.9037,-13.2922 -6.869,-1.8868 -38.6857,-3.199 -80.6447,-3.326 -22.7269,-0.069 -26.3853,-0.3064 -32.1545,-2.0883 -12.5513,-3.8767 -23.7691,-15.0392 -28.3662,-28.2266 -2.8285,-8.1137 -2.4699,-21.5357 0.7817,-29.2627 1.3887,-3.3 18.9417,-34.575 39.0067,-69.5 20.065,-34.925 70.6466,-123.2979 112.4035,-196.3841 84.141,-147.2702 78.1108,-137.9016 88.762,-137.9016 7.8413,0 14.1509,4.0184 16.6449,10.6008 0.7055,1.8619 1.0666,20.3349 1.0666,54.5589 0,43.4955 0.2298,52.0532 1.4414,53.6849 1.0847,1.4607 1.8449,1.6936 3.0716,0.9411 0.8965,-0.55 10.9354,-18.2684 22.3085,-39.3742 15.4166,-28.6095 21.5125,-39.0168 23.9561,-40.8995 3.8883,-2.9957 11.2975,-4.0167 16.5558,-2.2813 4.2643,1.4073 9.2115,6.742 10.4587,11.2777 0.5551,2.0187 0.1715,33.9988 -0.9989,83.2773 -1.0451,44 -1.6456,81.383 -1.3345,83.0734 0.3111,1.6904 1.8772,5.1416 3.4802,7.6692 2.8163,4.4408 4.0592,5.1711 36.8593,21.656 24.9461,12.5375 34.4428,17.7946 35.8233,19.8308 1.5874,2.3413 1.9579,5.3271 2.3909,19.2706 0.5511,17.7454 1.4197,21.0874 6.3142,24.2944 1.3358,0.8753 49.839,24.8424 107.7848,53.2602 146.0706,71.6361 139.8519,68.4607 144.5689,73.8196 6.5266,7.4146 7.9084,15.4524 4.27,24.8383 -1.311,3.3818 -9.1499,14.6468 -21.75,31.256 -15.922,20.988 -20.6441,26.55 -24.6215,29 l -4.9211,3.0315 -141.0789,0.5 c -129.6034,0.4593 -141.3228,0.6364 -144.0788,2.1773 -4.1339,2.3113 -17.8909,16.5501 -20.1181,20.8227 -1.4942,2.8666 -1.9227,6.7573 -2.3676,21.5 -0.5943,19.6948 -1.1799,21.9372 -7.0094,26.8424 -3.073,2.5857 -8.756,4.6799 -12.5049,4.6081 -1.1,-0.021 -3.7644,-0.6669 -5.9208,-1.4353 z"
       id="path3371"
       inkscape:connector-curvature="0" />
    <path
       style="fill:#37abc8"
       d="m 1300.8458,2098.6446 c -0.8295,-0.9995 -1.0853,-8.3758 -0.894,-25.776 l 0.2681,-24.3757 4.4009,-0.3149 c 2.8439,-0.2035 4.6959,0.1503 5.2347,1 0.4586,0.7232 0.8407,10.1866 0.8491,21.0299 l 0.015,19.715 10.25,0.285 10.25,0.285 0,4.5 0,4.5 -14.6061,0.2759 c -11.5557,0.2183 -14.8487,-0.016 -15.768,-1.1242 z m 46.4101,0.4066 c -0.3561,-0.5763 4.2661,-12.1876 10.2717,-25.8031 l 10.9192,-24.7552 5.187,0 5.1869,0 10.4803,23.9711 c 5.7642,13.1842 10.3494,24.6592 10.1894,25.5001 -0.3255,1.7102 -3.7989,2.4895 -7.2434,1.625 -1.5238,-0.3825 -2.9616,-2.1788 -4.3764,-5.4675 -1.1589,-2.6939 -2.8287,-5.1749 -3.7107,-5.5133 -0.8819,-0.3385 -6.0117,-0.6154 -11.3993,-0.6154 -10.8069,0 -10.713,-0.047 -14.3688,7.1965 -1.9772,3.9176 -2.5448,4.3307 -6.3301,4.6065 -2.287,0.1667 -4.4496,-0.1685 -4.8058,-0.7447 z m 32.464,-21.9924 c 0,-2.3958 -4.9849,-14.0659 -6.0083,-14.0659 -1.1773,0 -2.4762,2.0841 -4.8907,7.8473 -3.0385,7.2524 -2.501,8.1527 4.8676,8.1527 5.2962,0 6.0314,-0.2358 6.0314,-1.9341 z m 41.2321,22.1674 c -0.9789,-0.6744 -1.2068,-6.5536 -1,-25.8034 l 0.2679,-24.9299 15,0 c 12.4483,9e-4 15.55,0.3014 18.2331,1.7669 6.2096,3.3916 8.1401,11.965 4.1485,18.4235 -2.1175,3.4263 -2.1176,3.4284 -0.1249,5.618 4.6406,5.0994 5.6649,12.4453 2.4933,17.8814 -3.266,5.5978 -8.0425,7.1138 -23.75,7.5378 -7.7,0.2079 -14.5705,-0.015 -15.2679,-0.4954 z m 28.4534,-11.4076 c 2.9451,-2.7668 2.9157,-4.3154 -0.14,-7.3712 -2.1606,-2.1605 -3.3345,-2.4545 -9.8,-2.4545 -8.2582,0 -9.7455,0.8574 -9.7455,5.6182 0,6.0774 0.4432,6.3818 9.2925,6.3818 6.9182,0 8.411,-0.3123 10.393,-2.1743 z m -1.5333,-21.5335 c 2.6855,-2.6855 1.9003,-6.4917 -1.6753,-8.1208 -3.357,-1.5296 -13.7382,-1.5102 -15.2769,0.029 -1.7534,1.7534 -1.4654,7.3917 0.4767,9.3338 2.493,2.4931 13.5761,1.6579 16.4755,-1.2415 z m 116.8478,-343.8715 c -2.2202,-0.9521 -24.342,-22.2788 -60.5,-58.3255 -31.35,-31.2536 -59.172,-58.2809 -61.8267,-60.0607 -2.6547,-1.7799 -8.5047,-4.9531 -13,-7.0517 -15.4072,-7.1925 -14.7596,-7.1184 -69.815,-7.991 -41.8963,-0.6642 -50.5557,-1.0496 -55.5,-2.4707 -22.4187,-6.4434 -35.3073,-30.6878 -28.4528,-53.522 0.578,-1.9254 8.5438,-16.5504 17.7019,-32.5 9.158,-15.9495 59.6052,-104.1491 112.1048,-195.9991 52.4996,-91.85 96.2318,-168.0972 97.1826,-169.4382 6.3762,-8.993 19.7759,-9.1021 25.6029,-0.2084 l 2.3892,3.6466 0.71,54.2969 c 0.6769,51.7668 0.7978,54.3439 2.5943,55.3054 1.0364,0.5547 2.742,0.7362 3.7903,0.4035 1.2528,-0.3976 8.989,-13.7799 22.5749,-39.0507 23.4093,-43.543 24.0887,-44.4551 33.1104,-44.4551 8.2356,0 13.9164,4.0266 15.6557,11.097 0.3513,1.4283 -0.2303,38.8588 -1.2925,83.1788 -1.065,44.4409 -1.5608,81.8733 -1.1054,83.4614 1.2849,4.48 3.6385,8.5306 6.5442,11.2628 1.4624,1.375 17.3525,9.925 35.3115,19 23.4853,11.8675 33.2236,17.2926 34.6862,19.3232 1.8009,2.5003 2.0681,4.6167 2.3361,18.5 0.3259,16.8889 0.9038,19.5893 5.0201,23.4583 1.4725,1.384 57.8023,29.5407 125.1773,62.5703 67.375,33.0297 124.1406,61.4111 126.1458,63.07 6.911,5.7174 9.7455,16.3545 6.692,25.1136 -1.2321,3.5343 -34.5564,48.8011 -40.7083,55.297 -7.4165,7.8312 6.7619,7.1094 -150.6295,7.6676 l -141,0.5 -4.568,2.6855 c -5.6395,3.3154 -17.1125,15.327 -20.1141,21.0584 -1.9882,3.7962 -2.2878,6.201 -2.7735,22.2561 -0.6271,20.7344 -1.4394,23.1967 -8.9646,27.1762 -5.0292,2.6595 -10.0378,2.9068 -15.0798,0.7445 z m 80.9148,-153.4676 c 6.0594,-2.749 18.6265,-15.6582 20.0695,-20.6157 0.7878,-2.7064 1.0284,-23.9286 0.8164,-72.0019 l -0.3007,-68.1644 -3,-4.3356 c -2.8228,-4.0794 -5.5104,-5.5875 -45.5,-25.5305 -46.2139,-23.047 -47.7434,-23.5881 -54.6957,-19.349 -6.5927,4.0198 -6.7481,4.7286 -7.3432,33.4952 -0.4589,22.1765 -0.8099,26.6817 -2.3617,30.3065 -2.2731,5.3097 -10.1118,12.48 -15.3636,14.0535 -2.9326,0.8786 -26.6362,1.1902 -90.8518,1.1943 -60.5571,0 -88.095,0.3418 -90.8807,1.1152 -7.2271,2.0063 -10.7746,7.1175 -38.0355,54.8009 l -25.9678,45.4216 0.037,6.5784 c 0.027,4.7469 0.6367,7.7184 2.1911,10.673 2.335,4.4387 7.9241,9.8373 12.133,11.7195 3.8684,1.7299 44.3894,2.2282 199.1389,2.4488 133.6424,0.1905 135.5605,0.1657 139.9148,-1.8098 z m -32.9148,-84.9615 c -4.2334,-1.1876 -20.5252,-9.7146 -22.0338,-11.5324 -1.8757,-2.2601 -2.6407,-21.2645 -1.0674,-26.5157 1.0509,-3.5075 1.948,-4.2056 12.038,-9.3668 5.9964,-3.0672 12.0719,-5.5767 13.501,-5.5767 3.5396,0 22.0274,9.3983 23.9846,12.1927 1.237,1.766 1.5776,5.0112 1.5776,15.0298 0,15.2882 0.1961,14.9767 -13.3781,21.2481 -11.5486,5.3356 -11.6291,5.3605 -14.6219,4.521 z"
       id="path3363"
       inkscape:connector-curvature="0" />
  </g>
</svg>
