<?xml version="1.0" encoding="UTF-8" standalone="no"?>
<!-- Created with Inkscape (http://www.inkscape.org/) -->

<svg
   xmlns:dc="http://purl.org/dc/elements/1.1/"
   xmlns:cc="http://creativecommons.org/ns#"
   xmlns:rdf="http://www.w3.org/1999/02/22-rdf-syntax-ns#"
   xmlns:svg="http://www.w3.org/2000/svg"
   xmlns="http://www.w3.org/2000/svg"
   xmlns:sodipodi="http://sodipodi.sourceforge.net/DTD/sodipodi-0.dtd"
   xmlns:inkscape="http://www.inkscape.org/namespaces/inkscape"
   id="svg3336"
   version="1.1"
   inkscape:version="0.91 r13725"
   width="70.644791"
   height="38.785988"
   viewBox="0 0 70.644791 38.785987"
   sodipodi:docname="rex_logo_bw.svg">
  <metadata
     id="metadata3342">
    <rdf:RDF>
      <cc:Work
         rdf:about="">
        <dc:format>image/svg+xml</dc:format>
        <dc:type
           rdf:resource="http://purl.org/dc/dcmitype/StillImage" />
        <dc:title></dc:title>
      </cc:Work>
    </rdf:RDF>
  </metadata>
  <defs
     id="defs3340" />
  <sodipodi:namedview
     pagecolor="#ffffff"
     bordercolor="#666666"
     borderopacity="1"
     objecttolerance="10"
     gridtolerance="10"
     guidetolerance="10"
     inkscape:pageopacity="0"
     inkscape:pageshadow="2"
     inkscape:window-width="1539"
     inkscape:window-height="876"
     id="namedview3338"
     showgrid="false"
     inkscape:zoom="5.4740741"
     inkscape:cx="13.228122"
     inkscape:cy="0.83926536"
     inkscape:window-x="61"
     inkscape:window-y="24"
     inkscape:window-maximized="1"
     inkscape:current-layer="g3361"
     fit-margin-top="1"
     fit-margin-left="1"
     fit-margin-right="1"
     fit-margin-bottom="1" />
  <g
     id="g3361"
     transform="translate(-990.10673,-1603.3593)">
    <path
       style="fill:#cccccc"
       d="m 991.80061,1641.1061 c -0.19541,-0.045 -0.32217,-0.1183 -0.46025,-0.2623 -0.25218,-0.2628 -0.23358,0.312 -0.23318,-7.2114 l 3.8e-4,-6.8121 0.087,-0.1869 c 0.10059,-0.2162 0.25075,-0.3552 0.47673,-0.4414 0.14506,-0.055 0.48332,-0.06 3.69886,-0.048 3.05155,0.011 3.59048,0.022 3.91157,0.074 1.59088,0.2584 2.61868,0.7238 3.44658,1.5605 0.6637,0.6708 1.0307,1.3651 1.2432,2.3516 0.101,0.469 0.1385,1.5851 0.072,2.1517 -0.1891,1.6204 -0.9589,2.929 -2.1785,3.7028 -0.1699,0.1077 -0.2686,0.1949 -0.2686,0.2369 0,0.037 0.5931,0.9967 1.318,2.1341 l 1.3179,2.0678 -0.013,0.2132 c -0.011,0.1739 -0.033,0.2337 -0.1209,0.3249 -0.059,0.061 -0.1709,0.1289 -0.249,0.15 -0.091,0.024 -0.7539,0.034 -1.8366,0.027 -1.6385,-0.011 -1.7001,-0.014 -1.8614,-0.09 -0.092,-0.043 -0.21885,-0.135 -0.28258,-0.2038 -0.0633,-0.069 -0.5014,-0.8591 -0.97294,-1.7561 -0.71646,-1.3633 -0.88444,-1.6562 -1.02356,-1.7848 -0.26691,-0.2469 -0.39104,-0.2724 -1.32443,-0.2724 -0.9153,0 -1.00272,0.021 -1.2037,0.2839 l -0.10404,0.1363 -0.0185,1.5042 -0.0185,1.5043 -0.11466,0.2038 c -0.13545,0.2409 -0.39834,0.4212 -0.66787,0.4582 -0.25848,0.035 -2.45768,0.021 -2.61955,-0.017 z m 6.88636,-7.4997 c 0.76964,-0.2237 1.24406,-0.7009 1.41253,-1.4207 0.075,-0.3251 0.074,-0.9926 0,-1.2818 -0.19789,-0.7406 -0.69629,-1.1939 -1.52134,-1.3837 -0.2577,-0.059 -0.46632,-0.069 -1.59388,-0.069 -1.45052,0 -1.43339,0 -1.63829,0.2658 l -0.10381,0.1361 -0.01,1.6843 -0.01,1.6844 0.0928,0.1583 c 0.0602,0.1022 0.14842,0.1863 0.25129,0.2382 0.15552,0.079 0.18463,0.08 1.53001,0.065 1.16575,-0.012 1.4048,-0.023 1.59388,-0.079 z m 9.05233,7.4997 c -0.2069,-0.049 -0.3347,-0.1246 -0.4706,-0.2792 -0.2399,-0.2734 -0.2232,0.2662 -0.2232,-7.2105 l 0,-6.8283 0.078,-0.1599 c 0.094,-0.1959 0.3182,-0.393 0.5105,-0.4507 0.1947,-0.059 10.4085,-0.061 10.6181,-0.011 0.1749,0.049 0.4117,0.2576 0.5191,0.4581 0.076,0.1407 0.081,0.2107 0.093,1.0405 0.011,0.5683 0,0.9579 -0.029,1.0788 -0.057,0.2578 -0.2215,0.47 -0.455,0.5865 l -0.1914,0.095 -3.3418,0 c -2.2872,0 -3.3777,0.012 -3.456,0.04 -0.2237,0.078 -0.2304,0.1131 -0.2304,1.2216 0,0.618 0.014,1.032 0.038,1.0758 0.097,0.1811 0.1231,0.1833 2.1705,0.1833 1.3467,0 1.9584,0.012 2.0594,0.043 0.1918,0.058 0.4338,0.2703 0.5178,0.4553 0.061,0.1343 0.069,0.2581 0.069,1.1512 0,1.1027 -0.012,1.1735 -0.2432,1.4046 -0.2484,0.2484 -0.199,0.2433 -2.335,0.2441 -1.2794,0 -1.9698,0.014 -2.0455,0.04 -0.2246,0.079 -0.2304,0.1099 -0.2304,1.2542 l 0,1.0371 0.09,0.1044 0.09,0.1043 3.5523,0.019 3.5524,0.018 0.1536,0.082 c 0.1942,0.1033 0.3964,0.3383 0.4521,0.5243 0.028,0.092 0.043,0.4737 0.043,1.0685 l 0,0.925 -0.1021,0.201 c -0.1251,0.2464 -0.346,0.4211 -0.6026,0.476 -0.2338,0.05 -10.4355,0.05 -10.6484,10e-5 z m 13.7398,0 c -0.2722,-0.081 -0.4385,-0.4101 -0.3376,-0.6671 0.03,-0.076 1.039,-1.5557 2.2429,-3.289 1.2039,-1.7335 2.2191,-3.2075 2.2561,-3.2757 0.092,-0.1696 0.093,-0.6678 0.011,-0.8347 -0.034,-0.064 -0.9671,-1.4394 -2.0708,-3.0548 -1.1038,-1.6155 -2.0402,-2.9935 -2.0809,-3.0624 -0.091,-0.1535 -0.076,-0.4323 0.031,-0.5785 0.1547,-0.2119 0.1435,-0.2108 2.1151,-0.2104 l 1.8106,0 0.1854,0.088 c 0.1022,0.048 0.2211,0.127 0.2648,0.1756 0.043,0.049 0.5155,0.7472 1.0486,1.5524 0.5329,0.8053 1.0254,1.5174 1.0943,1.5825 0.2001,0.1885 0.4929,0.2072 0.754,0.048 0.089,-0.054 0.3982,-0.4922 1.1332,-1.6042 0.6236,-0.9433 1.0642,-1.5735 1.1495,-1.6438 0.077,-0.063 0.2018,-0.133 0.2796,-0.1563 0.098,-0.029 0.7028,-0.042 1.9537,-0.042 1.6846,0 1.8214,0.011 1.9388,0.068 0.2691,0.1444 0.3398,0.4999 0.1566,0.7869 -0.058,0.091 -0.9773,1.4241 -2.0433,2.9633 -1.0661,1.5392 -1.9723,2.8736 -2.0141,2.9653 -0.098,0.2151 -0.099,0.5574 0,0.7661 0.038,0.083 0.6836,1.0454 1.4341,2.1383 l 1.3643,1.9872 3.9391,0.011 3.9391,0.011 0.1814,0.1121 c 0.1124,0.07 0.2242,0.1813 0.2937,0.2936 l 0.1121,0.1813 0.012,0.9296 c 0.011,0.5985 0,0.9974 -0.029,1.1195 -0.05,0.2261 -0.2356,0.4609 -0.4596,0.5807 l -0.1536,0.082 -5.0035,0.011 c -3.5218,0.011 -5.0617,0 -5.1995,-0.03 -0.1166,-0.024 -0.2564,-0.088 -0.3462,-0.1584 -0.1044,-0.082 -0.508,-0.6465 -1.3281,-1.8598 -0.77,-1.1393 -1.2193,-1.7708 -1.2984,-1.8246 -0.2305,-0.1572 -0.5324,-0.1466 -0.7526,0.027 -0.051,0.041 -0.5988,0.8204 -1.2162,1.7329 -0.6173,0.9125 -1.161,1.7106 -1.2083,1.7735 -0.047,0.063 -0.1735,0.1631 -0.2807,0.2224 l -0.1947,0.1077 -1.7792,0.011 c -1.0089,0.011 -1.8291,-0.011 -1.8943,-0.027 z m 23.9519,-14.5832 c -0.1131,-0.041 -0.6104,-0.5153 -2.2425,-2.142 -1.1535,-1.1496 -2.1822,-2.151 -2.2862,-2.2251 -0.2419,-0.1729 -0.7486,-0.4143 -1.0342,-0.4928 -0.2547,-0.07 -1.434,-0.1185 -2.9893,-0.1233 -0.8424,0 -0.9779,-0.011 -1.1918,-0.078 -0.4653,-0.1437 -0.8811,-0.5575 -1.0514,-1.0462 -0.1044,-0.3008 -0.091,-0.7983 0.029,-1.0848 0.051,-0.1223 0.7021,-1.2816 1.4459,-2.576 0.7438,-1.2946 2.6187,-4.5703 4.1664,-7.2795 3.1189,-5.4587 2.8954,-5.1115 3.2901,-5.1115 0.2907,0 0.5246,0.149 0.617,0.393 0.027,0.069 0.039,0.7537 0.039,2.0223 0,1.6123 0.011,1.9295 0.053,1.9899 0.04,0.054 0.069,0.063 0.1138,0.035 0.033,-0.02 0.4054,-0.6771 0.827,-1.4596 0.5713,-1.0604 0.7974,-1.4461 0.8878,-1.5159 0.1442,-0.1111 0.4188,-0.1489 0.6137,-0.084 0.1581,0.052 0.3415,0.2498 0.3877,0.418 0.021,0.074 0.011,1.2602 -0.037,3.0868 -0.039,1.631 -0.061,3.0166 -0.049,3.0792 0.011,0.063 0.07,0.1907 0.1289,0.2843 0.1044,0.1646 0.1506,0.1917 1.3663,0.8027 0.9247,0.4648 1.2767,0.6596 1.3279,0.7351 0.059,0.087 0.072,0.1974 0.089,0.7143 0.02,0.6578 0.052,0.7817 0.2341,0.9005 0.05,0.032 1.8474,0.9209 3.9952,1.9742 5.4144,2.6553 5.1839,2.5376 5.3588,2.7363 0.2419,0.2747 0.2931,0.5727 0.1582,0.9206 -0.048,0.1253 -0.3392,0.5429 -0.8062,1.1586 -0.5902,0.7779 -0.7652,0.9841 -0.9127,1.0749 l -0.1824,0.1124 -5.2294,0.018 c -4.8039,0.017 -5.2383,0.023 -5.3404,0.081 -0.1532,0.085 -0.6632,0.6134 -0.7458,0.7719 -0.055,0.1066 -0.071,0.2505 -0.088,0.7969 -0.022,0.73 -0.043,0.8131 -0.2598,0.995 -0.1139,0.095 -0.3246,0.1735 -0.4635,0.1708 -0.041,0 -0.1396,-0.024 -0.2195,-0.053 z"
       id="path3371"
       inkscape:connector-curvature="0" />
    <path
       style="fill:#606060;fill-opacity:1"
       d="m 1035.6379,1640.3923 c -0.03,-0.037 -0.04,-0.3104 -0.033,-0.9554 l 0.011,-0.9035 0.1631,-0.011 c 0.1055,-0.011 0.174,0.011 0.194,0.037 0.017,0.027 0.031,0.3776 0.032,0.7795 l 0,0.7308 0.3799,0.011 0.38,0.011 0,0.1668 0,0.1667 -0.5414,0.011 c -0.4283,0.011 -0.5504,0 -0.5845,-0.042 z m 1.7202,0.015 c -0.013,-0.021 0.1581,-0.4517 0.3808,-0.9565 l 0.4047,-0.9175 0.1923,0 0.1923,0 0.3884,0.8884 c 0.2137,0.4888 0.3836,0.9141 0.3777,0.9453 -0.012,0.063 -0.1408,0.092 -0.2684,0.06 -0.057,-0.014 -0.11,-0.081 -0.1623,-0.2026 -0.043,-0.1 -0.1043,-0.1919 -0.1375,-0.2044 -0.033,-0.012 -0.2228,-0.023 -0.4226,-0.023 -0.4005,0 -0.3971,0 -0.5326,0.2668 -0.073,0.1453 -0.094,0.1606 -0.2346,0.1708 -0.084,0.011 -0.165,-0.011 -0.1782,-0.028 z m 1.2034,-0.8152 c 0,-0.089 -0.1847,-0.5213 -0.2227,-0.5213 -0.043,0 -0.092,0.078 -0.1813,0.2908 -0.1127,0.2688 -0.092,0.3022 0.1804,0.3022 0.1964,0 0.2236,-0.011 0.2236,-0.072 z m 1.5283,0.8217 c -0.037,-0.024 -0.045,-0.243 -0.037,-0.9564 l 0.011,-0.9241 0.556,0 c 0.4613,0 0.5764,0.011 0.6759,0.066 0.2301,0.1257 0.3016,0.4435 0.1536,0.6828 -0.079,0.127 -0.079,0.1272 -0.011,0.2083 0.1721,0.189 0.2101,0.4613 0.092,0.6628 -0.1211,0.2074 -0.2981,0.2637 -0.8804,0.2794 -0.2853,0.011 -0.54,0 -0.5659,-0.019 z m 1.0547,-0.4229 c 0.1088,-0.1022 0.1077,-0.1599 -0.011,-0.2732 -0.08,-0.08 -0.1236,-0.091 -0.3632,-0.091 -0.3062,0 -0.3613,0.032 -0.3613,0.2083 0,0.2253 0.017,0.2366 0.3444,0.2366 0.2565,0 0.3118,-0.011 0.3853,-0.081 z m -0.057,-0.7981 c 0.1,-0.1 0.07,-0.2406 -0.062,-0.301 -0.1245,-0.057 -0.5093,-0.055 -0.5663,0 -0.065,0.065 -0.054,0.2739 0.018,0.346 0.092,0.092 0.5033,0.061 0.6107,-0.046 z m 4.3312,-12.7463 c -0.082,-0.035 -0.9024,-0.8257 -2.2426,-2.1618 -1.162,-1.1586 -2.1933,-2.1603 -2.2917,-2.2263 -0.099,-0.066 -0.3152,-0.1836 -0.4819,-0.2614 -0.5711,-0.2666 -0.5471,-0.2638 -2.5878,-0.2962 -1.5529,-0.024 -1.8739,-0.039 -2.0572,-0.091 -0.831,-0.2389 -1.3087,-1.1376 -1.0547,-1.9839 0.022,-0.071 0.3167,-0.6135 0.6562,-1.2047 0.3395,-0.5912 2.2094,-3.8604 4.1553,-7.2651 1.946,-3.4045 3.5671,-6.2307 3.6023,-6.2805 0.2364,-0.3333 0.733,-0.3373 0.9491,-0.011 l 0.089,0.1352 0.027,2.0126 c 0.026,1.9188 0.03,2.0143 0.097,2.05 0.039,0.02 0.1022,0.028 0.1405,0.014 0.047,-0.014 0.3333,-0.5107 0.8368,-1.4474 0.8677,-1.614 0.8929,-1.6478 1.2273,-1.6478 0.3052,0 0.5158,0.1492 0.5803,0.4113 0.013,0.052 -0.011,1.4404 -0.048,3.0833 -0.039,1.6472 -0.058,3.0347 -0.041,3.0935 0.048,0.1661 0.1349,0.3162 0.2426,0.4175 0.054,0.051 0.6432,0.3678 1.3089,0.7042 0.8705,0.4399 1.2314,0.6411 1.2857,0.7163 0.067,0.093 0.077,0.1711 0.087,0.6858 0.012,0.626 0.033,0.726 0.186,0.8695 0.054,0.051 2.1426,1.0949 4.6399,2.3193 2.4974,1.2242 4.6016,2.2762 4.6759,2.3378 0.2561,0.2119 0.3612,0.6061 0.248,0.9308 -0.045,0.131 -1.2809,1.8089 -1.5089,2.0496 -0.2749,0.2904 0.2506,0.2636 -5.5833,0.2843 l -5.2264,0.019 -0.1693,0.1 c -0.2091,0.1229 -0.6345,0.5681 -0.7456,0.7805 -0.073,0.1407 -0.084,0.2298 -0.1033,0.825 -0.023,0.7686 -0.053,0.8597 -0.3323,1.0073 -0.1864,0.099 -0.372,0.1077 -0.5589,0.028 z m 2.9993,-5.6885 c 0.2245,-0.1021 0.6903,-0.5803 0.7437,-0.7641 0.029,-0.1 0.038,-0.887 0.031,-2.6689 l -0.011,-2.5266 -0.1111,-0.1607 c -0.1044,-0.1512 -0.2042,-0.2072 -1.6865,-0.9464 -1.7131,-0.8542 -1.7697,-0.8743 -2.0274,-0.7171 -0.2444,0.149 -0.2501,0.1752 -0.2722,1.2415 -0.017,0.822 -0.03,0.989 -0.088,1.1234 -0.084,0.1968 -0.3748,0.4626 -0.5695,0.5209 -0.1088,0.032 -0.9873,0.044 -3.3675,0.044 -2.2446,0 -3.2654,0.012 -3.3687,0.041 -0.2679,0.074 -0.3993,0.2638 -1.4098,2.0313 l -0.9626,1.6837 0,0.2438 c 0,0.1759 0.023,0.2861 0.081,0.3956 0.087,0.1645 0.2937,0.3646 0.4497,0.4344 0.1434,0.064 1.6453,0.082 7.3813,0.091 4.9539,0.011 5.0249,0.011 5.1864,-0.067 z m -1.2201,-3.1492 c -0.1569,-0.043 -0.7608,-0.3601 -0.8167,-0.4274 -0.07,-0.083 -0.098,-0.7882 -0.039,-0.9829 0.039,-0.13 0.072,-0.156 0.4462,-0.3473 0.2223,-0.1136 0.4475,-0.2066 0.5004,-0.2066 0.1312,0 0.8165,0.3484 0.8891,0.4519 0.045,0.065 0.059,0.1858 0.059,0.5571 0,0.5667 0.011,0.5552 -0.4959,0.7877 -0.4281,0.1977 -0.4311,0.1986 -0.542,0.1675 z"
       id="path3363"
       inkscape:connector-curvature="0" />
  </g>
</svg>
