<?xml version="1.0" encoding="UTF-8" standalone="no"?>
<!-- Created with Inkscape (http://www.inkscape.org/) -->

<svg
   xmlns:dc="http://purl.org/dc/elements/1.1/"
   xmlns:cc="http://creativecommons.org/ns#"
   xmlns:rdf="http://www.w3.org/1999/02/22-rdf-syntax-ns#"
   xmlns:svg="http://www.w3.org/2000/svg"
   xmlns="http://www.w3.org/2000/svg"
   xmlns:sodipodi="http://sodipodi.sourceforge.net/DTD/sodipodi-0.dtd"
   xmlns:inkscape="http://www.inkscape.org/namespaces/inkscape"
   id="svg3336"
   version="1.1"
   inkscape:version="0.91 r13725"
   width="65.308624"
   height="35.932533"
   viewBox="0 0 65.308625 35.932529"
   sodipodi:docname="rex_logo_bw.svg">
  <metadata
     id="metadata3342">
    <rdf:RDF>
      <cc:Work
         rdf:about="">
        <dc:format>image/svg+xml</dc:format>
        <dc:type
           rdf:resource="http://purl.org/dc/dcmitype/StillImage" />
        <dc:title></dc:title>
      </cc:Work>
    </rdf:RDF>
  </metadata>
  <defs
     id="defs3340" />
  <sodipodi:namedview
     pagecolor="#ffffff"
     bordercolor="#666666"
     borderopacity="1"
     objecttolerance="10"
     gridtolerance="10"
     guidetolerance="10"
     inkscape:pageopacity="0"
     inkscape:pageshadow="2"
     inkscape:window-width="1539"
     inkscape:window-height="876"
     id="namedview3338"
     showgrid="false"
     inkscape:zoom="10.948148"
     inkscape:cx="48.006563"
     inkscape:cy="12.197351"
     inkscape:window-x="61"
     inkscape:window-y="24"
     inkscape:window-maximized="1"
     inkscape:current-layer="g3361"
     fit-margin-top="1"
     fit-margin-left="1"
     fit-margin-right="1"
     fit-margin-bottom="1" />
  <g
     id="g3361"
     transform="translate(-992.77552,-1604.7866)">
    <path
       style="fill:#8fc53d;fill-opacity:1"
       d="m 994.41576,1639.6743 c -0.17846,-0.042 -0.29544,-0.1087 -0.42455,-0.2427 -0.23215,-0.2426 -0.21542,0.2883 -0.21542,-6.6498 l 4.2e-4,-6.2819 0.0809,-0.1714 c 0.0906,-0.1994 0.23187,-0.3272 0.43975,-0.4074 0.13385,-0.049 0.44562,-0.056 3.41097,-0.046 2.81387,0 3.31067,0.035 3.60697,0.067 1.4671,0.2393 2.4149,0.6678 3.1784,1.4391 0.6118,0.6185 0.9504,1.259 1.1464,2.1685 0.095,0.4326 0.1269,1.4619 0.067,1.9845 -0.1761,1.494 -0.8845,2.7007 -2.0091,3.4143 -0.1576,0.099 -0.2461,0.1783 -0.2461,0.2178 0,0.035 0.5469,0.9192 1.2155,1.9683 l 1.2151,1.9065 0,0.197 c 0,0.1622 -0.035,0.2156 -0.1115,0.299 -0.056,0.056 -0.1576,0.1199 -0.2294,0.1366 -0.084,0.035 -0.6952,0.035 -1.6935,0.035 -1.5111,0 -1.568,0 -1.7168,-0.084 -0.084,-0.039 -0.2016,-0.1227 -0.26,-0.1878 -0.06,-0.063 -0.4625,-0.7922 -0.8972,-1.6192 -0.6608,-1.2573 -0.8157,-1.5275 -0.9439,-1.6459 -0.2461,-0.2295 -0.36071,-0.2496 -1.2214,-0.2496 -0.84396,0 -0.92455,0.035 -1.10999,0.2599 l -0.0948,0.1269 0,1.3869 0,1.3871 -0.10736,0.1877 c -0.12688,0.2225 -0.36725,0.3882 -0.61557,0.4222 -0.23926,0.035 -2.26641,0.035 -2.41574,0 z m 6.35064,-6.9156 c 0.7096,-0.2086 1.1471,-0.6466 1.3023,-1.3105 0.07,-0.2989 0.067,-0.9154 0,-1.1818 -0.1831,-0.6831 -0.6421,-1.1009 -1.4028,-1.276 -0.2392,-0.053 -0.4301,-0.063 -1.47012,-0.063 -1.33753,0 -1.32178,0 -1.51056,0.2461 l -0.0948,0.1269 0,1.5532 0,1.5532 0.0837,0.1484 c 0.0558,0.095 0.13664,0.1715 0.23187,0.2178 0.14375,0.074 0.16913,0.074 1.41073,0.06 1.07508,0 1.29558,-0.035 1.47018,-0.074 z m 8.3475,6.9156 c -0.1901,-0.046 -0.3094,-0.1157 -0.4338,-0.2568 -0.2225,-0.2531 -0.2086,0.2464 -0.2086,-6.6492 l 0,-6.2969 0.07,-0.1483 c 0.088,-0.1783 0.292,-0.3627 0.4709,-0.4156 0.1784,-0.053 9.5981,-0.056 9.7915,0 0.1623,0.046 0.3798,0.2391 0.4785,0.4226 0.07,0.1296 0.074,0.1924 0.084,0.9594 0,0.5244 0,0.8835 -0.035,0.9948 -0.053,0.2391 -0.2039,0.4335 -0.4194,0.541 l -0.1761,0.088 -3.0815,0 c -2.1089,0 -3.1148,0 -3.1869,0.039 -0.2062,0.07 -0.2108,0.1046 -0.2108,1.1268 0,0.57 0,0.9514 0.035,0.992 0.088,0.1645 0.1116,0.1691 2.0015,0.1691 1.242,0 1.806,0 1.8992,0.039 0.1761,0.053 0.4,0.2495 0.4774,0.4198 0.056,0.1227 0.063,0.2391 0.063,1.0616 0,1.017 0,1.0818 -0.2248,1.295 -0.2293,0.2295 -0.183,0.2248 -2.1533,0.2248 -1.1797,0 -1.8163,0 -1.8863,0.035 -0.2086,0.074 -0.2108,0.1018 -0.2108,1.1566 l 0,0.9564 0.084,0.095 0.084,0.095 3.276,0 3.2759,0 0.1413,0.074 c 0.1785,0.095 0.3659,0.3128 0.4171,0.4834 0.035,0.084 0.039,0.4368 0.039,0.9853 l 0,0.8532 -0.095,0.1854 c -0.1157,0.2294 -0.3201,0.388 -0.556,0.4388 -0.2155,0.046 -9.6231,0.046 -9.8191,3e-4 z m 12.6705,0 c -0.2496,-0.074 -0.4043,-0.378 -0.313,-0.615 0.035,-0.07 0.9584,-1.4347 2.0684,-3.0328 1.1101,-1.5987 2.0462,-2.9583 2.0805,-3.021 0.084,-0.1554 0.084,-0.6157 0,-0.7698 -0.035,-0.06 -0.8916,-1.3272 -1.9096,-2.8172 -1.0177,-1.4895 -1.8813,-2.7602 -1.9189,-2.8239 -0.084,-0.1414 -0.07,-0.3984 0.035,-0.5335 0.1437,-0.1924 0.1339,-0.1924 1.9504,-0.1924 l 1.6696,0 0.1715,0.081 c 0.095,0.046 0.2039,0.1157 0.2461,0.1621 0.039,0.046 0.4755,0.6888 0.9669,1.4314 0.4914,0.7427 0.9458,1.3994 1.0089,1.4594 0.1855,0.1715 0.4547,0.19 0.6955,0.046 0.081,-0.049 0.3673,-0.4536 1.0452,-1.4789 0.5751,-0.8702 0.981,-1.4513 1.0598,-1.516 0.07,-0.06 0.1854,-0.1227 0.2568,-0.1436 0.091,-0.035 0.648,-0.039 1.8018,-0.039 1.5531,0 1.6794,0 1.7878,0.063 0.2495,0.1338 0.3128,0.4609 0.1437,0.7253 -0.053,0.084 -0.9014,1.3134 -1.8846,2.7328 -0.983,1.4195 -1.8186,2.6499 -1.8574,2.7347 -0.091,0.197 -0.091,0.5138 0,0.7064 0.035,0.077 0.6307,0.964 1.3225,1.9717 l 1.2583,1.8327 3.6326,0 3.6325,0 0.1691,0.1018 c 0.1046,0.063 0.2086,0.1691 0.2706,0.2709 l 0.1018,0.1691 0,0.8574 c 0,0.5517 0,0.9195 -0.035,1.0323 -0.046,0.2086 -0.2178,0.4248 -0.4237,0.5352 l -0.1414,0.077 -4.614,0 c -3.2478,0 -4.6676,0 -4.7946,-0.035 -0.1088,-0.035 -0.2357,-0.081 -0.32,-0.1482 -0.095,-0.074 -0.4684,-0.5961 -1.2246,-1.7149 -0.7101,-1.0508 -1.1247,-1.6331 -1.1976,-1.6827 -0.2132,-0.1436 -0.4909,-0.1339 -0.694,0.035 -0.046,0.039 -0.5523,0.7564 -1.1213,1.598 -0.5695,0.8415 -1.0708,1.5774 -1.1145,1.6354 -0.042,0.056 -0.1575,0.1506 -0.2601,0.2038 l -0.1785,0.098 -1.6404,0 c -0.9305,0 -1.6869,0 -1.747,-0.035 z m 22.0874,-13.448 c -0.106,-0.039 -0.5629,-0.4753 -2.0679,-1.975 -1.0638,-1.0605 -2.0121,-1.9838 -2.1083,-2.0522 -0.2224,-0.1576 -0.6903,-0.3819 -0.9535,-0.4544 -0.2357,-0.063 -1.3227,-0.1088 -2.7568,-0.1129 -0.777,0 -0.9017,0 -1.0991,-0.074 -0.4289,-0.1339 -0.8127,-0.5143 -0.9693,-0.965 -0.095,-0.2778 -0.086,-0.7359 0.035,-1.0001 0.046,-0.113 0.648,-1.1818 1.3337,-2.3756 0.6858,-1.1939 2.4146,-4.2147 3.8419,-6.7129 2.8763,-5.0338 2.6701,-4.7135 3.0341,-4.7135 0.2671,0 0.4838,0.1366 0.5693,0.3622 0.035,0.063 0.035,0.6952 0.035,1.8651 0,1.4868 0,1.7793 0.049,1.8348 0.035,0.049 0.063,0.056 0.1046,0.035 0.035,-0.035 0.3738,-0.6243 0.7624,-1.3462 0.5272,-0.9776 0.7353,-1.3333 0.819,-1.3977 0.1339,-0.1018 0.3862,-0.1367 0.5658,-0.077 0.1484,0.049 0.3165,0.2293 0.3576,0.3854 0.035,0.067 0,1.1622 -0.035,2.8464 -0.035,1.5041 -0.056,2.7819 -0.046,2.8396 0,0.056 0.063,0.1761 0.1199,0.2636 0.095,0.1508 0.1366,0.1763 1.2599,0.7404 0.8527,0.4288 1.1774,0.6079 1.2248,0.6776 0.053,0.081 0.067,0.1831 0.081,0.6591 0.035,0.6064 0.049,0.7209 0.2156,0.8303 0.046,0.035 1.7036,0.849 3.6839,1.8204 4.9929,2.4486 4.7807,2.3401 4.9418,2.5232 0.2225,0.2533 0.2706,0.5282 0.1483,0.8488 -0.046,0.1158 -0.3129,0.5009 -0.7434,1.0688 -0.5443,0.7175 -0.7057,0.9072 -0.8419,0.9913 l -0.1691,0.1018 -4.8224,0 c -4.4302,0 -4.8306,0.035 -4.9249,0.074 -0.1414,0.077 -0.6115,0.5654 -0.6874,0.7116 -0.049,0.1004 -0.067,0.2322 -0.081,0.7351 -0.035,0.6729 -0.039,0.7495 -0.2393,0.9174 -0.106,0.088 -0.2989,0.1576 -0.4272,0.1576 -0.039,0 -0.1297,-0.035 -0.204,-0.049 z"
       id="path3371"
       inkscape:connector-curvature="0" />
    <path
       style="fill:#606060;fill-opacity:1"
       d="m 1034.841,1639.0159 c -0.035,-0.035 -0.039,-0.2848 -0.035,-0.8807 l 0,-0.8331 0.1506,0 c 0.1004,0 0.1622,0 0.1785,0.035 0,0.035 0.035,0.3482 0.035,0.7189 l 0,0.6736 0.3517,0 0.3515,0 0,0.1553 0,0.1552 -0.4994,0 c -0.3949,0 -0.5077,0 -0.5389,-0.039 z m 1.5861,0 c 0,-0.035 0.1484,-0.4166 0.3518,-0.8821 l 0.3731,-0.8461 0.1785,0 0.1761,0 0.3579,0.8194 c 0.197,0.4507 0.3539,0.8427 0.3482,0.8717 0,0.056 -0.1297,0.084 -0.2461,0.056 -0.053,0 -0.1018,-0.074 -0.1508,-0.1854 -0.039,-0.091 -0.095,-0.1761 -0.1268,-0.1901 -0.035,0 -0.2039,-0.035 -0.3896,-0.035 -0.3695,0 -0.3663,0 -0.4912,0.2461 -0.067,0.1338 -0.088,0.1483 -0.2178,0.1575 -0.077,0 -0.1506,0 -0.1645,-0.035 z m 1.1097,-0.7518 c 0,-0.081 -0.1691,-0.4804 -0.2038,-0.4804 -0.039,0 -0.084,0.07 -0.1645,0.2671 -0.106,0.2496 -0.084,0.2779 0.1645,0.2779 0.1831,0 0.2086,0 0.2086,-0.067 z m 1.4094,0.7578 c -0.035,-0.035 -0.042,-0.2247 -0.035,-0.8819 l 0,-0.8523 0.5126,0 c 0.4255,0 0.5319,0 0.6236,0.06 0.2108,0.1157 0.2778,0.4089 0.1414,0.6298 -0.074,0.1157 -0.074,0.1157 0,0.1924 0.1576,0.1761 0.1923,0.4257 0.084,0.6112 -0.113,0.1901 -0.2744,0.2426 -0.8121,0.2567 -0.2636,0 -0.4979,0 -0.5217,0 z m 0.9728,-0.39 c 0.1018,-0.095 0.1004,-0.1483 0,-0.253 -0.074,-0.074 -0.113,-0.084 -0.3341,-0.084 -0.2814,0 -0.3339,0.035 -0.3339,0.1923 0,0.2086 0,0.2179 0.3163,0.2179 0.2357,0 0.2885,0 0.3552,-0.074 z m -0.053,-0.7359 c 0.092,-0.091 0.063,-0.2225 -0.056,-0.2778 -0.1157,-0.053 -0.4697,-0.049 -0.522,0 -0.06,0.06 -0.049,0.2532 0,0.32 0.084,0.084 0.4639,0.056 0.5629,-0.042 z m 3.9943,-11.7543 c -0.077,-0.035 -0.8322,-0.7614 -2.068,-1.9935 -1.0718,-1.0683 -2.0227,-1.9922 -2.1133,-2.0528 -0.093,-0.06 -0.2919,-0.1693 -0.4445,-0.2427 -0.5266,-0.246 -0.5047,-0.2426 -2.3863,-0.2743 -1.4322,-0.035 -1.7279,-0.035 -1.897,-0.084 -0.7662,-0.2225 -1.2069,-1.0491 -0.9727,-1.8297 0.035,-0.067 0.2918,-0.5657 0.6051,-1.1107 0.313,-0.545 2.0376,-3.56 3.8321,-6.6997 1.7943,-3.1395 3.2891,-5.7458 3.3217,-5.7918 0.2178,-0.3061 0.6759,-0.3095 0.8753,0 l 0.081,0.1269 0.035,1.8556 c 0.035,1.7694 0.035,1.8578 0.088,1.8904 0.035,0.035 0.095,0.035 0.1297,0 0.042,0 0.3059,-0.4709 0.7718,-1.335 0.7999,-1.4882 0.8231,-1.5194 1.1315,-1.5194 0.2814,0 0.4757,0.1367 0.5353,0.3795 0,0.049 0,1.3281 -0.046,2.8431 -0.035,1.5189 -0.053,2.7986 -0.039,2.8527 0.046,0.1553 0.1227,0.2921 0.2249,0.3853 0.049,0.046 0.5931,0.3375 1.2068,0.6494 0.8026,0.4053 1.1356,0.5909 1.1857,0.6602 0.063,0.086 0.07,0.1576 0.081,0.6326 0,0.5772 0.035,0.6692 0.1715,0.8018 0.049,0.046 1.9757,1.0096 4.2786,2.1389 2.3031,1.1286 4.2434,2.0989 4.312,2.1559 0.2356,0.1923 0.3341,0.5587 0.2294,0.8584 -0.042,0.1199 -1.1811,1.6677 -1.3914,1.8899 -0.2532,0.2674 0.232,0.2426 -5.1484,0.2602 l -4.8197,0 -0.1552,0.093 c -0.1924,0.1115 -0.5852,0.524 -0.6878,0.7197 -0.067,0.1297 -0.077,0.2108 -0.095,0.7606 -0.035,0.709 -0.049,0.7929 -0.3059,0.9292 -0.1715,0.091 -0.3446,0.1003 -0.5154,0.035 z m 2.7659,-5.2456 c 0.2086,-0.095 0.6363,-0.5351 0.6857,-0.7046 0.035,-0.091 0.035,-0.8181 0.035,-2.4612 l 0,-2.33 -0.1018,-0.1484 c -0.095,-0.1412 -0.19,-0.1899 -1.5553,-0.8724 -1.58,-0.788 -1.6318,-0.8064 -1.8696,-0.6613 -0.2247,0.1367 -0.2323,0.1622 -0.2495,1.145 0,0.7577 -0.035,0.9116 -0.081,1.0358 -0.077,0.1831 -0.3448,0.4265 -0.5251,0.4804 -0.1018,0.035 -0.9105,0.039 -3.1053,0.039 -2.0698,0 -3.0111,0 -3.1065,0.039 -0.2461,0.067 -0.3685,0.2426 -1.3003,1.8733 l -0.8877,1.5523 0,0.2248 c 0,0.1622 0.035,0.2637 0.074,0.365 0.081,0.1506 0.2709,0.3373 0.4145,0.4003 0.1338,0.06 1.5174,0.074 6.8067,0.084 4.5682,0 4.6339,0 4.7828,-0.063 z m -1.1251,-2.9043 c -0.1436,-0.039 -0.7019,-0.3303 -0.753,-0.3941 -0.063,-0.077 -0.093,-0.7269 -0.035,-0.906 0.035,-0.1199 0.067,-0.1436 0.4113,-0.32 0.204,-0.1074 0.413,-0.1901 0.4614,-0.1901 0.1199,0 0.7533,0.32 0.8201,0.4167 0.042,0.06 0.053,0.1715 0.053,0.5138 0,0.5225 0,0.5121 -0.4576,0.7267 -0.3945,0.183 -0.3972,0.183 -0.4996,0.1551 z"
       id="path3363"
       inkscape:connector-curvature="0" />
  </g>
</svg>
