<?xml version="1.0" encoding="utf-8"?>
<!-- Generator: Adobe Illustrator 21.1.0, SVG Export Plug-In . SVG Version: 6.00 Build 0)  -->
<svg version="1.1" id="Layer_1" xmlns="http://www.w3.org/2000/svg" xmlns:xlink="http://www.w3.org/1999/xlink" x="0px" y="0px"
	 viewBox="0 0 841.9 959.6" style="enable-background:new 0 0 841.9 959.6;" xml:space="preserve">
<style type="text/css">
	.st0{clip-path:url(#SVGID_2_);fill:url(#SVGID_3_);}
	.st1{fill:#FFFFFF;}
	.st2{clip-path:url(#SVGID_5_);fill:#FFFFFF;}
	.st3{fill:#006A71;}
	.st4{clip-path:url(#SVGID_7_);fill:#006A71;}
</style>
<g>
	<g>
		<defs>
			<path id="SVGID_1_" d="M658,240.8c0,120.2-97.4,217.6-217.6,217.6c-120.2,0-217.6-97.4-217.6-217.6
				c0-120.1,97.4-217.6,217.6-217.6C560.6,23.2,658,120.6,658,240.8"/>
		</defs>
		<clipPath id="SVGID_2_">
			<use xlink:href="#SVGID_1_"  style="overflow:visible;"/>
		</clipPath>
		
			<radialGradient id="SVGID_3_" cx="118.0158" cy="728.8719" r="9.3029" gradientTransform="matrix(29.778 0 0 -29.778 -3132.2241 22056.5723)" gradientUnits="userSpaceOnUse">
			<stop  offset="0" style="stop-color:#FFFFFF"/>
			<stop  offset="0.25" style="stop-color:#FFFFFF"/>
			<stop  offset="1" style="stop-color:#D4DB90"/>
		</radialGradient>
		<rect x="223" y="23" class="st0" width="435" height="435"/>
	</g>
	<path class="st1" d="M656.6,200.6c-0.3-1.5-0.6-3-0.9-4.5c-4.9-23.8-13.6-46-25.3-66c-0.1-0.2-0.2-0.5-0.3-0.7l0,0
		c-12.5-21.1-28.3-39.8-46.6-55.4c-0.8-0.7-1.6-1.4-2.4-2c-0.3-0.4-0.7-0.8-1.2-1.1l-0.1,0.1c-8.8-7.2-18.1-13.7-27.9-19.4l0.1-0.1
		c-5.5-3.3-11.3-6.2-17.1-8.9c-4.2-2-8.5-3.9-12.8-5.6c-0.6-0.3-1.2-0.6-1.9-0.9l0,0.1c-16.9-6.6-34.8-11.1-53.2-13.3l0,0
		c-0.4,0-0.8-0.1-1.2-0.1c-0.5-0.1-1-0.1-1.5-0.2v0c-0.6-0.1-1.1-0.1-1.7-0.2c-9-0.9-18.1-1.2-27.3-1v0c0,0-0.1,0-0.1,0
		c-7.9,0.2-15.9,0.9-23.9,2v0l-0.9,0.1c-0.1,0-0.2,0-0.3,0.1c-2,0.3-4,0.6-5.9,0.9c-1.2,0.2-2.4,0.4-3.6,0.6
		c-1.2,0.2-2.4,0.5-3.6,0.7c-2,0.4-3.9,0.8-5.9,1.3c-0.1,0-0.2,0-0.3,0l-0.7,0.2l0,0c-7.7,1.8-15.2,4-22.5,6.6c0,0-0.1,0-0.1,0l0,0
		c-8.8,3.1-17.3,6.8-25.5,10.9c-0.3,0.2-0.6,0.3-1,0.5l0,0c-0.6,0.3-1.2,0.6-1.8,0.9c-0.4,0.2-0.8,0.4-1.2,0.6l0,0
		c-16.3,8.7-31.3,19.3-44.7,31.5l-0.1-0.1c-0.6,0.5-1.1,1-1.6,1.6c-3.4,3.2-6.8,6.5-10,9.9c-4.5,4.6-8.7,9.5-12.7,14.5l0.1,0.1
		c-7,8.9-13.4,18.3-19,28.1l-0.1-0.1c-0.3,0.5-0.5,1-0.7,1.5c-12.3,21.9-20.8,46-25,71.2l-0.1,0c0,0.3,0,0.5-0.1,0.8
		c-4,24.3-3.9,49.7,0.9,75.3c4.8,25.9,14,49.8,26.7,71.2l0,0c0.2,0.2,0.3,0.5,0.5,0.7c13.2,22.2,30.2,41.7,49.9,57.7l-0.1,0.1
		c0.4,0.3,0.8,0.6,1.2,0.9c0.3,0.2,0.6,0.5,0.9,0.7c3.4,2.7,7,5.4,10.5,7.9c4.8,3.4,9.7,6.7,14.8,9.7l0.1-0.1
		c10.3,6.1,21.1,11.3,32.3,15.7l0,0.1c0.6,0.2,1.3,0.5,2,0.7c16.2,6.1,33.2,10.3,50.6,12.5c0.4,0,1.1,0.2,1.1,0.2v0l3,0.3v0
		c0.3,0,0.7,0.1,1.1,0.1c16.9,1.7,34.1,1.4,51.5-1c0.1,0,0.3,0,0.4,0v0c3.4-0.5,6.7-1,10.1-1.6c3.4-0.6,6.7-1.3,10-2.1l0,0
		c0.1,0,0.3-0.1,0.4-0.1c17-4,33.1-9.9,48.1-17.5c0.5-0.2,1-0.5,1.5-0.7l0,0c0.6-0.3,1.2-0.6,1.9-0.9v0c0.3-0.1,0.6-0.3,0.8-0.5
		c15.6-8.3,30-18.4,42.9-29.9c0.6-0.5,1.2-1,1.7-1.4l-0.1-0.1c8.9-8.1,17-16.8,24.4-26.2l0.1,0.1c3.7-4.6,7.1-9.4,10.3-14.3
		c2.7-4,5.2-8.1,7.6-12.2c0.3-0.5,0.6-0.9,0.9-1.3l-0.1,0c12.5-22,21.3-46.2,25.7-71.7c0.1-0.3,0.2-0.6,0.2-0.9l-0.1,0
		C661.5,252.1,661.4,226.4,656.6,200.6 M564.3,60.4c0.2,0.1,0.3,0.2,0.5,0.4c5.3,3.7,10.5,7.6,15.4,11.7c0.9,1,1.5,2.1,1.7,3.2
		c0,0,0,0,0,0c-16.7-13.6-35.5-24.8-55.7-33c0-0.3,0-0.7-0.1-1c-0.2-0.9-0.7-1.8-1.4-2.6c3.2,1.3,6.3,2.6,9.5,4.1
		c8.3,3.9,16.4,8.4,24.1,13.4C560.4,57.7,562.4,59,564.3,60.4z M525.4,41.8c0,0.2,0,0.4,0,0.6c-15.6-6.3-32.1-10.9-49.1-13.5
		c0.1-0.4,0.1-0.7,0-1.1c-0.1-0.5-0.3-1-0.7-1.4c14.8,1.8,29.3,5.3,43.3,10.5c1.2,0.4,2.4,0.9,3.5,1.3
		C524.1,39.2,525.1,40.4,525.4,41.8z M651.2,213.3c4.4,23.7,4.7,47.5,1.1,70.5c-4.9,5.4-13.9,11.2-26.2,17.2
		c2.2-21.5,1.2-43.9-3.1-66.8c-0.2-1.2-0.5-2.4-0.7-3.6c13.2-6.4,23.1-12.6,28.7-18.3C651.1,212.6,651.2,212.9,651.2,213.3z
		 M233.7,290c7.3,3.3,18.7,5.6,33.3,6.8c0.2,1.2,0.4,2.4,0.6,3.6c4.3,22.8,11.4,44.2,21.1,63.4c-13.6-1.2-24.1-3.3-30.6-6.6
		c-11.6-20.2-19.9-42.5-24.3-66.2C233.8,290.7,233.8,290.3,233.7,290z M289.6,85.7c-0.3-1.3,0.2-2.8,1.4-4.4
		c0.9-0.8,1.9-1.7,2.8-2.5c11.2-9.8,23.5-18.3,36.6-25.4c-0.2,0.5-0.2,1.1-0.1,1.6c0.1,0.3,0.2,0.7,0.4,1
		c-14.9,8.6-28.6,18.8-41,30.3C289.7,86.1,289.6,85.9,289.6,85.7z M373.7,36.3c0.2,0.2,0.4,0.4,0.6,0.5c-15.2,4.8-29.6,11.2-43,18.8
		c-0.2-0.3-0.3-0.5-0.3-0.8c-0.1-0.6,0-1.3,0.4-2C344.8,45.8,358.9,40.3,373.7,36.3z M374.9,34c6-1.3,12-2.2,18.2-2.7
		c-6.5,1.1-12.8,2.5-19.1,4.2C374,35,374.3,34.5,374.9,34z M380.1,31.2c4.7-0.8,9.6-1.1,14.6-0.9c0.3,0,0.6,0,0.9,0
		c-6.5,0.5-12.8,1.3-19,2.5C377.5,32.4,378.7,31.8,380.1,31.2z M425.2,23.8c-6.2,1.1-12.5,2.6-18.6,4.5c0.3-0.1,0.5-0.2,0.8-0.3
		c4.6-2,9.3-3.4,14-4.4C422.8,23.6,424.1,23.7,425.2,23.8z M428.4,25.3c-6.4,0.7-12.9,1.7-19.3,3c6-1.7,12-3.1,18-4
		C427.9,24.5,428.4,24.9,428.4,25.3z M474.5,26.2c0.6,0.5,1,1.1,1.1,1.7c0.1,0.3,0,0.5,0,0.8c-15.3-2.3-31-3.1-46.9-2.1
		c0.2-0.2,0.3-0.5,0.4-0.7C444.3,24.4,459.5,24.4,474.5,26.2z M622.3,234.3c4.3,22.9,5.3,45.5,3,67c-12.5,6-28.4,12.2-46.9,18.3
		c0.4-22-1.8-45.5-6.6-69.4c19.5-6.4,36.4-13,49.8-19.3C621.9,232,622.1,233.2,622.3,234.3z M471.1,405.5c-12.3,2.3-24.4,4.3-36.2,6
		c-6.1-15.2-12-33.7-17.6-54.5c14.1-2,28.6-4.4,43.4-7.2c14.8-2.8,29.2-5.7,43.1-8.9c2.3,21.4,3.4,40.7,3.2,57.2
		C495.5,400.6,483.4,403.2,471.1,405.5z M507,398.8c-0.2,14.1-1.4,26.1-3.5,35.2c-8.4,1.9-17.1,3.8-26.1,5.4
		c-8.9,1.7-17.7,3.1-26.3,4.3c-5.3-7.7-10.7-18.5-16-31.6c11.7-1.7,23.7-3.7,36.1-6C483.6,403.9,495.5,401.4,507,398.8z
		 M267.8,296.8c14.8,1.1,32.9,1.2,53.4,0.1c4.1,24,10.5,46.7,18.8,67.1c-19.4,1-36.4,0.9-50.3-0.2c-9.8-19.3-17-40.7-21.3-63.6
		C268.2,299.1,268,297.9,267.8,296.8z M503.7,340.1c-13.9,3.2-28.3,6.2-43.1,8.9c-14.8,2.8-29.4,5.2-43.5,7.2
		c-5.5-20.6-10.5-43.3-14.8-67.6c14.8-2.1,30-4.7,45.6-7.6c15.6-2.9,30.7-6,45.3-9.4C497.9,295.9,501.4,319,503.7,340.1z
		 M447.8,280.4c-15.6,2.9-30.9,5.4-45.6,7.6c-2.3-12.7-4.4-25.7-6.2-39c-1.6-11.5-3-22.9-4.2-34c13.8-2,28-4.4,42.5-7.1
		c14.5-2.7,28.6-5.6,42.2-8.7c2.9,10.8,5.7,21.9,8.3,33.2c3.1,13.1,5.8,26,8.3,38.6C478.6,274.3,463.4,277.5,447.8,280.4z
		 M421.2,137.2c-11.7,2.2-23.1,4.1-34.3,5.7c-0.5-19.5-0.2-37.3,1-52.9c7.7-1.1,15.6-2.5,23.8-4c8.1-1.5,16-3.1,23.6-4.8
		c6.7,14.1,13.4,30.7,19.9,49C444.2,132.7,432.9,135.1,421.2,137.2z M455.4,130.9c7.3,20.5,14.4,43.3,20.9,67.5
		c-13.6,3.1-27.7,6-42.2,8.7c-14.5,2.7-28.7,5.1-42.5,7.1c-2.7-25-4.2-48.8-4.8-70.6c11.1-1.6,22.6-3.5,34.4-5.7
		C433,135.8,444.4,133.4,455.4,130.9z M411.5,85.3c-8,1.5-15.9,2.8-23.6,4c0.9-12,2.2-22.7,4-31.7c4.5-0.7,9.2-1.5,13.9-2.3
		c4.8-0.9,9.4-1.8,13.8-2.8c4.9,7.8,10,17.2,15.2,28.1C427.3,82.2,419.5,83.8,411.5,85.3z M405.7,54.5c-4.6,0.9-9.2,1.6-13.6,2.3
		c1.7-8.1,3.7-14.9,6.1-20.2c1.4-0.2,2.7-0.5,4.1-0.7c1.4-0.3,2.7-0.5,4.1-0.8c4.1,4.1,8.5,9.7,13,16.7
		C414.9,52.7,410.4,53.6,405.7,54.5z M400.3,31.3c-0.9,1.4-1.7,2.9-2.4,4.5c-2.2,0.4-4.4,0.6-6.4,0.9
		C394.4,34.7,397.3,32.9,400.3,31.3z M390,36.9c-1.6,0.1-3.1,0.3-4.5,0.3c3.8-1.8,7.7-3.4,11.7-4.9C394.7,33.7,392.4,35.2,390,36.9z
		 M401.3,30.8c1.4,1,2.9,2.2,4.4,3.6c-1.2,0.2-2.3,0.5-3.6,0.7c-1.2,0.2-2.4,0.4-3.6,0.6C399.4,33.9,400.4,32.3,401.3,30.8z
		 M402.5,30.9c3.4,0.4,6.8,1,10.1,1.9c-2,0.5-4,1-6.3,1.5C405.1,33,403.8,31.9,402.5,30.9z M405.7,30.7c4.2,0,8.4,0.1,12.7,0.4
		c-1.3,0.5-2.8,0.9-4.3,1.3C411.3,31.7,408.5,31.1,405.7,30.7z M394.2,32.6c-3.6,1.4-7.1,2.9-10.5,4.6c-1.4,0-2.7,0-3.8-0.1
		C384.6,35.5,389.3,34,394.2,32.6z M378.1,37c-0.5-0.1-1-0.1-1.5-0.2c3.9-1.2,7.9-2.3,12-3.3C385.1,34.6,381.6,35.8,378.1,37z
		 M382.1,38c-12,5.9-23.4,13.3-33.9,21.9c-4.9-0.2-8.9-0.7-11.9-1.5c13-8.3,27-15.2,41.8-20.7C379.4,37.9,380.7,38,382.1,38z
		 M383.8,38c1.6,0,3.3-0.1,5.1-0.3c-8.1,5.9-15.6,13.3-22.6,21.9c-6.3,0.4-12.1,0.6-17,0.4C360,51.3,371.6,43.9,383.8,38z
		 M390.3,37.6c2.3-0.2,4.8-0.5,7.2-0.9c-2.4,5.3-4.4,12.1-6,20.2c-8.6,1.3-16.8,2.2-24.2,2.7C374.3,50.9,382,43.5,390.3,37.6z
		 M407,34.9c2.4-0.5,4.8-1.1,7.1-1.8c9.8,2.5,19.7,6.6,29.4,12.2c-7.1,2.2-15.1,4.3-23.6,6.2C415.4,44.6,411.1,39,407,34.9z
		 M415.5,32.7c1.7-0.5,3.3-1,4.8-1.6c13.5,1.1,27,3.9,40.1,8.1c-4.5,1.9-9.9,3.9-16,5.7C434.8,39.5,425.1,35.4,415.5,32.7z
		 M421.8,30.6c1.4-0.5,2.6-1.1,3.6-1.6c15.8-0.3,31.3,1.2,46.5,4.2c-2.4,1.8-6,3.7-10.5,5.7C448.4,34.6,435.2,31.8,421.8,30.6z
		 M420.1,30.4c-3.8-0.3-7.7-0.5-11.5-0.5c5-0.5,10-0.8,15-0.9C422.6,29.5,421.5,30,420.1,30.4z M414.2,28.8
		c4.1-0.5,8.3-0.9,12.4-1.2c-0.4,0.2-0.8,0.5-1.3,0.7C421.5,28.3,417.9,28.5,414.2,28.8z M375.3,37.2c0.4,0.1,0.9,0.3,1.4,0.4
		C362.1,43,348.3,50,335.4,58.2c-1.7-0.6-2.9-1.2-3.7-2C345.3,48.4,359.9,42,375.3,37.2z M334.7,58.7c-14.3,9.2-27.5,20-39.3,32.2
		c-2.7-1.1-4.5-2.3-5.3-3.9c12.4-11.6,26.1-21.8,41.1-30.4C331.9,57.3,333.1,58.1,334.7,58.7z M335.6,59c2.9,0.9,6.9,1.5,11.8,1.7
		c-11.8,9.7-22.5,21-32.1,33.5c-8.2-0.5-14.7-1.5-19.1-3.1C307.9,79,321.2,68.2,335.6,59z M348.4,60.7c4.9,0.2,10.8,0.1,17.2-0.3
		c-7.7,9.7-14.7,21-20.8,33.5c-10.9,0.7-20.6,0.8-28.7,0.4C325.8,81.7,336.6,70.4,348.4,60.7z M366.6,60.4
		c7.5-0.5,15.9-1.4,24.8-2.7c-1.8,9.1-3.2,19.7-4.1,31.7c-15,2.2-29.1,3.7-41.7,4.5C351.8,81.3,358.8,70.1,366.6,60.4z M387.2,90.1
		c-1.1,15.6-1.5,33.5-1,52.9c-21.8,3.2-42.2,5.3-60.2,6.4c4.8-19.9,11.3-38.4,19.2-54.8C357.9,93.9,372,92.3,387.2,90.1z
		 M386.2,143.8c0.5,21.7,2.1,45.5,4.8,70.6c-27,3.9-52.2,6.5-74.4,7.7c0.7-25.2,3.9-49.5,9.2-72C344,149,364.4,146.9,386.2,143.8z
		 M391.1,215c1.2,11.1,2.6,22.5,4.2,34c1.9,13.3,3.9,26.3,6.2,39c-28.9,4.2-55.9,6.9-79.6,8.2c-0.3-1.6-0.6-3.3-0.8-4.9
		c-3.6-23.1-5-46.2-4.4-68.7C338.9,221.5,364.1,218.9,391.1,215z M485.6,232.2c-2.6-11.3-5.5-22.4-8.3-33.2
		c26.6-6.1,51-12.8,72.2-19.7c8.6,20.7,15.7,42.8,20.6,65.7c0.4,1.6,0.7,3.2,1,4.9c-22.6,7.4-48.8,14.5-77.2,21
		C491.4,258.2,488.6,245.3,485.6,232.2z M477.1,198.3c-6.5-24.3-13.7-47-21-67.5c21.5-4.9,41.3-10.3,58.6-15.9
		c13.1,19.1,24.8,40.6,34.5,63.8C528,185.6,503.6,192.2,477.1,198.3z M455.8,130.1c-6.6-18.3-13.3-34.9-20-49
		c15-3.4,28.8-7.1,40.8-10.9c13.3,12.4,26,27.3,37.7,44.2C497.1,119.8,477.3,125.2,455.8,130.1z M435.5,80.4
		c-5.1-10.9-10.3-20.3-15.2-28.1c8.8-2,16.9-4.1,24.1-6.4c10.8,6.2,21.3,14.2,31.6,23.7C464,73.3,450.3,77,435.5,80.4z M445.3,45.6
		c6.2-2,11.6-3.9,16.2-5.9c14.5,4.8,28.7,11.4,42.2,19.6c-7.4,3.3-16.5,6.7-26.9,10C466.6,59.9,456,51.9,445.3,45.6z M462.5,39.2
		c4.4-2,8-4,10.3-5.8c16.7,3.4,33,8.7,48.4,15.8c-3.6,3.1-9.3,6.4-16.8,9.8C491,50.7,476.9,44.1,462.5,39.2z M473.5,32.8
		c1.3-1.1,2.2-2.2,2.6-3.3c17.1,2.6,33.6,7.2,49.3,13.6c-0.2,1.7-1.5,3.6-3.6,5.5C506.4,41.6,490.2,36.3,473.5,32.8z M472.7,32.6
		c-15-3-30.3-4.5-45.9-4.4c0.4-0.3,0.8-0.5,1.1-0.8c16.1-1,32-0.3,47.5,2C475,30.4,474.1,31.5,472.7,32.6z M289.5,87.4
		c0.9,1.5,2.7,2.8,5.4,3.9c-15.3,15.8-28.3,33.7-38.6,53.2c-3.7-1.6-6-3.6-6.9-5.9C260.1,119.8,273.6,102.5,289.5,87.4z M295.6,91.6
		c4.5,1.7,10.9,2.8,19.1,3.3c-12.5,16.4-23,34.9-31.2,54.7c-11.6-0.8-20.7-2.4-26.6-4.8C267.2,125.4,280.2,107.4,295.6,91.6z
		 M315.6,95c8.2,0.5,17.9,0.4,28.9-0.3c-7.9,16.4-14.4,34.9-19.2,54.7c-15.7,0.9-29.5,1-41,0.3C292.5,129.8,303,111.3,315.6,95z
		 M325.1,150.1c-5.3,22.5-8.5,46.8-9.2,72c-19.3,1-36.3,1.1-50.2,0.1c2.8-25.1,9.1-49.4,18.4-72C295.6,151,309.5,151,325.1,150.1z
		 M315.9,222.7c-0.6,22.5,0.8,45.6,4.4,68.7c0.3,1.6,0.5,3.2,0.8,4.8c-20.5,1.1-38.6,1.1-53.4-0.1c-4.2-24.6-4.7-49.4-2.1-73.5
		C279.6,223.8,296.6,223.7,315.9,222.7z M322,296.9c23.8-1.2,50.7-4,79.6-8.1c4.4,24.2,9.4,47,14.8,67.6c-27.5,4-53.1,6.5-75.7,7.7
		C332.5,343.6,326.1,320.9,322,296.9z M416.6,357c5.5,20.8,11.5,39.2,17.6,54.5c-22.7,3.2-44.1,5.3-62.8,6.2
		c-0.9-1.1-1.8-2.3-2.7-3.4c-10.7-14-20-30.9-27.7-49.7C363.6,363.5,389.2,361,416.6,357z M504.5,340.7c27-6.2,51.8-13,73.3-20.1
		c-0.4,20.3-3.1,39.4-8,56.3c-0.4,1.4-0.8,2.8-1.3,4.2c-17.8,5.9-38.5,11.6-60.8,16.8C507.9,381.4,506.8,362,504.5,340.7z
		 M504.4,339.9c-2.3-21.1-5.8-44.2-10.5-68.4c28.5-6.5,54.6-13.7,77.2-21.1c4.8,23.9,7,47.4,6.6,69.4
		C556.3,326.9,531.5,333.7,504.4,339.9z M571.8,249.6c-0.3-1.6-0.6-3.2-1-4.8c-5-22.9-12-44.9-20.6-65.7c18.3-6,34.2-12.1,46.9-18.1
		c11.1,21.5,19.5,44.8,24.5,69.3C608.2,236.7,591.3,243.2,571.8,249.6z M549.9,178.5c-9.7-23.2-21.4-44.8-34.5-63.9
		c14.9-4.8,27.9-9.8,38.4-14.7c16.8,17.7,31.4,38.1,43,60.5C584.1,166.5,568.2,172.5,549.9,178.5z M515,114.1
		c-11.6-16.9-24.3-31.8-37.6-44.2c10.5-3.3,19.6-6.8,27-10.1C522,70.5,538.5,84,553.3,99.6C542.9,104.4,529.9,109.3,515,114.1z
		 M505.2,59.4c7.4-3.4,13.1-6.8,16.6-9.9c20,9.2,38.6,21.2,55.2,35.7c-4.7,4.4-12.6,9.2-23.1,14.1C539.2,83.7,522.8,70.2,505.2,59.4
		z M522.5,49c2.1-1.9,3.3-3.8,3.6-5.6c20.3,8.3,39.1,19.5,55.9,33.3c0,2.5-1.5,5.1-4.3,8C561,70.2,542.4,58.2,522.5,49z M427.6,26.7
		c-4.2,0.3-8.5,0.7-12.7,1.2c4.4-0.8,8.9-1.4,13.3-1.9C428.1,26.3,427.9,26.5,427.6,26.7z M407.1,27.3c-1.6,0.7-3.2,1.4-4.8,2.2
		c2.1-2.7,4.4-4.5,6.9-5.2c3.3-0.4,6.3-0.6,8.9-0.7C414.4,24.5,410.7,25.7,407.1,27.3z M383.1,30.1c2.5-0.9,5.3-1.7,8.6-2.5
		c2.6-0.2,5.4,0.6,8.3,2.4c-1.7-0.2-3.5-0.3-5.2-0.3C390.8,29.4,386.9,29.6,383.1,30.1z M387.6,33c-4.2,1-8.3,2.2-12.3,3.5
		c-0.3-0.1-0.6-0.3-0.8-0.4C378.8,34.9,383.2,33.9,387.6,33z M248.9,139.4c1.1,2.2,3.5,4,7,5.6c-11.5,22-19.6,45.8-23.6,70.6
		c-4.3-2-6.9-4.5-7.7-7.4C228.7,183.9,237,160.7,248.9,139.4z M256.6,145.3c6,2.5,15.1,4.1,26.7,4.9c-9.2,22.5-15.5,46.9-18.3,72
		c-14.1-1-25-3.1-32-6.2C237,191.1,245.1,167.3,256.6,145.3z M264.9,222.7c-2.6,24.1-2.1,48.9,2.1,73.5c-14.8-1.2-26.2-3.5-33.4-6.9
		c-4.4-24.5-4.4-49.1-0.7-72.8C240,219.6,250.9,221.6,264.9,222.7z M289.2,364.4c8.7,17.1,19.4,32.5,32,45.8
		c2.3,2.5,4.7,4.8,7.2,7.1c-10.8-1-19.1-2.9-24-5.6c-18.2-15-33.5-33.1-45.5-53.6C265.6,361.2,275.9,363.3,289.2,364.4z
		 M321.7,409.7c-12.5-13.2-23.1-28.4-31.7-45.2c13.9,1.1,30.9,1.2,50.2,0.2c7.8,19,17.1,35.9,27.9,50.1c0.8,1,1.6,2,2.4,3
		c-15.8,0.7-29.7,0.6-41-0.4C326.9,415,324.3,412.4,321.7,409.7z M371.2,418.6c10.2,12.7,21.4,22.6,33,29.6
		c-11,0.5-20.7,0.3-28.5-0.4c-16.2-6.9-31.4-16.7-45.2-29.4C341.8,419.3,355.6,419.4,371.2,418.6z M372.1,418.6
		c18.6-0.9,39.7-3.1,62.4-6.3c5.2,13.1,10.6,23.8,15.9,31.6c-16.2,2.3-31.5,3.8-44.8,4.4C393.8,441.3,382.5,431.3,372.1,418.6z
		 M450.9,444.5c3.2,4.7,6.4,8.2,9.6,10.6c0.6,0.4,1.1,0.8,1.7,1.1c-10,1.4-19.3,2.2-27.5,2.6c-9.4-1.4-18.7-4.7-27.8-9.9
		C420,448.3,434.9,446.8,450.9,444.5z M460.9,454.5c-3-2.3-6.1-5.7-9.2-10.1c8.4-1.2,17.1-2.6,25.9-4.3c8.9-1.6,17.5-3.4,25.7-5.3
		c-1.3,5.3-3,9.5-5,12.7c-0.5,0.9-1.1,1.6-1.7,2.3c-5.4,1.2-10.9,2.4-16.6,3.5c-5.7,1.1-11.3,2-16.8,2.8
		C462.5,455.6,461.7,455.1,460.9,454.5z M499,447.9c2.1-3.3,3.8-7.8,5.1-13.3c15.7-3.6,30.2-7.6,42.6-11.7
		c-6.6,8-14.1,14.5-22.4,19.2c-7.7,2.6-16.7,5.2-26.5,7.5C498.2,449.1,498.6,448.5,499,447.9z M504.3,433.8
		c2.1-9.2,3.3-21.1,3.5-35.2c22.3-5.1,42.8-10.8,60.5-16.6c-5.1,15.6-12,29-20.6,39.7C535,426,520.2,430.1,504.3,433.8z
		 M569.1,381.8c14.9-4.9,27.7-10,37.8-14.9c-8.3,16.8-18.9,31.5-31.6,43.7c-7,3.5-15.9,7.1-26.4,10.7
		C557.3,410.6,564.1,397.3,569.1,381.8z M569.4,380.8c0.4-1.2,0.8-2.4,1.1-3.7c4.9-17,7.6-36.3,8-56.8c18.4-6.1,34.2-12.3,46.8-18.3
		c-2,18.8-6.4,36.9-13.3,53.6c-1.4,3.4-2.9,6.7-4.5,10C597.4,370.6,584.4,375.7,569.4,380.8z M612.7,355.9
		c7-16.9,11.4-35.2,13.4-54.3c12-5.8,20.9-11.5,26.1-16.7c-3.8,23.4-11.6,45.8-23.2,66.4c-3.7,4.3-10.7,9-20.4,13.9
		C610,362.1,611.4,359.1,612.7,355.9z M622.2,230c-5-24.5-13.4-47.8-24.5-69.3c12.7-6,22.1-11.9,27.6-17.3
		c12,20.8,20.8,43.7,25.6,68.2C645.5,217.3,635.6,223.6,622.2,230z M597.4,160.2c-11.7-22.4-26.3-42.8-43-60.5
		c10.5-4.9,18.3-9.7,23.1-14.2c18.7,16.3,34.8,35.7,47.5,57.4C619.6,148.3,610.2,154.2,597.4,160.2z M578.1,85
		c2.8-2.7,4.3-5.3,4.6-7.7c18.8,15.5,34.9,34.2,47.4,55.4c0.3,3-1.3,6.2-4.5,9.7C612.9,120.7,596.8,101.3,578.1,85z M582.7,76.3
		c0-0.3,0-0.5-0.1-0.8c-0.1-0.5-0.3-1-0.5-1.4c17.1,14.5,32,31.6,44,50.8C614.2,106.5,599.5,90.2,582.7,76.3z M474.8,25.5
		c-0.6-0.5-1.3-0.9-2.2-1.2c9.4,1.4,18.7,3.4,27.7,6C491.9,28.2,483.4,26.6,474.8,25.5z M472.9,25.3c-14.5-1.6-29.2-1.7-43.9-0.1
		c0,0,0,0,0,0c-0.1-0.4-0.4-0.8-0.9-1.1c11.2-1.7,22.5-2.1,33.7-1.1c1.2,0.1,2.4,0.2,3.6,0.4C468.7,23.8,471.2,24.5,472.9,25.3z
		 M427.1,23.5c-0.8-0.3-1.7-0.4-2.9-0.6c3.3-0.6,6.6-0.9,9.9-1c2.6-0.1,5.1-0.1,7.7-0.1C437,22.2,432,22.7,427.1,23.5z M421.4,23
		c-0.1,0-0.1,0-0.2,0c0.1,0,0.2,0,0.4,0C421.5,23,421.4,23,421.4,23z M406.6,24.6c-2,1.1-3.8,3-5.5,5.4c-2.4-1.7-4.8-2.7-7-3.1
		c0.9-0.2,1.8-0.4,2.8-0.6c1.1-0.2,2.3-0.5,3.4-0.7c1.2-0.2,2.3-0.4,3.5-0.6C404.8,24.9,405.7,24.7,406.6,24.6z M379.8,30.5
		c-0.1,0-0.1,0-0.2,0c0.1,0,0.3-0.1,0.4-0.1C379.9,30.5,379.8,30.5,379.8,30.5z M377.1,31.7c-1,0.5-1.8,1-2.4,1.5
		c-4.9,1-9.7,2.3-14.4,3.8c2.4-0.9,4.8-1.9,7.2-2.7C370.6,33.3,373.8,32.4,377.1,31.7z M373.7,34.2c-0.3,0.5-0.5,0.9-0.4,1.3
		c0,0,0,0,0,0c-14.3,3.9-28,9.2-40.9,15.9c1.3-1.4,3.4-2.9,6.3-4.5c1.1-0.6,2.2-1.1,3.3-1.7C352,40.4,362.7,36.7,373.7,34.2z
		 M330.9,52.3c-7.7,4.1-15,8.6-22.1,13.6c7.5-5.7,15.4-10.9,23.7-15.6C331.8,51,331.3,51.7,330.9,52.3z M289.2,82.9
		c-0.4,1-0.5,2-0.4,2.9c0.1,0.3,0.2,0.7,0.3,1c-15.9,15-29.4,32.1-40.1,50.9c-0.2-1.1-0.1-2.4,0.5-3.6c8.9-15.9,19.8-30.7,32.4-44
		C284.3,87.6,286.7,85.2,289.2,82.9z M248.6,138.6c-10.7,18.9-18.5,39.5-23,60.9c4.3-22.3,12.1-43.6,22.8-63.2c0,0.5,0,1,0.1,1.5
		C248.4,138.1,248.5,138.3,248.6,138.6z M224.4,275.4c-3.6-22.3-3.4-44.4,0-65.7c1.2,2.5,3.9,4.7,7.8,6.5
		c-3.7,23.7-3.7,48.2,0.6,72.8c-4.3-2.2-6.9-4.9-7.5-8.1C225,279,224.6,277.2,224.4,275.4z M232.9,289.6c0.1,0.5,0.2,1,0.3,1.6
		c4.3,23.4,12.5,45.4,23.9,65.4c-2.1-1.2-3.7-2.5-4.7-3.9C240,332,231,309,226,284.2C227.4,286.2,229.7,288,232.9,289.6z
		 M257.7,357.6c8.2,14.2,18.1,27.4,29.4,39.1c-12.6-12.3-23.7-26.2-33.1-41.5C255,356.1,256.2,356.9,257.7,357.6z M306.7,413.7
		c5.3,2.2,13.1,3.7,22.7,4.6c13.4,12.5,28.2,22.3,44,29.3c-3.8-0.5-7.1-1.1-9.8-1.9c-17.4-6.6-33.8-15.3-49-26
		C311.9,417.7,309.2,415.7,306.7,413.7z M375.7,448.6c4.6,2,9.3,3.7,14.1,5.1c-6.9-1.7-13.8-3.6-20.4-6
		C371.3,448,373.4,448.3,375.7,448.6z M378.2,448.8c7.7,0.6,16.9,0.7,27.3,0.2c8.3,4.8,16.9,8.2,25.5,9.9c-4.5,0.1-8.5,0-12-0.3
		c-1.8-0.2-3.6-0.4-5.5-0.6C401.4,456.4,389.5,453.3,378.2,448.8z M434.6,459.5c0.2,0,0.3,0.1,0.5,0.1c-0.4,0-0.7,0-1.1,0
		C434.2,459.5,434.4,459.5,434.6,459.5z M438.9,459.3c7.4-0.4,15.6-1.3,24.2-2.5c1.1,0.6,2.2,1,3.3,1.3c-6.5,0.8-12.9,1.3-19.3,1.5
		C444.4,459.6,441.7,459.5,438.9,459.3z M464.4,456.6c5.1-0.7,10.4-1.6,15.8-2.6c5.4-1,10.6-2.1,15.6-3.2c-1.5,1.5-3.1,2.4-4.8,2.9
		c-3.5,0.8-7,1.6-10.5,2.2c-3.5,0.7-7.1,1.2-10.6,1.7C468.2,457.8,466.3,457.5,464.4,456.6z M497.1,450.5c8.5-2,16.4-4.1,23.4-6.4
		c-2.4,1.2-4.9,2.3-7.5,3.2c-6,2.1-12.2,4-18.5,5.6C495.4,452.2,496.2,451.4,497.1,450.5z M524.6,442.7c0.2-0.1,0.4-0.1,0.6-0.2
		c-0.3,0.1-0.7,0.3-1,0.4C524.4,442.9,524.5,442.8,524.6,442.7z M527.7,440.9c7.5-4.7,14.2-10.9,20.3-18.4
		c9.9-3.3,18.5-6.7,25.4-10.1c-8.9,8.3-18.8,15.4-29.6,21.2c-1.7,0.9-3.4,1.8-5.1,2.7C535.6,437.8,531.9,439.4,527.7,440.9z
		 M575.6,411.3c2-1,3.9-2.1,5.6-3.1c-5.4,4.6-11,8.9-16.9,12.9C568.3,418.1,572,414.8,575.6,411.3z M577.5,409.5
		c12.2-12.2,22.5-26.7,30.5-43.2c8.7-4.3,15.3-8.5,19.5-12.5c-1.7,2.8-3.4,5.6-5.2,8.4c-10.3,15.4-22.5,29.5-36.4,41.9
		C583.7,405.9,580.9,407.7,577.5,409.5z M653,284c1.1-1.2,2-2.4,2.6-3.5C652.4,298,647,315,639.7,331C646,316,650.5,300.2,653,284z
		 M653.2,282.8c3.4-22.7,3.1-46.2-1.3-69.6c-0.1-0.5-0.2-1-0.3-1.5c2.4-2.6,4-5.1,4.5-7.5c4.2,24.9,4.1,49.7,0,73.4
		C655.7,279.1,654.7,280.9,653.2,282.8z M651.5,211.2c-4.8-24.4-13.6-47.3-25.7-68.1c3-3.1,4.8-6.1,5-8.9
		c11.7,20.1,20.3,42.5,24.8,66.7c0,0,0,0.1,0,0.1h0C656.2,204.1,654.7,207.6,651.5,211.2z"/>
	<g>
		<defs>
			<rect id="SVGID_4_" x="36" y="21" width="777" height="559"/>
		</defs>
		<clipPath id="SVGID_5_">
			<use xlink:href="#SVGID_4_"  style="overflow:visible;"/>
		</clipPath>
		<path class="st2" d="M440.3,461c-7.2,0-14.5-0.4-21.7-1.1l-1.7-0.2v0l-1.5-0.2l-1.2-0.1c-17.8-2.2-34.9-6.4-51.3-12.6
			c-0.7-0.2-1.4-0.4-2-0.7l-0.6-0.2l0-0.1c-10.8-4.2-21.4-9.4-31.4-15.2v0.6l-0.6-0.2c-5-2.9-10-6.2-14.9-9.8
			c-3.7-2.6-7.3-5.3-10.6-7.9l-0.5-0.4c-0.8-0.6-1.2-0.9-1.6-1.2l-0.5-0.4l0.1-0.1c-19.9-16.3-36.6-35.7-49.7-57.6
			c-0.1-0.2-0.3-0.5-0.5-0.7l-0.3-0.5l0,0c-12.9-22-21.8-45.9-26.5-71.1c-4.7-25.1-5-50.6-0.9-75.7c0-0.4,0-0.6,0.1-0.8l0.1-0.6
			l0.1,0c4.2-24.9,12.7-48.8,25.1-71c0.2-0.4,0.4-1,0.7-1.5l0.3-0.5l0.1,0c5.5-9.5,11.7-18.7,18.4-27.2l0.3-0.5
			c4-5,8.3-9.9,12.8-14.6c3.2-3.4,6.6-6.8,10-9.9c0.5-0.5,1-1,1.6-1.6l0.5-0.4l0.1,0.1c13.4-12.1,28.1-22.5,43.9-31l1.7-0.9
			c0.6-0.3,1.2-0.6,1.8-1l0.6-0.3l0,0l0.4-0.2c8.3-4.2,16.9-7.9,25.7-11c7.3-2.6,14.8-4.8,22.2-6.6v0.5l1.3-0.3
			c2.2-0.5,4.2-0.9,6.2-1.3c1.2-0.3,2.4-0.5,3.6-0.7c1.2-0.2,2.4-0.4,3.6-0.6c2-0.3,4-0.6,5.9-0.9l1.6-0.3l0,0
			c7.6-1,15.3-1.7,22.8-1.9c2.2-0.1,4.3-0.1,6.3-0.1c7.2,0,14.5,0.4,21.6,1.1l1,0.1v0l4,0.4v-0.1c17.8,2.2,35.4,6.6,52.2,13.1
			l0.6,0.1c0.7,0.3,1.4,0.6,2,0.9c4.3,1.7,8.6,3.6,12.8,5.6c6,2.8,11.7,5.8,17.2,9l0.5,0.3l-0.1,0.1c9.4,5.5,18.5,11.9,27,18.8
			l0.6,0.3c0.5,0.4,0.9,0.8,1.2,1.2c0.7,0.6,1.5,1.3,2.3,2c18.5,15.8,34.2,34.4,46.5,55.2v-0.2l0.6,1c12.1,20.7,20.7,43,25.5,66.4
			c0.3,1.5,0.6,3,0.9,4.5c4.7,25.1,5,50.6,0.9,75.6h0l-0.1,0.7c-0.1,0.3-0.1,0.6-0.2,0.9c-4.3,25-12.8,49-25.5,71.3l-0.2,0.6
			c-0.3,0.5-0.6,0.9-0.9,1.4c-2.3,4-4.9,8.1-7.6,12.2c-3.3,5-6.7,9.8-10.3,14.3l-0.4,0.5l-0.1-0.1c-7.2,9-15.2,17.6-23.7,25.4
			l-0.4,0.5c-0.5,0.5-1.1,1-1.8,1.5c-13.1,11.7-27.6,21.8-43.1,30l-1.8,0.9v0l-2.3,1.2c-15.5,7.8-31.7,13.8-48.5,17.7l-0.6,0.1l0,0
			c-3.3,0.8-6.5,1.5-9.9,2.1c-3.2,0.6-6.3,1.1-9.5,1.5l-0.7,0.1C460.3,460.3,450.3,461,440.3,461 M435.1,459.7
			c1.3,0,2.6,0.1,3.9,0.1l0-0.5c-1.3,0.1-2.7,0.1-4,0.2l0.1,0.2L435.1,459.7z M430.7,459.5c1.1,0.1,2.2,0.1,3.3,0.1v-0.4
			c-0.9-0.1-1.9-0.3-2.8-0.5l-0.1,0.7C431,459.5,430.8,459.5,430.7,459.5z M463,457.4c-3,0.4-5.9,0.8-8.8,1.1
			c3.1-0.2,6.3-0.5,9.4-0.8C463.4,457.6,463.2,457.5,463,457.4z M382.2,449.7c10.1,3.7,20.7,6.3,31.4,7.7c1.8,0.2,3.6,0.4,5.4,0.6
			c2,0.2,4.3,0.3,6.7,0.3c-6.9-1.9-13.8-4.8-20.6-8.7C397.2,450.1,389,450,382.2,449.7z M409.1,449.4c8.4,4.5,17,7.4,25.7,8.7
			c7.7-0.3,16.4-1.1,25.6-2.3c-0.1-0.1-0.2-0.2-0.3-0.2c-3.1-2.3-6.2-5.8-9.5-10.4C435.7,447.3,421.8,448.7,409.1,449.4z
			 M467.1,456.8c0.9,0.2,1.9,0.2,2.7,0.2c3.5-0.5,7-1,10.5-1.7c3.5-0.7,7-1.4,10.5-2.2c0.9-0.2,1.7-0.6,2.5-1.1
			c-4.4,1-8.7,1.9-13.1,2.7C475.8,455.4,471.4,456.2,467.1,456.8z M452.7,444.9c2.9,4,5.8,7.1,8.5,9.1c0.8,0.6,1.6,1.1,2.3,1.5
			c5.1-0.8,10.7-1.8,16.4-2.8c5.7-1.1,11.3-2.2,16.6-3.5c0.2-0.5,0.8-1.2,1.3-2c1.8-2.9,3.4-6.8,4.6-11.6
			c-8.2,1.9-16.5,3.6-24.8,5.1C469.3,442.3,461,443.7,452.7,444.9z M389.8,453.8c1.3,0.3,2.7,0.6,4,0.9c-1.3-0.4-2.7-0.7-4-1.1
			L389.8,453.8z M506,448.9c-2.8,0.7-5.8,1.5-8.8,2.2c-0.1,0.2-0.2,0.3-0.4,0.5C499.9,450.8,503,449.9,506,448.9z M504.6,435.1
			c-1.4,5.5-3.1,9.9-5.1,13.1c-0.1,0.1-0.1,0.2-0.2,0.4c9.2-2.2,17.5-4.6,24.9-7.1c7.5-4.3,14.5-10.1,20.7-17.3
			C532.7,428.1,519.2,431.7,504.6,435.1z M332.3,419.1c13.4,12,28.1,21.5,43.7,28.1c6.9,0.6,16,0.8,26.1,0.5
			c-11.1-7-21.6-16.5-31.2-28.4C356.2,420,343.1,419.9,332.3,419.1z M373.4,419.1c10.1,12.2,21,21.8,32.5,28.5
			c12.9-0.7,27.7-2.1,43.4-4.3c-5-7.6-10.1-17.8-15.2-30.4C412.3,416.1,391.8,418.2,373.4,419.1z M310,415.5
			c1.6,1.2,3.2,2.4,4.9,3.6c15.2,10.7,31.6,19.4,48.8,25.9c1.5,0.5,3.3,0.9,5.3,1.2c-14.4-6.9-27.9-16.1-40.2-27.5
			C321.4,418.1,315,417,310,415.5z M520.5,444l0.2,0.5c1.2-0.5,2.4-1,3.6-1.4l-0.1-0.3C523,443.2,521.7,443.6,520.5,444z
			 M436.1,412.6c5.1,12.7,10.3,22.9,15.4,30.4c8.7-1.2,17.4-2.7,25.9-4.3c8.5-1.6,17.1-3.4,25.7-5.3c2-8.8,3.2-20.2,3.4-33.9
			c-11.4,2.6-23.2,5-35,7.2C459.5,409,447.7,410.9,436.1,412.6z M525.2,442.3l0.1,0.3c1.1-0.4,2.1-0.9,3.1-1.4
			c-0.2,0.1-0.3,0.1-0.5,0.2l-0.3-0.6C526.8,441.3,526,441.8,525.2,442.3z M570,414.7c-6.2,2.8-13.5,5.6-21.8,8.3
			c-4.7,5.9-10,11.1-15.8,15.4c2.2-0.9,4.2-1.8,6-2.7c1.7-0.9,3.4-1.7,5.1-2.6C553,428,561.9,421.8,570,414.7z M508.4,399.1
			c-0.2,13.6-1.3,25-3.2,33.8c15.5-3.6,29.7-7.6,42.4-11.8c8.1-10.2,14.8-23.1,19.8-38.1C549.6,388.8,529.8,394.2,508.4,399.1z
			 M564.3,421c-1.1,0.9-2.2,1.7-3.3,2.5c1.1-0.8,2.3-1.5,3.4-2.3L564.3,421z M569.6,382.2c-4.7,14.6-11.1,27.3-18.9,37.8
			c9.7-3.4,17.9-6.7,24.4-10c12.1-11.7,22.4-25.8,30.5-41.9C595.8,372.8,583.7,377.6,569.6,382.2z M291.1,365.2
			c8.6,16.5,19,31.4,31.1,44.1c2.3,2.5,4.9,5,7.8,7.7c10.2,0.7,24,0.9,39.3,0.2c-0.5-0.7-1.1-1.4-1.6-2.1
			c-10.6-13.9-19.9-30.7-27.8-49.8C321.3,366.2,304.6,366.2,291.1,365.2z M342,365.2c7.7,18.7,16.9,35.1,27.3,48.7
			c0.8,1.1,1.6,2.1,2.5,3.2c18.8-0.9,39.5-3,61.6-6.1c-6-15.1-11.7-33-17.2-53.3C389.6,361.5,364.6,364,342,365.2z M260.4,359.5
			c11.8,19.8,26.8,37.3,44.4,51.8c4.5,2.4,11.9,4.2,21.9,5.3c-2-1.9-4-3.9-5.9-5.9c-12.4-13.2-23.2-28.5-32-45.6
			C276.5,363.9,267,362.1,260.4,359.5z M418.1,357.4c5.4,20.3,11.2,38.3,17.2,53.3c11.7-1.7,23.7-3.7,35.7-5.9
			c11.8-2.2,23.7-4.7,35.4-7.3c0.2-16.1-0.9-34.9-3.2-55.9c-13.7,3.1-28,6.1-42.4,8.8C446.8,353,432.4,355.4,418.1,357.4z
			 M625,356.8c-4.1,3.2-9.7,6.6-16.8,10.1c-7.1,14.8-16.3,28.3-27.3,39.9c1.7-1.1,3.3-2.1,4.6-3.1c13.7-12.3,25.9-26.3,36.3-41.8
			C622.9,360.2,624,358.6,625,356.8z M287,396.8c1.9,1.9,3.9,3.8,5.9,5.6c-2-1.9-3.9-3.8-5.7-5.7L287,396.8z M505.2,341.1
			c2.3,20.9,3.3,39.7,3.2,55.9c21.7-5,41.8-10.6,59.7-16.5c0.4-1.3,0.8-2.6,1.2-3.8c4.8-16.5,7.4-35,7.9-55.3
			C555.5,328.5,531.4,335.1,505.2,341.1z M579.1,320.8c-0.4,20.7-3.1,39.7-8,56.5c-0.2,0.9-0.5,1.7-0.8,2.5
			c14.6-4.9,27-9.9,36.9-14.7c1.5-3.5,3-6.6,4.2-9.7c6.7-16.2,11.1-33.8,13.1-52.3C612.2,308.9,596.9,314.9,579.1,320.8z M256,357.4
			c2.9,4.5,5.9,8.9,9.1,13.2c-2.8-4.1-5.4-8.3-7.9-12.6C256.8,357.8,256.4,357.6,256,357.4z M290.1,363.2c13.5,1.1,30.2,1.2,49,0.2
			c-8.2-20.2-14.3-42.4-18.4-65.9c-19.8,1-37.6,1-52.1-0.1l0.5,2.6C273.2,322.7,280.3,343.9,290.1,363.2z M626.7,302.1
			c-2,19.1-6.5,37.3-13.4,54.1c-1.1,2.6-2.2,5.1-3.4,7.6c9-4.6,15.3-8.9,18.6-12.9c11.1-19.8,18.8-41.4,22.7-64.2
			C646,291.5,637.7,296.7,626.7,302.1z M322.7,297.5c4.1,23.5,10.3,45.7,18.5,65.9c22.7-1.2,47.8-3.7,74.5-7.6
			c-5.4-20.6-10.3-42.9-14.5-66.3C373.1,293.5,346.7,296.2,322.7,297.5z M235,291c4.4,23.3,12.5,45.5,24.3,65.8
			c5.9,2.8,15.7,5,29,6.2c-9.6-19.2-16.5-40.3-20.7-62.6c-0.2-1-0.4-2.1-0.5-3.1v0C253,296.2,242.2,294.1,235,291z M403.1,289.2
			c4.2,23.5,9.1,45.8,14.6,66.3c14.1-2.1,28.5-4.4,42.9-7.1c14.4-2.7,28.7-5.7,42.6-8.8c-2.3-21.1-5.8-43.7-10.3-67.1
			c-14.6,3.3-29.6,6.4-44.7,9.2C433,284.5,417.8,287.1,403.1,289.2z M227.1,286.4c5,23.3,13.6,45.5,25.8,65.9
			c0.6,0.8,1.4,1.6,2.4,2.4c-10.9-19.7-18.5-41-22.7-63.4l-0.2-1.2C230.2,288.9,228.4,287.7,227.1,286.4z M494.7,272
			c4.5,23.4,8,46,10.3,67.1c26.3-6,50.6-12.7,72.2-19.8c0.4-21.8-1.8-44.7-6.5-68.1C547.9,258.7,522.3,265.7,494.7,272z M639.6,331
			c-1,2.4-2.1,4.9-3.2,7.2c1.2-2.4,2.3-4.7,3.4-7.1L639.6,331z M572.6,250.7c4.7,23.3,6.9,46.2,6.5,68.1c18-6,33.4-12,45.6-17.9
			c2.2-21.5,1.1-43.9-3.1-66.5c-0.2-0.9-0.3-1.7-0.5-2.6C608,238.1,591.6,244.4,572.6,250.7z M623.1,230.9c0.2,1,0.4,2.1,0.6,3.1
			c4.2,22.4,5.2,44.5,3.2,65.8c11.9-5.9,20.3-11.4,25-16.5c3.5-22.9,3.1-46.5-1.2-69.8C645,218.9,635.7,224.8,623.1,230.9z
			 M654.5,283.2c-0.3,0.4-0.6,0.8-1,1.2c-0.7,4.9-1.7,9.9-2.8,14.8C652.1,293.9,653.4,288.6,654.5,283.2z M268.2,295.7
			c14.4,1.1,32.2,1.1,52.1,0.1l-0.1-0.6c-0.2-1.2-0.4-2.4-0.6-3.6c-3.5-22.4-5-45.4-4.4-68.2c-9.4,0.5-18.3,0.7-26.6,0.7
			c-8.1,0-15.7-0.2-22.5-0.7C263.6,247.7,264.3,272,268.2,295.7z M317.2,223.3c-0.6,22.8,0.9,45.6,4.4,68c0.2,1.1,0.3,2.2,0.5,3.2
			l0.2,1.1c24-1.3,50.3-4,78.4-8.1c-2.3-12.7-4.3-25.6-6.1-38.4c-1.6-11.1-2.9-22.4-4.1-33.4C364.3,219.5,339.7,222,317.2,223.3z
			 M234.2,288.9c6.9,3.2,17.6,5.4,32.1,6.6c-3.9-23.7-4.6-48-2-72.2c-13.5-1-23.8-3-30.8-5.9C229.8,241.2,230,265.3,234.2,288.9z
			 M224.7,211.4c-3.2,21.2-3.1,42.7,0.2,63.9c0.3,1.8,0.6,3.7,1,5.5c0.5,2.6,2.5,5,6.1,7c-4-23.5-4.1-47.5-0.4-71.2
			C228.4,215,226.2,213.3,224.7,211.4z M392.5,215.4c1.2,11.1,2.6,22.3,4.1,33.4c1.8,12.9,3.9,25.8,6.1,38.4c14.9-2.2,30-4.7,45-7.5
			c15.1-2.8,30.1-5.9,44.7-9.2c-2.4-12.6-5.2-25.4-8.1-38c-2.6-11-5.3-22-8.2-32.6c-13.6,3.1-27.6,6-41.6,8.6
			C420.4,211.1,406.2,213.4,392.5,215.4z M652.3,211.8l0.2,1.2c4.2,22.4,4.7,45,1.6,67.3c0.7-1.1,1.2-2.1,1.4-3.1
			c4-23.3,4.1-47.1,0.3-70.7C655.2,208.2,653.9,210,652.3,211.8z M478,199.4c2.9,10.9,5.7,21.8,8.2,32.6c3,12.8,5.7,25.6,8.1,38
			c27.6-6.3,53.2-13.3,76-20.7l-0.2-1.2c-0.2-1-0.4-2.1-0.6-3.1c-4.8-22.1-11.7-44-20.4-65C527.7,187,503.7,193.5,478,199.4z
			 M551,179.5c8.8,21.1,15.6,43.1,20.4,65.2c0.2,1.1,0.4,2.2,0.7,3.3l0.2,0.9c19.1-6.3,35.4-12.6,48.6-18.8
			c-4.8-23.5-12.9-46.5-24.1-68.1C584.3,167.7,568.8,173.6,551,179.5z M598.6,161c11.2,21.7,19.3,44.6,24.1,68.1
			c13-6.3,22.3-12.2,27.5-17.7c-4.6-23.5-13-46.1-25.1-67C619.7,149.6,610.7,155.1,598.6,161z M266.4,221.6
			c13.6,0.9,30.3,0.9,48.9-0.1c0.7-24.4,3.8-48.2,9-70.8c-15.1,0.8-28.7,0.9-39.9,0.1C275.3,173.4,269.2,197.1,266.4,221.6z
			 M233.7,215.5c6.7,2.9,17,4.9,30.7,6c2.8-24.4,8.8-48.2,18-70.7c-11-0.8-19.6-2.4-25.5-4.7C245.4,168,237.6,191.4,233.7,215.5z
			 M326.4,150.6c-5.3,22.5-8.4,46.3-9.1,70.7c22.3-1.3,46.9-3.8,73-7.6c-2.5-24.2-4.1-47.5-4.7-69.3
			C364.6,147.5,344.6,149.6,326.4,150.6z M248.9,140.7c-11.8,21.2-19.7,44-23.7,67.6c0.7,2.2,2.9,4.5,6.6,6.4
			c4-24.1,11.8-47.4,23.3-69.3C252.2,144,250.2,142.4,248.9,140.7z M387.6,144.2c0.6,21.8,2.2,45.1,4.7,69.3c13.7-2,27.8-4.4,41.8-7
			c13.9-2.6,27.9-5.5,41.5-8.6c-6.3-23.5-13.2-45.8-20.6-66.3c-10.9,2.5-22.2,4.8-33.6,6.9C410.1,140.7,398.8,142.6,387.6,144.2z
			 M224.3,205.6l0,0.1c-0.4,2.2-0.7,4.5-1,6.8c0.1-1,0.3-2,0.5-3l0.3-2l0,0.1c0.5-2.7,1-5.4,1.5-8.1l-0.2,0c-0.4,1.8-0.7,3.7-1,5.5
			L224.3,205.6z M626.6,142.9c12,20.8,20.5,43.2,25.3,66.6c2.6-3.2,3.6-6.1,3.1-8.7c-4.3-23-12.3-44.9-23.9-65.1
			C630.5,138,629,140.4,626.6,142.9z M456.9,131.2c7.3,20.6,14.2,42.9,20.6,66.3c25.7-5.9,49.6-12.3,70.9-19.2
			c-9.5-22.6-20.9-43.7-34-62.7C497,121.2,477.7,126.4,456.9,131.2z M516.4,115c13,19.1,24.4,40.2,33.9,62.7
			c17.8-5.8,33.2-11.7,45.7-17.5c-11.4-21.8-25.7-41.8-42.3-59.5C543.3,105.5,530.8,110.3,516.4,115z M555.5,99.9
			c16.6,17.7,30.8,37.7,42.2,59.5c12.4-5.9,21.3-11.5,26.5-16.6c-12.4-21.1-28.1-40.1-46.7-56.4C572.9,90.6,565.5,95.1,555.5,99.9z
			 M285.2,149.1c11.1,0.7,24.6,0.5,39.6-0.3c4.7-19.4,10.9-37.4,18.6-53.5c-10.4,0.6-19.7,0.7-27.6,0.2
			C303.6,111.6,293.3,129.6,285.2,149.1z M257.8,144.5c5.7,2.2,14.2,3.7,25.3,4.5c8.1-19.5,18.3-37.5,30.4-53.5
			c-7.5-0.5-13.5-1.6-17.7-3.1C280.8,107.8,268,125.4,257.8,144.5z M345.7,95.2c-7.8,16-14.1,34-18.8,53.5
			c18.1-1.1,37.8-3.2,58.8-6.2c-0.5-18.9-0.1-36.3,1-51.7C372,92.9,358.2,94.4,345.7,95.2z M250.1,138.7c0.8,1.9,2.8,3.6,5.9,5
			c10.2-19.1,22.9-36.6,37.8-52.1c-2-0.9-3.4-2-4.4-3.2C273.8,103.2,260.6,120.1,250.1,138.7z M388.4,90.5
			c-1.1,15.4-1.4,32.8-0.9,51.7c11-1.6,22.2-3.5,33.5-5.6c11.2-2.1,22.4-4.4,33.3-6.8c-6.4-17.8-12.9-33.9-19.5-47.9
			c-7.6,1.7-15.3,3.3-23.1,4.7C404,88.1,396.2,89.4,388.4,90.5z M247.9,138.4c-0.6,1.2-1.3,2.4-1.9,3.6c0.6-1.1,1.2-2.3,1.9-3.4
			C247.9,138.5,247.9,138.4,247.9,138.4z M579,85c18.6,16.3,34.3,35.3,46.7,56.3c2.8-3.1,4-6,3.8-8.6
			c-12.1-20.4-27.8-38.7-46.4-54.3C582.6,80.5,581.2,82.7,579,85z M630,131.9l1,1.7c0.5,0.9,1,1.7,1.5,2.6c-1.1-2-2.2-3.9-3.3-5.9
			l0-0.1l0,0l-0.4-0.5c-1-1.6-1.9-3.2-2.9-4.8l-0.2,0.1C627.2,127.3,628.6,129.6,630,131.9L630,131.9z M288.1,84.7
			c-2,1.9-3.9,3.8-5.8,5.7c-12.5,13.2-23.4,28-32.3,43.9c-0.1,0.3-0.2,0.6-0.3,0.8c10.5-17.9,23.5-34.2,38.6-48.5
			c-0.1-0.2-0.1-0.4-0.2-0.7C288.2,85.5,288.1,85.1,288.1,84.7z M436.7,81.5c6.6,14,13.1,30.1,19.5,47.9
			c20.6-4.7,39.8-9.9,57.1-15.4c-11.4-16.5-23.8-31-36.8-43.1C464.4,74.7,451,78.2,436.7,81.5z M478.6,70.2
			c13,12.2,25.3,26.8,36.6,43.2c14.4-4.7,26.8-9.4,37.1-14c-14.6-15.3-30.7-28.3-47.9-38.9C497.2,63.7,488.5,67,478.6,70.2z
			 M506.6,59.5c17.1,10.6,33.1,23.7,47.6,39c10.1-4.7,17.5-9.2,22-13.3c-16.4-14.2-34.6-25.9-54.2-35
			C518.6,53.2,513.4,56.3,506.6,59.5z M317.3,93.7c7.8,0.3,16.9,0.2,27.1-0.4c5.9-12.1,12.6-22.9,19.8-32.2
			c-5.8,0.3-11.1,0.4-15.7,0.2C337.3,70.6,326.8,81.5,317.3,93.7z M297.2,90.8c4.2,1.4,10.2,2.3,17.7,2.7
			c9.3-12.1,19.7-23,30.8-32.4c-4.1-0.3-7.5-0.8-10.1-1.6C321.8,68.5,308.9,79,297.2,90.8z M366.9,61c-7.4,9.3-14.2,20.1-20.2,32.2
			c12.4-0.8,25.9-2.3,40-4.4c0.9-11.4,2.2-21.7,3.9-30.4C382.2,59.6,374.2,60.5,366.9,61z M290.8,87.1c0.8,1.1,2.3,2.1,4.4,3
			c11.6-11.8,24.4-22.3,38.2-31.3c-1-0.4-1.8-0.9-2.3-1.5C316.6,65.7,303.1,75.7,290.8,87.1z M392.5,58.1c-1.7,8.7-3,18.9-3.9,30.4
			c7.5-1.1,15.2-2.4,22.8-3.8c7.6-1.4,15.2-3,22.6-4.6c-5-10.4-9.9-19.5-14.6-27c-4.3,1-8.8,1.9-13.4,2.7
			C401.4,56.7,396.9,57.4,392.5,58.1z M329.6,54.5c-12.7,6.9-24.6,15.2-35.4,24.7c-0.9,0.8-1.9,1.7-2.8,2.5
			c-0.8,1.2-1.3,2.3-1.3,3.3c12.1-11.2,25.5-21.1,39.8-29.4c-0.1-0.2-0.1-0.4-0.2-0.6C329.7,54.9,329.6,54.7,329.6,54.5z
			 M523.5,48.8c19.5,9.1,37.7,20.9,54.1,35c2.4-2.5,3.6-4.8,3.7-6.8c-16.5-13.5-35-24.5-54.8-32.7C526,45.7,525,47.2,523.5,48.8z
			 M421.3,52.6c4.8,7.6,9.7,16.7,14.6,27c14-3.2,27.1-6.7,38.9-10.4c-10-9.1-20.2-16.8-30.5-22.7C437.3,48.7,429.5,50.8,421.3,52.6z
			 M583.3,76c1.1,0.9,2.1,1.7,3.1,2.6c-1-0.9-2.1-1.8-3.1-2.8C583.3,75.9,583.3,76,583.3,76z M526.8,42.2
			c19.3,7.9,37.3,18.5,53.5,31.4c-0.2-0.2-0.4-0.5-0.6-0.7c-4.9-4.1-10.1-8-15.3-11.6l-0.2-0.9l-0.3,0.5c-2-1.3-3.9-2.6-5.9-3.9
			c-7.7-4.9-15.8-9.4-24-13.3c-2.5-1.2-5-2.2-7.5-3.3c0.2,0.4,0.3,0.8,0.4,1.2C526.7,41.7,526.8,42,526.8,42.2z M308.8,65.9
			c-1.8,1.4-3.7,2.8-5.5,4.3c1.8-1.4,3.7-2.8,5.6-4.1L308.8,65.9z M446.8,45.8c10.1,6.1,20.2,13.8,30.1,22.8
			c9.7-3.1,18.2-6.2,25.4-9.4c-13.2-7.9-27-14.3-40.8-18.9C457.4,42.1,452.4,44,446.8,45.8z M351.1,59.4c4.4,0.1,9.5-0.1,14.9-0.4
			c6.5-8,13.5-14.9,20.8-20.5c-1,0.1-2,0.1-3,0.1C372.6,44.1,361.5,51.1,351.1,59.4z M337.9,58.2c2.7,0.6,6.1,0.9,10.3,1.1
			c9.6-8.1,20.3-15.1,31.4-20.8c-0.5,0-0.9-0.1-1.4-0.1C364.2,43.6,350.7,50.2,337.9,58.2z M396.5,37.4c-2.1,0.3-4.2,0.6-6.2,0.7
			c-7.4,5.4-14.8,12.4-21.7,20.6c7-0.5,14.5-1.4,22.3-2.5C392.5,48.8,394.4,42.5,396.5,37.4z M464.1,39.1
			c13.8,4.7,27.3,11.2,40.4,19.1c6.9-3.1,12.1-6.1,15.5-8.9c-15.1-6.8-31-12-47.1-15.3C470.9,35.7,467.9,37.4,464.1,39.1z
			 M332.8,56.3c0.6,0.4,1.5,0.8,2.5,1.2c10.6-6.7,21.7-12.6,33.2-17.4C356.2,44.4,344.2,49.9,332.8,56.3z M398.6,37.1
			c-2.2,4.9-4.1,11.3-5.7,18.9c4.1-0.6,8.4-1.3,12.7-2.2c4.3-0.8,8.5-1.7,12.6-2.6c-4.2-6.5-8.3-11.7-12.1-15.6
			c-1.3,0.3-2.5,0.5-3.8,0.7C401.1,36.7,399.9,36.9,398.6,37.1z M361,40.8c-10.1,3.4-19.9,7.7-29.3,12.6c-0.1,0.3-0.2,0.8-0.1,1.3
			C341.1,49.4,350.9,44.7,361,40.8z M408.2,35.2c3.8,4,7.8,9.2,11.9,15.6c7.7-1.7,15-3.7,21.7-5.7c-9.3-5.2-18.6-9-27.8-11.4
			C412.2,34.3,410.2,34.8,408.2,35.2z M474.8,32.4c16,3.4,31.8,8.6,46.9,15.5c1.6-1.6,2.7-3.1,3-4.4c-15.5-6.2-31.7-10.7-48.2-13.3
			C476.1,30.9,475.6,31.7,474.8,32.4z M372.7,35.1c-10.6,2.4-20.8,6.1-30.5,10.8c-1.1,0.5-2.2,1.1-3.2,1.7c-0.2,0.1-0.3,0.2-0.4,0.3
			C349.5,42.6,360.9,38.3,372.7,35.1C372.7,35.1,372.7,35.1,372.7,35.1z M417.7,32.7c8.8,2.6,17.8,6.5,26.8,11.7
			c5.3-1.7,10-3.3,14.1-5c-12.7-4-25.5-6.5-38.2-7.6C419.5,32.1,418.6,32.4,417.7,32.7z M477,28.3c16.3,2.6,32.3,6.9,47.6,13
			c-0.4-1.1-1.2-1.9-2.4-2.7c-1.1-0.4-2.2-0.8-3.4-1.3c-13.5-4.9-27.6-8.4-42-10.3c0.1,0.2,0.1,0.4,0.1,0.5
			C477,27.9,477,28.1,477,28.3z M360.2,37c-1.2,0.5-2.5,1-3.7,1.5c1.2-0.4,2.5-0.9,3.8-1.3L360.2,37z M424.3,30.2
			c12.4,1.3,24.9,4,37.2,8.1c3.5-1.6,6.5-3.2,8.8-4.7c-14.8-2.9-29.9-4.2-44.9-3.9C425.2,29.8,424.8,30,424.3,30.2z M391.3,35.3
			c-0.8,0.3-1.6,0.7-2.4,1.1c0.4,0,0.8-0.1,1.1-0.1C390.4,35.9,390.8,35.6,391.3,35.3z M398.6,33c-1.5,0.9-3.1,1.8-4.6,2.8
			c1.1-0.2,2.3-0.3,3.5-0.5C397.8,34.5,398.2,33.7,398.6,33z M401.5,31.7c-0.6,1-1.3,2.1-1.9,3.2c0.8-0.1,1.6-0.3,2.4-0.4
			c0.8-0.2,1.6-0.3,2.4-0.5C403.4,33.2,402.4,32.4,401.5,31.7z M388.9,32.9l0.2,0.7c1.8-0.5,3.6-1.1,5.4-1.6l0.2,0.7
			c0.9-0.4,1.8-0.7,2.7-1l0.3,0.7c0.9-0.5,1.8-1,2.7-1.5l0.7-0.4c-0.2-0.2-0.4-0.3-0.6-0.4l-0.2,0.5c-1.4-0.1-2.9-0.2-4.3-0.3v0.1
			l0,0.5l0.1,0.1c-0.8,0.1-1.6,0.1-2.5,0.2l0.1,0.7c-1.9,0.3-3.7,0.7-5.6,1l0,0.2C388.4,33,388.6,33,388.9,32.9z M404.6,31.8
			c0.6,0.5,1.3,1.1,1.9,1.7c1.2-0.3,2.3-0.5,3.4-0.8C408.2,32.4,406.4,32.1,404.6,31.8z M500.3,30.4c2.2,0.6,4.3,1.1,6.5,1.8
			c-2.1-0.7-4.3-1.3-6.4-1.9L500.3,30.4z M435.2,27.7c12.5,0.3,25,1.8,37.3,4.2c0.9-0.7,1.5-1.4,1.9-2
			C461.5,28,448.4,27.3,435.2,27.7z M377,31.2l0.2,0.6c0.7-0.3,1.5-0.7,2.4-1.1l-0.1-0.3C378.7,30.7,377.9,30.9,377,31.2z
			 M412.5,31.4c0.6,0.1,1.1,0.3,1.7,0.4c0.3-0.1,0.6-0.2,0.9-0.3C414.2,31.4,413.4,31.4,412.5,31.4z M401.8,30.2l0.8,0.1
			c1,0.1,2.1,0.3,3.1,0.4l0.1-0.7h1.2c0.6,0,1.1,0,1.7,0l0-0.7c1.9-0.2,3.7-0.3,5.6-0.5l-0.1-0.7c0.3,0,0.5-0.1,0.8-0.1l0-0.2
			c-1.9,0.3-3.8,0.7-5.6,1.1l-0.2-0.7c-0.8,0.2-1.6,0.5-2.3,0.7l-0.3-0.7c-1.3,0.6-2.6,1.2-3.9,1.8l-0.4-0.4
			C402.1,29.8,401.9,30,401.8,30.2z M379.9,30.4l0.1,0.2c1-0.2,2-0.3,3.1-0.4l-0.1-0.6C381.9,29.8,380.9,30.1,379.9,30.4z M396.8,27
			c1.4,0.5,2.8,1.2,4.2,2.2c1-1.4,2.1-2.6,3.2-3.5c-0.1,0-0.2,0-0.3,0l-6.9,1.3C397,26.9,396.9,27,396.8,27z M392.2,28.9
			c0.8,0,1.7,0,2.5,0c0.7,0,1.4,0.1,2.1,0.1c-1.8-0.7-3.5-1-5.1-0.9c-1.1,0.3-2.1,0.5-3.1,0.8C389.8,28.9,391,28.9,392.2,28.9z
			 M442.6,25.6c10.8,0,21.7,0.8,32.4,2.4c-0.1-0.4-0.4-0.9-0.9-1.3C464.1,25.6,453.3,25.2,442.6,25.6z M412.6,24.5
			c-1.1,0.1-2.2,0.2-3.3,0.4c-1.5,0.4-2.9,1.3-4.3,2.7c0.6-0.3,1.3-0.6,1.9-0.9C408.7,25.9,410.6,25.2,412.6,24.5z M429.6,24.5
			C429.6,24.5,429.6,24.5,429.6,24.5c12.1-1.2,24.4-1.4,36.5-0.5c-0.2,0-0.4-0.1-0.6-0.1c-1.2-0.1-2.4-0.3-3.6-0.4
			C451.3,22.7,440.4,23,429.6,24.5z M418.1,23l0.1,0.7c1-0.3,2-0.5,3-0.7l0,0l0-0.2C420.2,22.8,419.1,22.9,418.1,23z M421.6,23.3
			l0,0.2L421.6,23.3l0.1,0.2l-0.1-0.4c0.9,0,1.8,0.1,2.6,0.2l0-0.7c-0.9,0.1-1.8,0.1-2.7,0.2l0.1,0.1l-0.1,0.2c0,0,0,0,0,0l0,0.1
			L421.6,23.3z M441.9,21.8l0,0.2c1.3-0.1,2.6-0.1,4-0.2C444.5,21.8,443.2,21.8,441.9,21.8z"/>
	</g>
	<path class="st3" d="M416.4,310.2c2.1,1.3,5.1,2.4,8.3,2.4c4.8,0,7.5-2.5,7.5-6.1c0-3.3-1.9-5.3-6.8-7.1c-5.9-2.1-9.5-5.2-9.5-10.3
		c0-5.6,4.7-9.8,11.6-9.8c3.6,0,6.4,0.8,7.9,1.8l-1.3,3.8c-1.1-0.7-3.5-1.7-6.8-1.7c-4.9,0-6.8,2.9-6.8,5.4c0,3.4,2.2,5,7.2,7
		c6.1,2.4,9.1,5.3,9.1,10.6c0,5.5-4,10.4-12.5,10.4c-3.5,0-7.3-1.1-9.2-2.3L416.4,310.2"/>
	<path class="st3" d="M446.2,304c0.1,6.4,4.1,9,8.8,9c3.4,0,5.5-0.6,7.2-1.3l0.8,3.3c-1.6,0.7-4.5,1.7-8.6,1.7
		c-7.9,0-12.7-5.3-12.7-13c0-7.8,4.7-14,12.2-14c8.4,0,10.6,7.4,10.6,12.2c0,1-0.1,1.7-0.2,2.2l-18.3,0 M459.9,300
		c0.1-2.9-1.2-7.6-6.4-7.6c-4.8,0-6.9,4.4-7.2,7.6H459.9z"/>
	<path class="st3" d="M488.7,315c-1.2,0.6-4,1.5-7.4,1.5c-7.8,0-12.9-5.3-12.9-13.2c0-8,5.5-13.8,13.9-13.8c2.8,0,5.2,0.7,6.5,1.4
		l-1.1,3.6c-1.1-0.6-2.9-1.2-5.4-1.2c-5.9,0-9.2,4.4-9.2,9.8c0,6,3.9,9.7,9,9.7c2.6,0,4.4-0.7,5.8-1.2L488.7,315"/>
	<path class="st3" d="M515.8,308.9c0,2.7,0.1,5,0.2,7.1h-4.2l-0.2-4h0.2c-1.2,2.1-4,4.9-8.7,4.9c-4.1,0-9.1-2.3-9.1-11.5V290h5v14.3
		c0,4.9,1.5,8.3,5.6,8.3c3.1,0,5.2-2.2,6-4.3c0.3-0.6,0.4-1.5,0.4-2.4V290h5v19"/>
	<path class="st3" d="M523.6,298.1c0-3,0-5.7-0.2-8.1h3.8l0.2,5h0.2c1.2-3.4,4-5.6,7.1-5.6c0.5,0,0.9,0.1,1.3,0.2v4.3
		c-0.5-0.1-1-0.1-1.6-0.1c-3.3,0-5.6,2.5-6.2,5.9c-0.1,0.7-0.2,1.4-0.2,2.2V316h-5l0-18"/>
	<path class="st3" d="M543.5,285c-1.8,0-2.9-1.4-2.9-3.1c0-1.7,1.2-3,3.1-3c1.8,0,3,1.3,3,3C546.6,283.6,545.4,285,543.5,285H543
		 M546,316h-5v-26h5V316z"/>
	<path class="st3" d="M559,284v6h7v4h-6v13.9c0,3.2,1,5,3.9,5c1.4,0,2.2-0.1,3-0.3l0.2,3.6c-1,0.3-2.6,0.6-4.5,0.6
		c-2.4,0-4.3-0.8-5.5-2c-1.4-1.4-2-3.7-2-6.8V294h-4v-4h4v-4.7l4.6-1.4"/>
	<path class="st3" d="M573.5,290l5.7,15.6c0.7,1.7,1.3,3.8,1.7,5.4h0.1c0.5-1.6,1-3.6,1.7-5.5L588,290h5.1l-7.2,18.8
		c-3.4,9.1-5.8,13.7-9,16.6c-2.4,2-4.7,2.8-5.9,3.1l-1.2-4c1.2-0.3,2.8-1.1,4.2-2.3c1.3-1,2.9-2.9,4-5.3c0.2-0.5,0.4-0.8,0.4-1.1
		c0-0.3-0.1-0.7-0.4-1.2l-9.7-24.4h4.8"/>
	<path class="st3" d="M416.4,363.6c2.1,1.3,5.1,2.4,8.3,2.4c4.8,0,7.5-2.5,7.5-6.2c0-3.3-1.9-5.3-6.8-7.1c-5.9-2.1-9.5-5.2-9.5-10.3
		c0-5.6,4.7-9.8,11.6-9.8c3.6,0,6.4,0.9,7.9,1.8l-1.3,3.8c-1.1-0.7-3.5-1.7-6.8-1.7c-4.9,0-6.8,2.9-6.8,5.4c0,3.4,2.2,5,7.2,6.9
		c6.1,2.4,9.1,5.3,9.1,10.6c0,5.6-4,10.4-12.5,10.4c-3.5,0-7.3-1.1-9.2-2.4L416.4,363.6"/>
	<path class="st3" d="M448,337v6h7v4h-6v13.9c0,3.2,1,5,3.8,5c1.4,0,2.2-0.1,3-0.3l0.2,3.6c-1,0.3-2.6,0.6-4.5,0.6
		c-2.4,0-4.3-0.7-5.5-2c-1.4-1.4-2-3.7-2-6.8V347h-4v-4h4v-4.3l4.6-1.4"/>
	<path class="st3" d="M479,363.3c0,2.1,0.1,4.1,0.4,5.7h-4.5l-0.5-3h-0.2c-1.5,1.9-4.5,3.5-8.4,3.5c-5.6,0-8.4-3.4-8.4-6.9
		c0-5.8,5.9-9,16.5-8.9v-0.5c0-2-0.6-5.6-6.2-5.5c-2.6,0-5.3,0.6-7.2,1.8l-1.1-2.9c2.3-1.2,5.6-2.1,9.1-2.1c8.5,0,10.5,5,10.5,9.8
		v8.7 M474,356.1c-5.1-0.1-11,0.8-11,5.8c0,3.1,2,4.5,4.4,4.5c3.4,0,5.6-2.1,6.4-4.3c0.2-0.5,0.2-1,0.2-1.5V356.1z"/>
	<path class="st3" d="M486.4,351c0-2.7,0-4.8-0.2-7h4.2l0.3,4h0.2c1.2-2.3,4.1-4.7,8.3-4.7c3.5,0,8.9,2.1,8.9,10.7v15h-4v-14.9
		c0-4.2-1.6-7.7-6.2-7.7c-3.1,0-5.6,2.2-6.5,4.8c-0.2,0.6-0.3,1.5-0.3,2.2V369h-5v-19"/>
	<path class="st3" d="M538,331v31.6c0,0,0.4,4.9,0.5,6.4h-4.2l-0.2-4H534c-1.4,2.9-4.5,5.1-8.7,5.1c-6.2,0-11.1-5.3-11.1-13.1
		c-0.1-8.6,5.3-13.8,11.6-13.8c4,0,6.7,1.9,7.8,3.9h0.5v-15h4 M534,354c0-0.6,0-1.4-0.2-2c-0.7-2.9-3.2-5.4-6.8-5.4
		c-4.9,0-7.8,4.3-7.8,10c0,5.3,2.6,9.6,7.7,9.6c3.1,0,6-2.1,6.9-5.6c0.2-0.7,0.2-1.3,0.2-2V354z"/>
	<path class="st3" d="M564,363.3c0,2.1,0.1,4.1,0.4,5.7h-4.5l-0.5-3h-0.2c-1.5,1.9-4.5,3.5-8.4,3.5c-5.6,0-8.4-3.4-8.4-6.9
		c0-5.8,5.9-9,16.5-8.9v-0.5c0-2-0.6-5.6-6.2-5.5c-2.6,0-5.3,0.6-7.2,1.8l-1.2-2.9c2.3-1.2,5.6-2.1,9.1-2.1c8.5,0,10.5,5,10.5,9.8
		v8.7 M560,356.1c-5.1-0.1-11,0.8-11,5.8c0,3.1,2,4.5,4.4,4.5c3.4,0,5.6-2.1,6.4-4.3c0.1-0.5,0.2-1,0.2-1.5V356.1z"/>
	<path class="st3" d="M571.9,351.1c0-3-0.1-5.7-0.2-8.1h4.6l0.2,5h0.2c1.2-3.4,4-5.6,7.1-5.6c0.5,0,0.8,0,1.3,0.1v4.3
		c-0.5-0.1-1-0.1-1.6-0.1c-3.2,0-5.6,2.5-6.2,5.9c-0.1,0.7-0.2,1.4-0.2,2.2V369h-5l0.1-17"/>
	<path class="st3" d="M611,331v31.6c0,0,0.4,4.9,0.5,6.4h-4.2l-0.2-4H607c-1.4,2.9-4.5,5.1-8.8,5.1c-6.2,0-11.1-5.3-11.1-13.1
		c-0.1-8.6,5.3-13.8,11.5-13.8c4,0,6.7,1.9,7.8,3.9h0.5v-15h4 M607,354c0-0.6,0-1.4-0.2-2c-0.7-2.9-3.3-5.4-6.8-5.4
		c-4.9,0-7.7,4.3-7.7,10c0,5.3,2.6,9.6,7.6,9.6c3.2,0,6-2.1,6.9-5.6c0.2-0.7,0.2-1.3,0.2-2V354z"/>
	<path class="st3" d="M618.5,364.5c1.4,0.9,3.9,1.8,6.2,1.8c3.4,0,5-1.7,5-3.8c0-2.2-1.3-3.5-4.7-4.8c-4.7-1.7-6.9-4.2-6.9-7.3
		c0-4.2,3.4-7.6,8.9-7.6c2.6,0,4.9,0.7,6.3,1.6l-1.1,3.4c-1-0.6-2.9-1.5-5.3-1.5c-2.8,0-4.3,1.6-4.3,3.5c0,2.2,1.5,3.2,4.9,4.4
		c4.4,1.7,6.8,3.9,6.8,7.8c0,4.6-3.6,7.8-9.6,7.8c-2.8,0-5.5-0.7-7.3-1.8L618.5,364.5"/>
	<path class="st3" d="M676.9,368.2c-1.7,0.9-5.1,1.7-9.5,1.7c-10.2,0-17.7-6.4-17.7-18.3c0-11.3,7.6-18.9,18.8-18.9
		c4.4,0,7.3,1,8.5,1.6l-1.2,3.8c-1.7-0.9-4.2-1.5-7.2-1.5c-8.5,0-14,5.4-14,14.9c0,8.9,5.1,14.5,13.8,14.5c2.9,0,5.8-0.6,7.7-1.5
		L676.9,368.2"/>
	<path class="st3" d="M692.4,370c-7,0-12.4-5.1-12.4-13.3c0-8.7,5.7-13.7,12.8-13.7c7.4,0,12.4,5.4,12.4,13.2
		C705.2,365.8,698.6,370,692.4,370H692 M692.6,366c4.5,0,7.9-4.2,7.9-10.1c0-4.4-2.2-9.9-7.8-9.9c-5.5,0-7.9,5.1-7.9,10
		C684.8,361.7,688,366,692.6,366L692.6,366z"/>
	<path class="st3" d="M732.8,362c0,2.7,0,5,0.2,7h-4.2l-0.3-4h0.2c-1.2,2.1-4,4.9-8.7,4.9c-4.1,0-9.1-2.3-9.1-11.5V343h5v14.3
		c0,4.9,1.5,8.3,5.6,8.3c3,0,5.2-2.2,6-4.3c0.3-0.7,0.4-1.5,0.4-2.4V343h5v19"/>
	<path class="st3" d="M740.6,351c0-2.7,0-4.8-0.2-7h4.2l0.3,4h1c1.2-2.3,4.1-4.7,8.3-4.7c3.5,0,8.9,2.1,8.9,10.7v15h-5v-14.9
		c0-4.2-1.6-7.7-6.2-7.7c-3.1,0-5.6,2.2-6.5,4.8c-0.2,0.6-0.3,1.5-0.3,2.2V369h-5v-19"/>
	<path class="st3" d="M788.7,368.4c-1.2,0.6-3.9,1.5-7.4,1.5c-7.8,0-12.9-5.3-12.9-13.2c0-7.9,5.4-13.8,13.9-13.8
		c2.7,0,5.2,0.7,6.5,1.4l-1.1,3.6c-1.1-0.6-2.9-1.2-5.4-1.2c-6,0-9.2,4.4-9.2,9.8c0,6,3.8,9.7,9,9.7c2.7,0,4.4-0.6,5.8-1.2
		L788.7,368.4"/>
	<path class="st3" d="M796.4,339c-1.8,0-2.9-1.4-2.9-3c0-1.7,1.2-3,3-3c1.8,0,3,1.3,3,3C799.5,337.6,798.3,339,796.4,339H796
		 M799,369h-5v-26h5V369z"/>
	<rect x="807" y="331" class="st3" width="5" height="38"/>
	<g>
		<defs>
			<rect id="SVGID_6_" x="36" y="21" width="777" height="559"/>
		</defs>
		<clipPath id="SVGID_7_">
			<use xlink:href="#SVGID_6_"  style="overflow:visible;"/>
		</clipPath>
		<polyline class="st4" points="392.5,352.1 116.2,439 35.5,219.8 325.7,203.5 392.5,352.1 		"/>
	</g>
	<path class="st1" d="M183.6,308.3c0,5.6-1.2,10.4-3.7,14.7c-2.4,4.2-5.9,7.8-10.4,10.6c-4.5,2.8-9.8,4.9-16.1,6.4
		c-6.3,1.4-13.2,2.1-20.9,2.1H127v28H91v-94h42.1c15.7,0,28.1,2.7,37.1,8c9,5.3,13.5,13.4,13.5,24.2 M149.3,308.1
		c0-8.1-6-12.1-18-12.1H127v25h4c5.9,0,10.5-1,13.6-3.1C147.8,315.8,149.3,312.6,149.3,308.1z"/>
	<path class="st1" d="M272.4,370c-5.5,1.1-11.8,1.6-18.8,1.6c-9.9,0-18.8-1.1-26.6-3.4c-7.8-2.3-14.4-5.5-19.8-9.7
		c-5.4-4.2-9.5-9.3-12.3-15.3c-2.8-6-4.2-12.7-4.2-20.1c0-7.3,1.5-13.9,4.5-19.9c3-6,7.2-11.1,12.7-15.4c5.5-4.3,12-7.6,19.5-9.9
		c7.5-2.3,15.9-3.5,24.9-3.5c7,0,13.5,0.2,19.2,1.4c5.7,1.2,5.8,1.4,10.5,3.1v25.3c-3.8-2-7.8-3.7-12.2-5c-4.4-1.3-9.1-2-14.2-2
		c-8.1,0-14.7,2.2-19.8,6.7c-5.1,4.5-7.6,10.8-7.6,19.1c0,4.3,0.8,8,2.4,11.3c1.6,3.2,3.8,5.9,6.5,8.1c2.7,2.1,5.9,3.8,9.5,4.8
		c3.6,1.1,7.5,1.6,11.7,1.6c4.3,0,8.5-0.5,12.6-1.4c4.1-0.9,8.5-2.2,13.2-4v23.6C278.4,368.7,277.9,369,272.4,370"/>
	<rect x="299" y="276" class="st1" width="36" height="94"/>
	<path class="st1" d="M338.7,246.5c0,6.3-2.1,11.3-6.3,14.9c-4.2,3.6-9.4,5.4-15.6,5.4c-6.2,0-11.4-1.8-15.6-5.4
		c-4.2-3.6-6.3-8.6-6.3-14.9c0-6.5,2.1-11.5,6.3-15.1c4.2-3.6,9.4-5.4,15.6-5.4c6.2,0,11.4,1.8,15.6,5.4
		C336.6,235,338.7,240,338.7,246.5"/>
	<polyline class="st3" points="786,283 782,283 782,280 794,280 794,283 790,283 790,296 787,296 787,283 	"/>
	<path class="st3" d="M808.9,289.4c-0.1-1.9-0.1-4.1-0.1-6.4h-0.1c-0.5,2-1.1,4.2-1.7,6l-1.9,6h-2.7l-1.7-5.9c-0.5-1.8-1-4-1.4-6.1
		h-0.1c-0.1,2-0.2,4.4-0.3,6.3l-0.3,5.7h-3.2l0.9-15h4.6l1.6,5.3c0.5,1.8,1,3.8,1.3,5.7h0.1c0.4-1.8,1-3.9,1.5-5.7l1.7-5.3h4.5
		l0.8,16h-3.4l-0.3-6"/>
</g>
<path class="st3" d="M429.3,778.7c2.1,1.3,5.1,2.4,8.3,2.4c4.8,0,7.5-2.5,7.5-6.1c0-3.3-1.9-5.3-6.8-7.1c-5.9-2.1-9.5-5.2-9.5-10.3
	c0-5.6,4.7-9.8,11.6-9.8c3.6,0,6.4,0.8,7.9,1.8l-1.3,3.8c-1.1-0.7-3.5-1.7-6.8-1.7c-4.9,0-6.8,2.9-6.8,5.4c0,3.4,2.2,5,7.2,7
	c6.1,2.4,9.1,5.3,9.1,10.6c0,5.5-4,10.4-12.5,10.4c-3.5,0-7.3-1.1-9.2-2.3L429.3,778.7"/>
<path class="st3" d="M459,772.4c0.1,6.4,4.1,9,8.8,9c3.4,0,5.5-0.6,7.2-1.3l0.8,3.3c-1.6,0.7-4.5,1.7-8.6,1.7
	c-7.9,0-12.7-5.3-12.7-13c0-7.8,4.7-14,12.2-14c8.4,0,10.6,7.4,10.6,12.2c0,1-0.1,1.7-0.2,2.2l-17.7,0 M472.7,768.5
	c0.1-2.9-1.2-7.6-6.4-7.6c-4.8,0-6.9,4.4-7.2,7.6H472.7z"/>
<path class="st3" d="M501.5,783.4c-1.2,0.6-4,1.5-7.4,1.5c-7.8,0-12.9-5.3-12.9-13.2c0-8,5.5-13.8,13.9-13.8c2.8,0,5.2,0.7,6.5,1.4
	l-1.1,3.6c-1.1-0.6-2.9-1.2-5.4-1.2c-5.9,0-9.2,4.4-9.2,9.8c0,6,3.9,9.7,9,9.7c2.6,0,4.4-0.7,5.8-1.2L501.5,783.4"/>
<path class="st3" d="M528.6,777.4c0,2.7,0.1,5,0.2,7.1h-4.2l-0.2-4h-0.3c-1.2,2.1-4,4.9-8.7,4.9c-4.1,0-9.1-2.3-9.1-11.5v-15.4h5
	v14.3c0,4.9,1.5,8.3,5.6,8.3c3.1,0,5.2-2.2,6-4.3c0.3-0.6,0.4-1.5,0.4-2.4v-15.8h5v19"/>
<path class="st3" d="M536.5,766.5c0-3,0-5.7-0.2-8.1h4.4l0.2,5h0.2c1.2-3.4,4-5.6,7.1-5.6c0.5,0,0.9,0.1,1.3,0.2v4.3
	c-0.5-0.1-1-0.1-1.6-0.1c-3.3,0-5.6,2.5-6.2,5.9c-0.1,0.7-0.2,1.4-0.2,2.2v14.1h-5L536.5,766.5"/>
<path class="st3" d="M556.3,753.5c-1.8,0-2.9-1.4-2.9-3.1c0-1.7,1.2-3,3.1-3c1.8,0,3,1.3,3,3C559.4,752.1,558.2,753.5,556.3,753.5
	L556.3,753.5 M559.4,784.5h-5v-26h5V784.5z"/>
<path class="st3" d="M572.4,752.5v6h7v4h-7v13.9c0,3.2,1,5,3.9,5c1.4,0,2.2-0.1,3-0.3l0.2,3.6c-1,0.3-2.6,0.6-4.5,0.6
	c-2.4,0-4.3-0.8-5.5-2c-1.4-1.4-2-3.7-2-6.8v-14.1h-4v-4h4v-4.7l4.6-1.4"/>
<path class="st3" d="M586.3,758.5l5.7,15.6c0.7,1.7,1.3,3.8,1.7,5.4h0.1c0.5-1.6,1-3.6,1.7-5.5l5.2-15.5h5.1l-7.2,18.8
	c-3.4,9.1-5.8,13.7-9,16.6c-2.4,2-4.7,2.8-5.9,3.1l-1.2-4c1.2-0.3,2.8-1.1,4.2-2.3c1.3-1,2.9-2.9,4-5.3c0.2-0.5,0.4-0.8,0.4-1.1
	c0-0.3-0.1-0.7-0.4-1.2l-9.7-24.4H586.3"/>
<path class="st3" d="M429.3,832.1c2.1,1.3,5.1,2.4,8.3,2.4c4.8,0,7.5-2.5,7.5-6.2c0-3.3-1.9-5.3-6.8-7.1c-5.9-2.1-9.5-5.2-9.5-10.3
	c0-5.6,4.7-9.8,11.6-9.8c3.6,0,6.4,0.9,7.9,1.8l-1.3,3.8c-1.1-0.7-3.5-1.7-6.8-1.7c-4.9,0-6.8,2.9-6.8,5.4c0,3.4,2.2,5,7.2,6.9
	c6.1,2.4,9.1,5.3,9.1,10.6c0,5.6-4,10.4-12.5,10.4c-3.5,0-7.3-1.1-9.2-2.4L429.3,832.1"/>
<path class="st3" d="M461.4,805.5v6h7v4h-7v13.9c0,3.2,1,5,3.8,5c1.4,0,2.2-0.1,3-0.3l0.2,3.6c-1,0.3-2.6,0.6-4.5,0.6
	c-2.4,0-4.3-0.7-5.5-2c-1.4-1.4-2-3.7-2-6.8v-14.1h-4v-4h4v-4.3l4.6-1.4"/>
<path class="st3" d="M491.4,831.7c0,2.1,0.1,4.1,0.4,5.7h-4.5l-0.5-3h-0.2c-1.5,1.9-4.5,3.5-8.4,3.5c-5.6,0-8.4-3.4-8.4-6.9
	c0-5.8,5.9-9,16.5-8.9v-0.5c0-2-0.6-5.6-6.2-5.5c-2.6,0-5.3,0.6-7.2,1.8l-1.1-2.9c2.3-1.2,5.6-2.1,9.1-2.1c8.5,0,10.5,5,10.5,9.8
	v8.7 M487.4,824.6c-5.1-0.1-11,0.8-11,5.8c0,3.1,2,4.5,4.4,4.5c3.4,0,5.6-2.1,6.4-4.3c0.2-0.5,0.2-1,0.2-1.5V824.6z"/>
<path class="st3" d="M499.2,819.5c0-2.7,0-4.8-0.2-7h4.2l0.3,4h0.8c1.2-2.3,4.1-4.7,8.3-4.7c3.5,0,8.9,2.1,8.9,10.7v15h-5v-14.9
	c0-4.2-1.6-7.7-6.2-7.7c-3.1,0-5.6,2.2-6.5,4.8c-0.2,0.6-0.3,1.5-0.3,2.2v15.6h-4v-19"/>
<path class="st3" d="M551.4,799.5v31.6c0,0-0.2,4.9,0,6.4h-4.2l-0.2-4h-0.1c-1.4,2.9-4.5,5.1-8.7,5.1c-6.2,0-11.1-5.3-11.1-13.1
	c-0.1-8.6,5.3-13.8,11.6-13.8c4,0,6.7,1.9,7.8,3.9h0v-15h5 M546.4,822.4c0-0.6,0-1.4-0.2-2c-0.7-2.9-3.2-5.4-6.8-5.4
	c-4.9,0-7.8,4.3-7.8,10c0,5.3,2.6,9.6,7.7,9.6c3.1,0,6-2.1,6.9-5.6c0.2-0.7,0.2-1.3,0.2-2V822.4z"/>
<path class="st3" d="M577.4,831.7c0,2.1,0.1,4.1,0.4,5.7h-4.5l-0.5-3h-0.2c-1.5,1.9-4.5,3.5-8.4,3.5c-5.6,0-8.4-3.4-8.4-6.9
	c0-5.8,5.9-9,16.5-8.9v-0.5c0-2-0.6-5.6-6.2-5.5c-2.6,0-5.3,0.6-7.2,1.8l-1.2-2.9c2.3-1.2,5.6-2.1,9.1-2.1c8.5,0,10.5,5,10.5,9.8
	v8.7 M572.4,824.6c-5.1-0.1-11,0.8-11,5.8c0,3.1,2,4.5,4.4,4.5c3.4,0,5.6-2.1,6.4-4.3c0.1-0.5,0.2-1,0.2-1.5V824.6z"/>
<path class="st3" d="M584.8,819.5c0-3-0.1-5.7-0.2-8.1h4.1l0.2,5h0.2c1.2-3.4,4-5.6,7.1-5.6c0.5,0,0.8,0,1.3,0.1v4.3
	c-0.5-0.1-1-0.1-1.6-0.1c-3.2,0-5.6,2.5-6.2,5.9c-0.1,0.7-0.2,1.4-0.2,2.2v14.1h-5l0.1-18"/>
<path class="st3" d="M624.4,799.5v31.6c0,0-0.2,4.9,0,6.4h-4.2l-0.2-4h-0.1c-1.4,2.9-4.5,5.1-8.8,5.1c-6.2,0-11.1-5.3-11.1-13.1
	c-0.1-8.6,5.3-13.8,11.5-13.8c4,0,6.7,1.9,7.8,3.9h0v-15h5 M619.4,822.4c0-0.6,0-1.4-0.2-2c-0.7-2.9-3.3-5.4-6.8-5.4
	c-4.9,0-7.7,4.3-7.7,10c0,5.3,2.6,9.6,7.6,9.6c3.2,0,6-2.1,6.9-5.6c0.2-0.7,0.2-1.3,0.2-2V822.4z"/>
<path class="st3" d="M631.3,833c1.4,0.9,3.9,1.8,6.2,1.8c3.4,0,5-1.7,5-3.8c0-2.2-1.3-3.5-4.7-4.8c-4.7-1.7-6.9-4.2-6.9-7.3
	c0-4.2,3.4-7.6,8.9-7.6c2.6,0,4.9,0.7,6.3,1.6l-1.1,3.4c-1-0.6-2.9-1.5-5.3-1.5c-2.8,0-4.3,1.6-4.3,3.5c0,2.2,1.5,3.2,4.9,4.4
	c4.4,1.7,6.8,3.9,6.8,7.8c0,4.6-3.6,7.8-9.6,7.8c-2.8,0-5.5-0.7-7.3-1.8L631.3,833"/>
<path class="st3" d="M689.7,836.6c-1.7,0.9-5.1,1.7-9.5,1.7c-10.2,0-17.7-6.4-17.7-18.3c0-11.3,7.6-18.9,18.8-18.9
	c4.4,0,7.3,1,8.5,1.6l-1.2,3.8c-1.7-0.9-4.2-1.5-7.2-1.5c-8.5,0-14,5.4-14,14.9c0,8.9,5.1,14.5,13.8,14.5c2.9,0,5.8-0.6,7.7-1.5
	L689.7,836.6"/>
<path class="st3" d="M705.2,838.5c-7,0-12.4-5.1-12.4-13.3c0-8.7,5.7-13.7,12.8-13.7c7.4,0,12.4,5.4,12.4,13.2
	C718.1,834.3,711.4,838.5,705.2,838.5h0.1 M705.4,834.5c4.5,0,7.9-4.2,7.9-10.1c0-4.4-2.2-9.9-7.8-9.9c-5.5,0-7.9,5.1-7.9,10
	C697.6,830.2,700.8,834.5,705.4,834.5L705.4,834.5z"/>
<path class="st3" d="M745.7,830.4c0,2.7,0,5,0.2,7h-4.2l-0.3-4h-0.3c-1.2,2.1-4,4.9-8.7,4.9c-4.1,0-9.1-2.3-9.1-11.5v-15.4h5v14.3
	c0,4.9,1.5,8.3,5.6,8.3c3,0,5.2-2.2,6-4.3c0.3-0.7,0.4-1.5,0.4-2.4v-15.8h5v19"/>
<path class="st3" d="M753.5,819.5c0-2.7,0-4.8-0.2-7h4.2l0.3,4h0.6c1.2-2.3,4.1-4.7,8.3-4.7c3.5,0,8.9,2.1,8.9,10.7v15h-4v-14.9
	c0-4.2-1.6-7.7-6.2-7.7c-3.1,0-5.6,2.2-6.5,4.8c-0.2,0.6-0.3,1.5-0.3,2.2v15.6h-5v-19"/>
<path class="st3" d="M801.5,836.8c-1.2,0.6-3.9,1.5-7.4,1.5c-7.8,0-12.9-5.3-12.9-13.2c0-7.9,5.4-13.8,13.9-13.8
	c2.7,0,5.2,0.7,6.5,1.4l-1.1,3.6c-1.1-0.6-2.9-1.2-5.4-1.2c-6,0-9.2,4.4-9.2,9.8c0,6,3.8,9.7,9,9.7c2.7,0,4.4-0.6,5.8-1.2
	L801.5,836.8"/>
<path class="st3" d="M809.3,807.5c-1.8,0-2.9-1.4-2.9-3c0-1.7,1.2-3,3-3c1.8,0,3,1.3,3,3C812.3,806.1,811.2,807.5,809.3,807.5h0.1
	 M811.4,837.5h-5v-26h5V837.5z"/>
<rect x="819.4" y="799.5" class="st3" width="5" height="38"/>
<polyline class="st3" points="405.4,820.6 129,907.4 48.4,688.2 338.5,671.9 405.4,820.6 "/>
<path class="st1" d="M196.4,776.8c0,5.6-1.2,10.4-3.7,14.7c-2.4,4.2-5.9,7.8-10.4,10.6c-4.5,2.8-9.8,4.9-16.1,6.4
	c-6.3,1.4-13.2,2.1-20.9,2.1h-6v28h-36v-94h42.5c15.7,0,28.1,2.7,37.1,8c9,5.3,13.5,13.4,13.5,24.2 M161.7,776.6
	c0-8.1-6-12.1-18-12.1h-4.4v25h4c5.9,0,10.5-1,13.6-3.1C160.2,784.3,161.7,781,161.7,776.6z"/>
<path class="st1" d="M285.2,838.5c-5.5,1.1-11.8,1.6-18.8,1.6c-9.9,0-18.8-1.1-26.6-3.4c-7.8-2.3-14.4-5.5-19.8-9.7
	c-5.4-4.2-9.5-9.3-12.3-15.3c-2.8-6-4.2-12.7-4.2-20.1c0-7.3,1.5-13.9,4.5-19.9c3-6,7.2-11.1,12.7-15.4c5.5-4.3,12-7.6,19.5-9.9
	c7.5-2.3,15.9-3.5,24.9-3.5c7,0,13.5,0.2,19.2,1.4c5.7,1.2,5.8,1.4,10.1,3.1v25.3c-3.3-2-7.3-3.7-11.7-5c-4.4-1.3-9.1-2-14.2-2
	c-8.1,0-14.7,2.2-19.8,6.7c-5.1,4.5-7.6,10.8-7.6,19.1c0,4.3,0.8,8,2.4,11.3c1.6,3.2,3.8,5.9,6.5,8.1c2.7,2.1,5.9,3.8,9.5,4.8
	c3.6,1.1,7.5,1.6,11.7,1.6c4.3,0,8.5-0.5,12.6-1.4c4.1-0.9,8.5-2.2,12.7-4v23.6C291.2,837.2,290.7,837.4,285.2,838.5"/>
<rect x="311.4" y="744.5" class="st1" width="36" height="94"/>
<path class="st1" d="M351.6,714.9c0,6.3-2.1,11.3-6.3,14.9c-4.2,3.6-9.4,5.4-15.6,5.4c-6.2,0-11.4-1.8-15.6-5.4
	c-4.2-3.6-6.3-8.6-6.3-14.9c0-6.5,2.1-11.5,6.3-15.1c4.2-3.6,9.4-5.4,15.6-5.4c6.2,0,11.4,1.8,15.6,5.4
	C349.5,703.4,351.6,708.4,351.6,714.9"/>
<polyline class="st3" points="799.4,751.5 795.4,751.5 795.4,748.5 807.4,748.5 807.4,751.5 802.4,751.5 802.4,764.5 799.4,764.5 
	799.4,751.5 "/>
<path class="st3" d="M821.8,757.9c-0.1-1.9-0.1-4.1-0.1-6.4h-0.1c-0.5,2-1.1,4.2-1.7,6l-1.9,6h-2.7l-1.7-5.9c-0.5-1.8-1-4-1.4-6.1
	h-0.1c-0.1,2-0.2,4.4-0.3,6.3l-0.3,5.7h-3.2l0.9-15h4.6l1.6,5.3c0.5,1.8,1,3.8,1.3,5.7h0.1c0.4-1.8,1-3.9,1.5-5.7l1.7-5.3h4.5
	l0.8,16H822l-0.3-6"/>
</svg>
